<svg xmlns="http://www.w3.org/2000/svg" xmlns:xlink="http://www.w3.org/1999/xlink" width="1020" height="408" viewBox="0 0 1020 408">
  <defs>
    <filter id="Fondo" x="0" y="0" width="1020" height="408" filterUnits="userSpaceOnUse">
      <feOffset dy="3" input="SourceAlpha"/>
      <feGaussianBlur stdDeviation="3" result="blur"/>
      <feFlood flood-opacity="0.161"/>
      <feComposite operator="in" in2="blur"/>
      <feComposite in="SourceGraphic"/>
    </filter>
  </defs>
  <g id="Grupo_1208959" data-name="Grupo 1208959" transform="translate(-290.5 -3563)">
    <g transform="matrix(1, 0, 0, 1, 290.5, 3563)" filter="url(#Fondo)">
      <path id="Fondo-2" data-name="Fondo" d="M0,0H1002V390H0Z" transform="translate(9 6)" fill="#fff"/>
    </g>
    <path id="Trazado_1049409" data-name="Trazado 1049409" d="M418.8,3652.254v271.268H949.06" transform="translate(-32.5 -33.254)" fill="none" stroke="#707070" stroke-width="2"/>
    <path id="Trazado_1050464" data-name="Trazado 1050464" d="M3.8-3.859V0H1.281V-11.2H5.234q4.234,0,4.234,3.57A3.426,3.426,0,0,1,8.254-4.9,4.813,4.813,0,0,1,5.008-3.859Zm0-5.406v3.492H4.8q2.016,0,2.016-1.766,0-1.727-2.016-1.727ZM16.088-5.773a2.142,2.142,0,0,0-1.039-.242,1.5,1.5,0,0,0-1.258.59,2.573,2.573,0,0,0-.453,1.605V0H10.869V-8h2.469v1.484h.031a2.136,2.136,0,0,1,2.109-1.625,1.59,1.59,0,0,1,.609.094ZM20.988.2A4.3,4.3,0,0,1,17.843-.926,4.064,4.064,0,0,1,16.7-3.969a4.065,4.065,0,0,1,1.188-3.105A4.487,4.487,0,0,1,21.1-8.2a4.249,4.249,0,0,1,3.125,1.121,3.985,3.985,0,0,1,1.133,2.965A4.23,4.23,0,0,1,24.187-.961,4.348,4.348,0,0,1,20.988.2Zm.063-6.5a1.647,1.647,0,0,0-1.359.6A2.653,2.653,0,0,0,19.206-4q0,2.3,1.859,2.3,1.773,0,1.773-2.367Q22.839-6.3,21.05-6.3ZM29.458-.93h-.031V0H26.958V-11.844h2.469V-6.8h.031a2.929,2.929,0,0,1,2.6-1.4,2.855,2.855,0,0,1,2.383,1.063,4.582,4.582,0,0,1,.836,2.906A4.962,4.962,0,0,1,34.3-1.016,3.181,3.181,0,0,1,31.692.2,2.521,2.521,0,0,1,29.458-.93ZM29.388-4.3v.82A1.872,1.872,0,0,0,29.833-2.2a1.449,1.449,0,0,0,1.141.508,1.514,1.514,0,0,0,1.309-.652A3.15,3.15,0,0,0,32.747-4.2a2.506,2.506,0,0,0-.426-1.551A1.437,1.437,0,0,0,31.106-6.3a1.569,1.569,0,0,0-1.23.555A2.107,2.107,0,0,0,29.388-4.3ZM43.381,0H41.045V-1.148h-.031A2.607,2.607,0,0,1,38.631.2,2.492,2.492,0,0,1,36.8-.465a2.366,2.366,0,0,1-.668-1.762q0-2.328,2.758-2.687L41.061-5.2q0-1.312-1.422-1.312a4.853,4.853,0,0,0-2.719.852V-7.523a6.116,6.116,0,0,1,1.41-.469,7.413,7.413,0,0,1,1.629-.2q3.422,0,3.422,3.414Zm-2.32-3.25v-.539L39.608-3.6q-1.2.156-1.2,1.086a.9.9,0,0,0,.293.691,1.126,1.126,0,0,0,.793.27,1.462,1.462,0,0,0,1.133-.48A1.735,1.735,0,0,0,41.061-3.25ZM47.836-.93H47.8V0H45.336V-11.844H47.8V-6.8h.031a2.929,2.929,0,0,1,2.6-1.4,2.855,2.855,0,0,1,2.383,1.063,4.582,4.582,0,0,1,.836,2.906,4.962,4.962,0,0,1-.977,3.211A3.181,3.181,0,0,1,50.071.2,2.521,2.521,0,0,1,47.836-.93ZM47.766-4.3v.82A1.872,1.872,0,0,0,48.211-2.2a1.449,1.449,0,0,0,1.141.508,1.514,1.514,0,0,0,1.309-.652A3.15,3.15,0,0,0,51.125-4.2,2.506,2.506,0,0,0,50.7-5.746,1.437,1.437,0,0,0,49.485-6.3a1.569,1.569,0,0,0-1.23.555A2.107,2.107,0,0,0,47.766-4.3ZM56.51-9.266a1.442,1.442,0,0,1-1.023-.371,1.2,1.2,0,0,1-.4-.91,1.153,1.153,0,0,1,.4-.906A1.49,1.49,0,0,1,56.51-11.8a1.486,1.486,0,0,1,1.027.352,1.158,1.158,0,0,1,.395.906,1.191,1.191,0,0,1-.395.922A1.466,1.466,0,0,1,56.51-9.266ZM57.728,0H55.26V-8h2.469Zm4.548,0H59.808V-11.844h2.469Zm3.33-9.266a1.442,1.442,0,0,1-1.023-.371,1.2,1.2,0,0,1-.4-.91,1.153,1.153,0,0,1,.4-.906,1.49,1.49,0,0,1,1.023-.352,1.486,1.486,0,0,1,1.027.352,1.158,1.158,0,0,1,.395.906,1.191,1.191,0,0,1-.395.922A1.466,1.466,0,0,1,65.607-9.266ZM66.825,0H64.357V-8h2.469Zm9.908,0H74.264V-1.1h-.031A2.768,2.768,0,0,1,71.757.2,3.033,3.033,0,0,1,69.343-.863a4.382,4.382,0,0,1-.914-2.957A4.77,4.77,0,0,1,69.436-7a3.287,3.287,0,0,1,2.641-1.2,2.246,2.246,0,0,1,2.156,1.109h.031v-4.758h2.469ZM74.311-3.891v-.6a1.893,1.893,0,0,0-.453-1.3,1.5,1.5,0,0,0-1.18-.516A1.487,1.487,0,0,0,71.4-5.66a2.993,2.993,0,0,0-.461,1.77,2.59,2.59,0,0,0,.445,1.625,1.479,1.479,0,0,0,1.234.57,1.485,1.485,0,0,0,1.223-.6A2.507,2.507,0,0,0,74.311-3.891ZM85.469,0H83.133V-1.148H83.1A2.607,2.607,0,0,1,80.719.2a2.492,2.492,0,0,1-1.832-.66,2.366,2.366,0,0,1-.668-1.762q0-2.328,2.758-2.687L83.149-5.2q0-1.312-1.422-1.312a4.853,4.853,0,0,0-2.719.852V-7.523a6.116,6.116,0,0,1,1.41-.469,7.413,7.413,0,0,1,1.629-.2q3.422,0,3.422,3.414Zm-2.32-3.25v-.539L81.7-3.6q-1.2.156-1.2,1.086a.9.9,0,0,0,.293.691,1.126,1.126,0,0,0,.793.27,1.462,1.462,0,0,0,1.133-.48A1.735,1.735,0,0,0,83.149-3.25ZM95.252,0H92.783V-1.1h-.031A2.768,2.768,0,0,1,90.275.2,3.033,3.033,0,0,1,87.861-.863a4.382,4.382,0,0,1-.914-2.957A4.77,4.77,0,0,1,87.955-7,3.287,3.287,0,0,1,90.6-8.2a2.246,2.246,0,0,1,2.156,1.109h.031v-4.758h2.469ZM92.83-3.891v-.6a1.893,1.893,0,0,0-.453-1.3A1.5,1.5,0,0,0,91.2-6.3a1.487,1.487,0,0,0-1.281.645,2.993,2.993,0,0,0-.461,1.77A2.59,2.59,0,0,0,89.9-2.266a1.479,1.479,0,0,0,1.234.57,1.485,1.485,0,0,0,1.223-.6A2.507,2.507,0,0,0,92.83-3.891Z" transform="translate(370.5 3796.134) rotate(-90)" fill="#212429"/>
    <path id="Trazado_1050465" data-name="Trazado 1050465" d="M13.742,0H11.281V-4.562Q11.281-6.3,10-6.3a1.177,1.177,0,0,0-.992.523,2.151,2.151,0,0,0-.383,1.3V0H6.156V-4.609q0-1.7-1.258-1.7a1.206,1.206,0,0,0-1.012.5,2.2,2.2,0,0,0-.379,1.359V0H1.039V-8H3.508v1.25h.031A2.952,2.952,0,0,1,4.613-7.793a2.952,2.952,0,0,1,1.512-.4A2.3,2.3,0,0,1,8.445-6.7,2.959,2.959,0,0,1,11.133-8.2q2.609,0,2.609,3.219Zm8.611,0H20.017V-1.148h-.031A2.607,2.607,0,0,1,17.6.2a2.492,2.492,0,0,1-1.832-.66A2.366,2.366,0,0,1,15.1-2.227q0-2.328,2.758-2.687L20.033-5.2q0-1.312-1.422-1.312a4.853,4.853,0,0,0-2.719.852V-7.523a6.116,6.116,0,0,1,1.41-.469,7.413,7.413,0,0,1,1.629-.2q3.422,0,3.422,3.414Zm-2.32-3.25v-.539L18.58-3.6q-1.2.156-1.2,1.086a.9.9,0,0,0,.293.691,1.126,1.126,0,0,0,.793.27,1.462,1.462,0,0,0,1.133-.48A1.735,1.735,0,0,0,20.033-3.25Zm1.586-8.539L19.173-9.266H17.392l2.031-2.523ZM23.784-.211v-2A5.256,5.256,0,0,0,25-1.664a4.028,4.028,0,0,0,1.145.18,2.455,2.455,0,0,0,1.035-.18.581.581,0,0,0,.379-.547.506.506,0,0,0-.172-.391,1.6,1.6,0,0,0-.441-.273,5.009,5.009,0,0,0-.59-.211q-.32-.094-.617-.211a5.913,5.913,0,0,1-.84-.387,2.427,2.427,0,0,1-.609-.48,1.889,1.889,0,0,1-.375-.633,2.525,2.525,0,0,1-.129-.852A2.192,2.192,0,0,1,24.077-6.8a2.393,2.393,0,0,1,.781-.793,3.57,3.57,0,0,1,1.117-.453A5.825,5.825,0,0,1,27.284-8.2a7.261,7.261,0,0,1,1.078.082,8.047,8.047,0,0,1,1.078.238v1.906a3.9,3.9,0,0,0-1-.41,4.235,4.235,0,0,0-1.051-.137,2.328,2.328,0,0,0-.457.043,1.505,1.505,0,0,0-.379.125.7.7,0,0,0-.258.211.486.486,0,0,0-.094.293.541.541,0,0,0,.141.375,1.221,1.221,0,0,0,.367.27,3.625,3.625,0,0,0,.5.2q.277.09.551.184a7.161,7.161,0,0,1,.891.375,2.848,2.848,0,0,1,.684.477,1.871,1.871,0,0,1,.438.641,2.277,2.277,0,0,1,.152.875,2.282,2.282,0,0,1-.309,1.215,2.471,2.471,0,0,1-.82.82,3.72,3.72,0,0,1-1.18.461A6.54,6.54,0,0,1,26.23.2,7.149,7.149,0,0,1,23.784-.211ZM38.264-.93h-.031V3.68H35.764V-8h2.469v1.2h.031a2.9,2.9,0,0,1,2.57-1.4,2.892,2.892,0,0,1,2.4,1.066,4.54,4.54,0,0,1,.848,2.9A4.922,4.922,0,0,1,43.1-1.016,3.222,3.222,0,0,1,40.467.2,2.491,2.491,0,0,1,38.264-.93Zm-.07-3.281v.641a2.037,2.037,0,0,0,.438,1.352A1.424,1.424,0,0,0,39.78-1.7a1.514,1.514,0,0,0,1.309-.652A3.15,3.15,0,0,0,41.553-4.2q0-2.109-1.641-2.109a1.541,1.541,0,0,0-1.238.574A2.29,2.29,0,0,0,38.194-4.211ZM50.906-5.773a2.142,2.142,0,0,0-1.039-.242,1.5,1.5,0,0,0-1.258.59,2.573,2.573,0,0,0-.453,1.605V0H45.688V-8h2.469v1.484h.031A2.136,2.136,0,0,1,50.3-8.141a1.59,1.59,0,0,1,.609.094ZM55.806.2A4.3,4.3,0,0,1,52.662-.926a4.064,4.064,0,0,1-1.145-3.043A4.065,4.065,0,0,1,52.7-7.074,4.487,4.487,0,0,1,55.916-8.2a4.249,4.249,0,0,1,3.125,1.121,3.985,3.985,0,0,1,1.133,2.965A4.23,4.23,0,0,1,59.006-.961,4.348,4.348,0,0,1,55.806.2Zm.063-6.5a1.647,1.647,0,0,0-1.359.6A2.653,2.653,0,0,0,54.025-4q0,2.3,1.859,2.3,1.773,0,1.773-2.367Q57.658-6.3,55.869-6.3ZM64.277-.93h-.031V0H61.777V-11.844h2.469V-6.8h.031a2.929,2.929,0,0,1,2.6-1.4,2.855,2.855,0,0,1,2.383,1.063A4.582,4.582,0,0,1,70.1-4.227a4.962,4.962,0,0,1-.977,3.211A3.181,3.181,0,0,1,66.511.2,2.521,2.521,0,0,1,64.277-.93ZM64.207-4.3v.82A1.872,1.872,0,0,0,64.652-2.2a1.449,1.449,0,0,0,1.141.508A1.514,1.514,0,0,0,67.1-2.348,3.15,3.15,0,0,0,67.566-4.2a2.506,2.506,0,0,0-.426-1.551A1.437,1.437,0,0,0,65.925-6.3a1.569,1.569,0,0,0-1.23.555A2.107,2.107,0,0,0,64.207-4.3ZM78.2,0H75.864V-1.148h-.031A2.607,2.607,0,0,1,73.45.2a2.492,2.492,0,0,1-1.832-.66,2.366,2.366,0,0,1-.668-1.762q0-2.328,2.758-2.687L75.88-5.2q0-1.312-1.422-1.312a4.853,4.853,0,0,0-2.719.852V-7.523a6.116,6.116,0,0,1,1.41-.469,7.413,7.413,0,0,1,1.629-.2Q78.2-8.2,78.2-4.781ZM75.88-3.25v-.539L74.427-3.6q-1.2.156-1.2,1.086a.9.9,0,0,0,.293.691,1.126,1.126,0,0,0,.793.27,1.462,1.462,0,0,0,1.133-.48A1.735,1.735,0,0,0,75.88-3.25ZM82.655-.93h-.031V0H80.155V-11.844h2.469V-6.8h.031a2.929,2.929,0,0,1,2.6-1.4,2.855,2.855,0,0,1,2.383,1.063,4.582,4.582,0,0,1,.836,2.906A4.962,4.962,0,0,1,87.5-1.016,3.181,3.181,0,0,1,84.889.2,2.521,2.521,0,0,1,82.655-.93ZM82.585-4.3v.82A1.872,1.872,0,0,0,83.03-2.2a1.449,1.449,0,0,0,1.141.508,1.514,1.514,0,0,0,1.309-.652A3.15,3.15,0,0,0,85.944-4.2a2.506,2.506,0,0,0-.426-1.551A1.437,1.437,0,0,0,84.3-6.3a1.569,1.569,0,0,0-1.23.555A2.107,2.107,0,0,0,82.585-4.3ZM92.547,0H90.079V-11.844h2.469Zm9.267-3.3H96.6q.125,1.742,2.2,1.742a4.286,4.286,0,0,0,2.32-.625V-.4A6.1,6.1,0,0,1,98.229.2,4.058,4.058,0,0,1,95.221-.879a4.058,4.058,0,0,1-1.07-3,4.281,4.281,0,0,1,1.156-3.156A3.852,3.852,0,0,1,98.15-8.2a3.5,3.5,0,0,1,2.707,1.039,4,4,0,0,1,.957,2.82ZM99.525-4.812q0-1.719-1.391-1.719a1.328,1.328,0,0,0-1.027.492,2.234,2.234,0,0,0-.527,1.227Z" transform="translate(517.5 3629.134)" fill="#212429"/>
    <path id="Trazado_1050466" data-name="Trazado 1050466" d="M1.281,0V-11.2H5.25q5.969,0,5.969,5.461A5.522,5.522,0,0,1,9.59-1.562,6.007,6.007,0,0,1,5.25,0ZM3.8-9.148v7.1h1.25a3.378,3.378,0,0,0,2.574-.984,3.735,3.735,0,0,0,.934-2.68,3.388,3.388,0,0,0-.926-2.52,3.529,3.529,0,0,0-2.6-.918ZM20.439,0H17.978V-1.219h-.039A2.792,2.792,0,0,1,15.494.2q-2.781,0-2.781-3.367V-8h2.461v4.609q0,1.7,1.344,1.7A1.329,1.329,0,0,0,17.58-2.16a1.874,1.874,0,0,0,.4-1.262V-8h2.461Zm7.3-5.773A2.142,2.142,0,0,0,26.7-6.016a1.5,1.5,0,0,0-1.258.59,2.573,2.573,0,0,0-.453,1.605V0H22.519V-8h2.469v1.484h.031a2.136,2.136,0,0,1,2.109-1.625,1.59,1.59,0,0,1,.609.094ZM35.544,0H33.208V-1.148h-.031A2.607,2.607,0,0,1,30.794.2a2.492,2.492,0,0,1-1.832-.66,2.366,2.366,0,0,1-.668-1.762q0-2.328,2.758-2.687L33.224-5.2q0-1.312-1.422-1.312a4.853,4.853,0,0,0-2.719.852V-7.523a6.116,6.116,0,0,1,1.41-.469,7.413,7.413,0,0,1,1.629-.2q3.422,0,3.422,3.414Zm-2.32-3.25v-.539L31.77-3.6q-1.2.156-1.2,1.086a.9.9,0,0,0,.293.691,1.126,1.126,0,0,0,.793.27,1.462,1.462,0,0,0,1.133-.48A1.735,1.735,0,0,0,33.224-3.25ZM43.561-.289A4.881,4.881,0,0,1,41.147.2,4.083,4.083,0,0,1,38.163-.922,3.859,3.859,0,0,1,37.022-3.8,4.251,4.251,0,0,1,38.245-7.02,4.518,4.518,0,0,1,41.514-8.2a4.2,4.2,0,0,1,2.047.375v2.094A2.814,2.814,0,0,0,41.835-6.3a2.275,2.275,0,0,0-1.684.621,2.317,2.317,0,0,0-.621,1.715A2.28,2.28,0,0,0,40.124-2.3a2.182,2.182,0,0,0,1.633.605,3.258,3.258,0,0,0,1.8-.578ZM46.43-9.266a1.442,1.442,0,0,1-1.023-.371,1.2,1.2,0,0,1-.4-.91,1.153,1.153,0,0,1,.4-.906A1.49,1.49,0,0,1,46.43-11.8a1.486,1.486,0,0,1,1.027.352,1.158,1.158,0,0,1,.395.906,1.191,1.191,0,0,1-.395.922A1.466,1.466,0,0,1,46.43-9.266ZM47.649,0H45.18V-8h2.469Zm5.892.2A4.3,4.3,0,0,1,50.4-.926a4.064,4.064,0,0,1-1.145-3.043,4.065,4.065,0,0,1,1.188-3.105A4.487,4.487,0,0,1,53.65-8.2a4.249,4.249,0,0,1,3.125,1.121,3.985,3.985,0,0,1,1.133,2.965A4.23,4.23,0,0,1,56.74-.961,4.348,4.348,0,0,1,53.541.2ZM53.6-6.3a1.647,1.647,0,0,0-1.359.6A2.653,2.653,0,0,0,51.76-4q0,2.3,1.859,2.3,1.773,0,1.773-2.367Q55.392-6.3,53.6-6.3Zm2.648-5.484L53.806-9.266H52.025l2.031-2.523ZM67.23,0H64.769V-4.445q0-1.859-1.328-1.859a1.318,1.318,0,0,0-1.055.492,1.875,1.875,0,0,0-.414,1.25V0H59.5V-8h2.469v1.266H62A2.829,2.829,0,0,1,64.574-8.2q2.656,0,2.656,3.3ZM80.788-3.3H75.569q.125,1.742,2.2,1.742a4.286,4.286,0,0,0,2.32-.625V-.4A6.1,6.1,0,0,1,77.2.2,4.058,4.058,0,0,1,74.194-.879a4.058,4.058,0,0,1-1.07-3A4.281,4.281,0,0,1,74.28-7.031,3.852,3.852,0,0,1,77.124-8.2a3.5,3.5,0,0,1,2.707,1.039,4,4,0,0,1,.957,2.82ZM78.5-4.812q0-1.719-1.391-1.719a1.328,1.328,0,0,0-1.027.492,2.234,2.234,0,0,0-.527,1.227Zm3.236,4.6v-2a5.256,5.256,0,0,0,1.215.547,4.028,4.028,0,0,0,1.145.18,2.455,2.455,0,0,0,1.035-.18.581.581,0,0,0,.379-.547.506.506,0,0,0-.172-.391,1.6,1.6,0,0,0-.441-.273,5.009,5.009,0,0,0-.59-.211q-.32-.094-.617-.211a5.913,5.913,0,0,1-.84-.387,2.427,2.427,0,0,1-.609-.48,1.889,1.889,0,0,1-.375-.633,2.525,2.525,0,0,1-.129-.852A2.192,2.192,0,0,1,82.028-6.8a2.393,2.393,0,0,1,.781-.793,3.57,3.57,0,0,1,1.117-.453A5.825,5.825,0,0,1,85.235-8.2a7.261,7.261,0,0,1,1.078.082,8.047,8.047,0,0,1,1.078.238v1.906a3.9,3.9,0,0,0-1-.41,4.235,4.235,0,0,0-1.051-.137,2.328,2.328,0,0,0-.457.043,1.505,1.505,0,0,0-.379.125.7.7,0,0,0-.258.211.486.486,0,0,0-.094.293.541.541,0,0,0,.141.375,1.221,1.221,0,0,0,.367.27,3.625,3.625,0,0,0,.5.2q.277.09.551.184a7.161,7.161,0,0,1,.891.375,2.848,2.848,0,0,1,.684.477,1.872,1.872,0,0,1,.438.641,2.277,2.277,0,0,1,.152.875,2.282,2.282,0,0,1-.309,1.215,2.471,2.471,0,0,1-.82.82,3.72,3.72,0,0,1-1.18.461A6.54,6.54,0,0,1,84.18.2,7.149,7.149,0,0,1,81.735-.211ZM91.8-.93h-.031V3.68H89.3V-8h2.469v1.2H91.8a2.9,2.9,0,0,1,2.57-1.4,2.892,2.892,0,0,1,2.4,1.066,4.54,4.54,0,0,1,.848,2.9,4.922,4.922,0,0,1-.988,3.211A3.222,3.222,0,0,1,94,.2,2.491,2.491,0,0,1,91.8-.93Zm-.07-3.281v.641a2.037,2.037,0,0,0,.438,1.352,1.424,1.424,0,0,0,1.148.523,1.514,1.514,0,0,0,1.309-.652A3.15,3.15,0,0,0,95.088-4.2q0-2.109-1.641-2.109a1.541,1.541,0,0,0-1.238.574A2.29,2.29,0,0,0,91.729-4.211ZM106.41-3.3h-5.219q.125,1.742,2.2,1.742a4.286,4.286,0,0,0,2.32-.625V-.4A6.1,6.1,0,0,1,102.824.2,4.058,4.058,0,0,1,99.816-.879a4.058,4.058,0,0,1-1.07-3A4.281,4.281,0,0,1,99.9-7.031,3.852,3.852,0,0,1,102.746-8.2a3.5,3.5,0,0,1,2.707,1.039,4,4,0,0,1,.957,2.82Zm-2.289-1.516q0-1.719-1.391-1.719a1.328,1.328,0,0,0-1.027.492,2.234,2.234,0,0,0-.527,1.227Zm8.978-.961a2.142,2.142,0,0,0-1.039-.242,1.5,1.5,0,0,0-1.258.59,2.573,2.573,0,0,0-.453,1.605V0H107.88V-8h2.469v1.484h.031a2.136,2.136,0,0,1,2.109-1.625,1.59,1.59,0,0,1,.609.094ZM120.905,0h-2.336V-1.148h-.031A2.607,2.607,0,0,1,116.155.2a2.492,2.492,0,0,1-1.832-.66,2.366,2.366,0,0,1-.668-1.762q0-2.328,2.758-2.687l2.172-.289q0-1.312-1.422-1.312a4.853,4.853,0,0,0-2.719.852V-7.523a6.116,6.116,0,0,1,1.41-.469,7.413,7.413,0,0,1,1.629-.2q3.422,0,3.422,3.414Zm-2.32-3.25v-.539l-1.453.188q-1.2.156-1.2,1.086a.9.9,0,0,0,.293.691,1.126,1.126,0,0,0,.793.27,1.462,1.462,0,0,0,1.133-.48A1.735,1.735,0,0,0,118.585-3.25ZM130.688,0h-2.469V-1.1h-.031A2.768,2.768,0,0,1,125.712.2,3.033,3.033,0,0,1,123.3-.863a4.382,4.382,0,0,1-.914-2.957A4.77,4.77,0,0,1,123.391-7a3.287,3.287,0,0,1,2.641-1.2,2.246,2.246,0,0,1,2.156,1.109h.031v-4.758h2.469Zm-2.422-3.891v-.6a1.893,1.893,0,0,0-.453-1.3,1.5,1.5,0,0,0-1.18-.516,1.487,1.487,0,0,0-1.281.645,2.993,2.993,0,0,0-.461,1.77,2.59,2.59,0,0,0,.445,1.625,1.479,1.479,0,0,0,1.234.57,1.485,1.485,0,0,0,1.223-.6A2.507,2.507,0,0,0,128.266-3.891ZM139.424,0h-2.336V-1.148h-.031A2.607,2.607,0,0,1,134.674.2a2.492,2.492,0,0,1-1.832-.66,2.366,2.366,0,0,1-.668-1.762q0-2.328,2.758-2.687L137.1-5.2q0-1.312-1.422-1.312a4.853,4.853,0,0,0-2.719.852V-7.523a6.116,6.116,0,0,1,1.41-.469A7.413,7.413,0,0,1,136-8.2q3.422,0,3.422,3.414ZM137.1-3.25v-.539l-1.453.188q-1.2.156-1.2,1.086a.9.9,0,0,0,.293.691,1.126,1.126,0,0,0,.793.27,1.462,1.462,0,0,0,1.133-.48A1.735,1.735,0,0,0,137.1-3.25Zm17.12-2.219h-7.609v-1.6h7.609Zm0,3.391h-7.609V-3.664h7.609Z" transform="translate(705.5 3641.134)" fill="#f8276e"/>
    <path id="Trazado_1050467" data-name="Trazado 1050467" d="M1.281,0V-11.2H5.25q5.969,0,5.969,5.461A5.522,5.522,0,0,1,9.59-1.562,6.007,6.007,0,0,1,5.25,0ZM3.8-9.148v7.1h1.25a3.378,3.378,0,0,0,2.574-.984,3.735,3.735,0,0,0,.934-2.68,3.388,3.388,0,0,0-.926-2.52,3.529,3.529,0,0,0-2.6-.918ZM20.439,0H17.978V-1.219h-.039A2.792,2.792,0,0,1,15.494.2q-2.781,0-2.781-3.367V-8h2.461v4.609q0,1.7,1.344,1.7A1.329,1.329,0,0,0,17.58-2.16a1.874,1.874,0,0,0,.4-1.262V-8h2.461Zm7.3-5.773A2.142,2.142,0,0,0,26.7-6.016a1.5,1.5,0,0,0-1.258.59,2.573,2.573,0,0,0-.453,1.605V0H22.519V-8h2.469v1.484h.031a2.136,2.136,0,0,1,2.109-1.625,1.59,1.59,0,0,1,.609.094ZM35.544,0H33.208V-1.148h-.031A2.607,2.607,0,0,1,30.794.2a2.492,2.492,0,0,1-1.832-.66,2.366,2.366,0,0,1-.668-1.762q0-2.328,2.758-2.687L33.224-5.2q0-1.312-1.422-1.312a4.853,4.853,0,0,0-2.719.852V-7.523a6.116,6.116,0,0,1,1.41-.469,7.413,7.413,0,0,1,1.629-.2q3.422,0,3.422,3.414Zm-2.32-3.25v-.539L31.77-3.6q-1.2.156-1.2,1.086a.9.9,0,0,0,.293.691,1.126,1.126,0,0,0,.793.27,1.462,1.462,0,0,0,1.133-.48A1.735,1.735,0,0,0,33.224-3.25ZM43.561-.289A4.881,4.881,0,0,1,41.147.2,4.083,4.083,0,0,1,38.163-.922,3.859,3.859,0,0,1,37.022-3.8,4.251,4.251,0,0,1,38.245-7.02,4.518,4.518,0,0,1,41.514-8.2a4.2,4.2,0,0,1,2.047.375v2.094A2.814,2.814,0,0,0,41.835-6.3a2.275,2.275,0,0,0-1.684.621,2.317,2.317,0,0,0-.621,1.715A2.28,2.28,0,0,0,40.124-2.3a2.182,2.182,0,0,0,1.633.605,3.258,3.258,0,0,0,1.8-.578ZM46.43-9.266a1.442,1.442,0,0,1-1.023-.371,1.2,1.2,0,0,1-.4-.91,1.153,1.153,0,0,1,.4-.906A1.49,1.49,0,0,1,46.43-11.8a1.486,1.486,0,0,1,1.027.352,1.158,1.158,0,0,1,.395.906,1.191,1.191,0,0,1-.395.922A1.466,1.466,0,0,1,46.43-9.266ZM47.649,0H45.18V-8h2.469Zm5.892.2A4.3,4.3,0,0,1,50.4-.926a4.064,4.064,0,0,1-1.145-3.043,4.065,4.065,0,0,1,1.188-3.105A4.487,4.487,0,0,1,53.65-8.2a4.249,4.249,0,0,1,3.125,1.121,3.985,3.985,0,0,1,1.133,2.965A4.23,4.23,0,0,1,56.74-.961,4.348,4.348,0,0,1,53.541.2ZM53.6-6.3a1.647,1.647,0,0,0-1.359.6A2.653,2.653,0,0,0,51.76-4q0,2.3,1.859,2.3,1.773,0,1.773-2.367Q55.392-6.3,53.6-6.3Zm2.648-5.484L53.806-9.266H52.025l2.031-2.523ZM67.23,0H64.769V-4.445q0-1.859-1.328-1.859a1.318,1.318,0,0,0-1.055.492,1.875,1.875,0,0,0-.414,1.25V0H59.5V-8h2.469v1.266H62A2.829,2.829,0,0,1,64.574-8.2q2.656,0,2.656,3.3ZM80.788-3.3H75.569q.125,1.742,2.2,1.742a4.286,4.286,0,0,0,2.32-.625V-.4A6.1,6.1,0,0,1,77.2.2,4.058,4.058,0,0,1,74.194-.879a4.058,4.058,0,0,1-1.07-3A4.281,4.281,0,0,1,74.28-7.031,3.852,3.852,0,0,1,77.124-8.2a3.5,3.5,0,0,1,2.707,1.039,4,4,0,0,1,.957,2.82ZM78.5-4.812q0-1.719-1.391-1.719a1.328,1.328,0,0,0-1.027.492,2.234,2.234,0,0,0-.527,1.227Zm3.236,4.6v-2a5.256,5.256,0,0,0,1.215.547,4.028,4.028,0,0,0,1.145.18,2.455,2.455,0,0,0,1.035-.18.581.581,0,0,0,.379-.547.506.506,0,0,0-.172-.391,1.6,1.6,0,0,0-.441-.273,5.009,5.009,0,0,0-.59-.211q-.32-.094-.617-.211a5.913,5.913,0,0,1-.84-.387,2.427,2.427,0,0,1-.609-.48,1.889,1.889,0,0,1-.375-.633,2.525,2.525,0,0,1-.129-.852A2.192,2.192,0,0,1,82.028-6.8a2.393,2.393,0,0,1,.781-.793,3.57,3.57,0,0,1,1.117-.453A5.825,5.825,0,0,1,85.235-8.2a7.261,7.261,0,0,1,1.078.082,8.047,8.047,0,0,1,1.078.238v1.906a3.9,3.9,0,0,0-1-.41,4.235,4.235,0,0,0-1.051-.137,2.328,2.328,0,0,0-.457.043,1.505,1.505,0,0,0-.379.125.7.7,0,0,0-.258.211.486.486,0,0,0-.094.293.541.541,0,0,0,.141.375,1.221,1.221,0,0,0,.367.27,3.625,3.625,0,0,0,.5.2q.277.09.551.184a7.161,7.161,0,0,1,.891.375,2.848,2.848,0,0,1,.684.477,1.872,1.872,0,0,1,.438.641,2.277,2.277,0,0,1,.152.875,2.282,2.282,0,0,1-.309,1.215,2.471,2.471,0,0,1-.82.82,3.72,3.72,0,0,1-1.18.461A6.54,6.54,0,0,1,84.18.2,7.149,7.149,0,0,1,81.735-.211ZM91.8-.93h-.031V3.68H89.3V-8h2.469v1.2H91.8a2.9,2.9,0,0,1,2.57-1.4,2.892,2.892,0,0,1,2.4,1.066,4.54,4.54,0,0,1,.848,2.9,4.922,4.922,0,0,1-.988,3.211A3.222,3.222,0,0,1,94,.2,2.491,2.491,0,0,1,91.8-.93Zm-.07-3.281v.641a2.037,2.037,0,0,0,.438,1.352,1.424,1.424,0,0,0,1.148.523,1.514,1.514,0,0,0,1.309-.652A3.15,3.15,0,0,0,95.088-4.2q0-2.109-1.641-2.109a1.541,1.541,0,0,0-1.238.574A2.29,2.29,0,0,0,91.729-4.211ZM106.41-3.3h-5.219q.125,1.742,2.2,1.742a4.286,4.286,0,0,0,2.32-.625V-.4A6.1,6.1,0,0,1,102.824.2,4.058,4.058,0,0,1,99.816-.879a4.058,4.058,0,0,1-1.07-3A4.281,4.281,0,0,1,99.9-7.031,3.852,3.852,0,0,1,102.746-8.2a3.5,3.5,0,0,1,2.707,1.039,4,4,0,0,1,.957,2.82Zm-2.289-1.516q0-1.719-1.391-1.719a1.328,1.328,0,0,0-1.027.492,2.234,2.234,0,0,0-.527,1.227Zm8.978-.961a2.142,2.142,0,0,0-1.039-.242,1.5,1.5,0,0,0-1.258.59,2.573,2.573,0,0,0-.453,1.605V0H107.88V-8h2.469v1.484h.031a2.136,2.136,0,0,1,2.109-1.625,1.59,1.59,0,0,1,.609.094ZM120.905,0h-2.336V-1.148h-.031A2.607,2.607,0,0,1,116.155.2a2.492,2.492,0,0,1-1.832-.66,2.366,2.366,0,0,1-.668-1.762q0-2.328,2.758-2.687l2.172-.289q0-1.312-1.422-1.312a4.853,4.853,0,0,0-2.719.852V-7.523a6.116,6.116,0,0,1,1.41-.469,7.413,7.413,0,0,1,1.629-.2q3.422,0,3.422,3.414Zm-2.32-3.25v-.539l-1.453.188q-1.2.156-1.2,1.086a.9.9,0,0,0,.293.691,1.126,1.126,0,0,0,.793.27,1.462,1.462,0,0,0,1.133-.48A1.735,1.735,0,0,0,118.585-3.25ZM130.688,0h-2.469V-1.1h-.031A2.768,2.768,0,0,1,125.712.2,3.033,3.033,0,0,1,123.3-.863a4.382,4.382,0,0,1-.914-2.957A4.77,4.77,0,0,1,123.391-7a3.287,3.287,0,0,1,2.641-1.2,2.246,2.246,0,0,1,2.156,1.109h.031v-4.758h2.469Zm-2.422-3.891v-.6a1.893,1.893,0,0,0-.453-1.3,1.5,1.5,0,0,0-1.18-.516,1.487,1.487,0,0,0-1.281.645,2.993,2.993,0,0,0-.461,1.77,2.59,2.59,0,0,0,.445,1.625,1.479,1.479,0,0,0,1.234.57,1.485,1.485,0,0,0,1.223-.6A2.507,2.507,0,0,0,128.266-3.891ZM139.424,0h-2.336V-1.148h-.031A2.607,2.607,0,0,1,134.674.2a2.492,2.492,0,0,1-1.832-.66,2.366,2.366,0,0,1-.668-1.762q0-2.328,2.758-2.687L137.1-5.2q0-1.312-1.422-1.312a4.853,4.853,0,0,0-2.719.852V-7.523a6.116,6.116,0,0,1,1.41-.469A7.413,7.413,0,0,1,136-8.2q3.422,0,3.422,3.414ZM137.1-3.25v-.539l-1.453.188q-1.2.156-1.2,1.086a.9.9,0,0,0,.293.691,1.126,1.126,0,0,0,.793.27,1.462,1.462,0,0,0,1.133-.48A1.735,1.735,0,0,0,137.1-3.25Zm17.12-2.219h-7.609v-1.6h7.609Zm0,3.391h-7.609V-3.664h7.609Zm6.886-.937a2.983,2.983,0,0,1,.137-.9,2.734,2.734,0,0,1,.41-.8,3.019,3.019,0,0,1,.684-.664,3.672,3.672,0,0,1,.965-.48,3.46,3.46,0,0,1-1.32-1.082,2.473,2.473,0,0,1-.469-1.465,2.649,2.649,0,0,1,.27-1.187,2.881,2.881,0,0,1,.746-.945,3.49,3.49,0,0,1,1.137-.621,4.485,4.485,0,0,1,1.441-.223,4.573,4.573,0,0,1,1.461.223,3.573,3.573,0,0,1,1.145.617,2.8,2.8,0,0,1,.746.934,2.615,2.615,0,0,1,.266,1.172,2.326,2.326,0,0,1-.5,1.449,3.722,3.722,0,0,1-1.383,1.074,3.769,3.769,0,0,1,.961.48,3.092,3.092,0,0,1,.7.668,2.736,2.736,0,0,1,.422.816,3.006,3.006,0,0,1,.141.918,2.933,2.933,0,0,1-.289,1.309,2.979,2.979,0,0,1-.816,1.016,3.853,3.853,0,0,1-1.258.66,5.26,5.26,0,0,1-1.613.234,5.287,5.287,0,0,1-1.6-.23A3.839,3.839,0,0,1,162.231-.7a3.026,3.026,0,0,1-.824-1.012A2.852,2.852,0,0,1,161.11-3.016Zm2.336-.211a1.9,1.9,0,0,0,.117.688,1.406,1.406,0,0,0,.336.516,1.5,1.5,0,0,0,.52.324,1.906,1.906,0,0,0,.676.113,1.8,1.8,0,0,0,.66-.117,1.549,1.549,0,0,0,.52-.328,1.493,1.493,0,0,0,.344-.516,1.775,1.775,0,0,0,.125-.68,1.769,1.769,0,0,0-.117-.641,1.523,1.523,0,0,0-.336-.527,1.659,1.659,0,0,0-.52-.355,1.656,1.656,0,0,0-.676-.133,1.761,1.761,0,0,0-.656.121,1.5,1.5,0,0,0-.523.344,1.622,1.622,0,0,0-.344.527A1.733,1.733,0,0,0,163.446-3.227Zm.344-4.961a1.48,1.48,0,0,0,.105.559,1.441,1.441,0,0,0,.285.453,1.3,1.3,0,0,0,.426.3,1.265,1.265,0,0,0,.52.109,1.257,1.257,0,0,0,.523-.109,1.331,1.331,0,0,0,.426-.3,1.464,1.464,0,0,0,.289-.453,1.451,1.451,0,0,0,.105-.555,1.552,1.552,0,0,0-.1-.566,1.354,1.354,0,0,0-.285-.453,1.348,1.348,0,0,0-.43-.3,1.284,1.284,0,0,0-.527-.109,1.283,1.283,0,0,0-.543.113,1.309,1.309,0,0,0-.422.3,1.369,1.369,0,0,0-.273.453A1.585,1.585,0,0,0,163.79-8.187ZM182.973,0H180.5V-1.1h-.031A2.768,2.768,0,0,1,178,.2a3.033,3.033,0,0,1-2.414-1.059,4.382,4.382,0,0,1-.914-2.957A4.77,4.77,0,0,1,175.676-7a3.287,3.287,0,0,1,2.641-1.2,2.246,2.246,0,0,1,2.156,1.109h.031v-4.758h2.469Zm-2.422-3.891v-.6a1.893,1.893,0,0,0-.453-1.3,1.5,1.5,0,0,0-1.18-.516,1.487,1.487,0,0,0-1.281.645,2.993,2.993,0,0,0-.461,1.77,2.59,2.59,0,0,0,.445,1.625,1.479,1.479,0,0,0,1.234.57,1.485,1.485,0,0,0,1.223-.6A2.507,2.507,0,0,0,180.551-3.891ZM187.521,0h-2.469V-8h2.469Zm1.273-11.789-2.445,2.523h-1.781l2.031-2.523ZM196.257,0h-2.336V-1.148h-.031A2.607,2.607,0,0,1,191.507.2a2.492,2.492,0,0,1-1.832-.66,2.366,2.366,0,0,1-.668-1.762q0-2.328,2.758-2.687l2.172-.289q0-1.312-1.422-1.312a4.853,4.853,0,0,0-2.719.852V-7.523a6.116,6.116,0,0,1,1.41-.469,7.413,7.413,0,0,1,1.629-.2q3.422,0,3.422,3.414Zm-2.32-3.25v-.539l-1.453.188q-1.2.156-1.2,1.086a.9.9,0,0,0,.293.691,1.126,1.126,0,0,0,.793.27,1.462,1.462,0,0,0,1.133-.48A1.735,1.735,0,0,0,193.937-3.25Zm3.752,3.039v-2a5.256,5.256,0,0,0,1.215.547,4.028,4.028,0,0,0,1.145.18,2.455,2.455,0,0,0,1.035-.18.581.581,0,0,0,.379-.547.506.506,0,0,0-.172-.391,1.6,1.6,0,0,0-.441-.273,5.009,5.009,0,0,0-.59-.211q-.32-.094-.617-.211a5.914,5.914,0,0,1-.84-.387,2.427,2.427,0,0,1-.609-.48,1.889,1.889,0,0,1-.375-.633,2.525,2.525,0,0,1-.129-.852,2.192,2.192,0,0,1,.293-1.156,2.393,2.393,0,0,1,.781-.793,3.57,3.57,0,0,1,1.117-.453,5.825,5.825,0,0,1,1.309-.145,7.261,7.261,0,0,1,1.078.082,8.047,8.047,0,0,1,1.078.238v1.906a3.9,3.9,0,0,0-1-.41,4.235,4.235,0,0,0-1.051-.137,2.328,2.328,0,0,0-.457.043,1.505,1.505,0,0,0-.379.125.7.7,0,0,0-.258.211.486.486,0,0,0-.094.293.541.541,0,0,0,.141.375,1.221,1.221,0,0,0,.367.27,3.625,3.625,0,0,0,.5.2q.277.09.551.184a7.161,7.161,0,0,1,.891.375,2.848,2.848,0,0,1,.684.477,1.871,1.871,0,0,1,.438.641,2.277,2.277,0,0,1,.152.875,2.282,2.282,0,0,1-.309,1.215,2.471,2.471,0,0,1-.82.82,3.72,3.72,0,0,1-1.18.461A6.54,6.54,0,0,1,200.134.2,7.149,7.149,0,0,1,197.688-.211Z" transform="translate(1009.56 3838.246)" fill="#f8276e"/>
    <path id="Trazado_1050468" data-name="Trazado 1050468" d="M3.8-3.859V0H1.281V-11.2H5.234q4.234,0,4.234,3.57A3.426,3.426,0,0,1,8.254-4.9,4.813,4.813,0,0,1,5.008-3.859Zm0-5.406v3.492H4.8q2.016,0,2.016-1.766,0-1.727-2.016-1.727ZM17.58-3.3H12.361q.125,1.742,2.2,1.742a4.286,4.286,0,0,0,2.32-.625V-.4A6.1,6.1,0,0,1,13.994.2,4.058,4.058,0,0,1,10.986-.879a4.058,4.058,0,0,1-1.07-3,4.281,4.281,0,0,1,1.156-3.156A3.852,3.852,0,0,1,13.916-8.2a3.5,3.5,0,0,1,2.707,1.039,4,4,0,0,1,.957,2.82ZM15.291-4.812q0-1.719-1.391-1.719a1.328,1.328,0,0,0-1.027.492,2.234,2.234,0,0,0-.527,1.227Zm3.236,4.6v-2a5.256,5.256,0,0,0,1.215.547,4.028,4.028,0,0,0,1.145.18,2.455,2.455,0,0,0,1.035-.18.581.581,0,0,0,.379-.547.506.506,0,0,0-.172-.391,1.6,1.6,0,0,0-.441-.273,5.009,5.009,0,0,0-.59-.211q-.32-.094-.617-.211a5.913,5.913,0,0,1-.84-.387,2.427,2.427,0,0,1-.609-.48,1.889,1.889,0,0,1-.375-.633,2.525,2.525,0,0,1-.129-.852A2.192,2.192,0,0,1,18.82-6.8,2.393,2.393,0,0,1,19.6-7.6a3.57,3.57,0,0,1,1.117-.453A5.825,5.825,0,0,1,22.027-8.2a7.261,7.261,0,0,1,1.078.082,8.047,8.047,0,0,1,1.078.238v1.906a3.9,3.9,0,0,0-1-.41,4.235,4.235,0,0,0-1.051-.137,2.328,2.328,0,0,0-.457.043,1.505,1.505,0,0,0-.379.125.7.7,0,0,0-.258.211.486.486,0,0,0-.094.293.541.541,0,0,0,.141.375,1.221,1.221,0,0,0,.367.27,3.625,3.625,0,0,0,.5.2q.277.09.551.184a7.161,7.161,0,0,1,.891.375,2.848,2.848,0,0,1,.684.477,1.871,1.871,0,0,1,.438.641,2.277,2.277,0,0,1,.152.875,2.282,2.282,0,0,1-.309,1.215,2.471,2.471,0,0,1-.82.82,3.72,3.72,0,0,1-1.18.461A6.54,6.54,0,0,1,20.972.2,7.149,7.149,0,0,1,18.527-.211Zm8.814-9.055a1.442,1.442,0,0,1-1.023-.371,1.2,1.2,0,0,1-.4-.91,1.153,1.153,0,0,1,.4-.906,1.49,1.49,0,0,1,1.023-.352,1.486,1.486,0,0,1,1.027.352,1.158,1.158,0,0,1,.395.906,1.191,1.191,0,0,1-.395.922A1.466,1.466,0,0,1,27.341-9.266ZM28.559,0H26.091V-8h2.469ZM43.342,0H40.881V-4.562Q40.881-6.3,39.6-6.3a1.177,1.177,0,0,0-.992.523,2.151,2.151,0,0,0-.383,1.3V0H35.756V-4.609q0-1.7-1.258-1.7a1.206,1.206,0,0,0-1.012.5,2.2,2.2,0,0,0-.379,1.359V0H30.639V-8h2.469v1.25h.031a2.952,2.952,0,0,1,1.074-1.043,2.952,2.952,0,0,1,1.512-.4A2.3,2.3,0,0,1,38.045-6.7,2.959,2.959,0,0,1,40.733-8.2q2.609,0,2.609,3.219Zm3.2-9.266a1.442,1.442,0,0,1-1.023-.371,1.2,1.2,0,0,1-.4-.91,1.153,1.153,0,0,1,.4-.906,1.49,1.49,0,0,1,1.023-.352,1.486,1.486,0,0,1,1.027.352,1.158,1.158,0,0,1,.395.906,1.191,1.191,0,0,1-.395.922A1.466,1.466,0,0,1,46.547-9.266ZM47.766,0H45.3V-8h2.469Zm1.556-.211v-2a5.256,5.256,0,0,0,1.215.547,4.028,4.028,0,0,0,1.145.18,2.455,2.455,0,0,0,1.035-.18.581.581,0,0,0,.379-.547.506.506,0,0,0-.172-.391,1.6,1.6,0,0,0-.441-.273,5.009,5.009,0,0,0-.59-.211q-.32-.094-.617-.211a5.913,5.913,0,0,1-.84-.387,2.427,2.427,0,0,1-.609-.48,1.889,1.889,0,0,1-.375-.633,2.525,2.525,0,0,1-.129-.852A2.192,2.192,0,0,1,49.615-6.8,2.393,2.393,0,0,1,50.4-7.6a3.57,3.57,0,0,1,1.117-.453A5.825,5.825,0,0,1,52.822-8.2a7.261,7.261,0,0,1,1.078.082,8.047,8.047,0,0,1,1.078.238v1.906a3.9,3.9,0,0,0-1-.41,4.235,4.235,0,0,0-1.051-.137,2.328,2.328,0,0,0-.457.043,1.505,1.505,0,0,0-.379.125.7.7,0,0,0-.258.211.486.486,0,0,0-.094.293.541.541,0,0,0,.141.375,1.221,1.221,0,0,0,.367.27,3.625,3.625,0,0,0,.5.2q.277.09.551.184a7.161,7.161,0,0,1,.891.375,2.848,2.848,0,0,1,.684.477,1.871,1.871,0,0,1,.438.641,2.277,2.277,0,0,1,.152.875,2.282,2.282,0,0,1-.309,1.215,2.471,2.471,0,0,1-.82.82,3.72,3.72,0,0,1-1.18.461A6.54,6.54,0,0,1,51.767.2,7.149,7.149,0,0,1,49.322-.211Zm12.4.117A3.649,3.649,0,0,1,60.074.2q-2.609,0-2.609-2.711V-6.18h-1.3V-8h1.3V-9.727l2.461-.7V-8h1.8v1.82h-1.8v3.234q0,1.25.992,1.25a1.673,1.673,0,0,0,.8-.227ZM69.771,0H67.435V-1.148H67.4A2.607,2.607,0,0,1,65.021.2a2.492,2.492,0,0,1-1.832-.66,2.366,2.366,0,0,1-.668-1.762q0-2.328,2.758-2.687L67.45-5.2q0-1.312-1.422-1.312a4.853,4.853,0,0,0-2.719.852V-7.523a6.116,6.116,0,0,1,1.41-.469,7.413,7.413,0,0,1,1.629-.2q3.422,0,3.422,3.414ZM67.45-3.25v-.539L66-3.6q-1.2.156-1.2,1.086a.9.9,0,0,0,.293.691,1.126,1.126,0,0,0,.793.27,1.462,1.462,0,0,0,1.133-.48A1.735,1.735,0,0,0,67.45-3.25Z" transform="translate(858.5 3835.575)" fill="#212429"/>
    <path id="Trazado_1050469" data-name="Trazado 1050469" d="M6.016.2A5.215,5.215,0,0,1,2.094-1.371,5.624,5.624,0,0,1,.578-5.453a6.026,6.026,0,0,1,1.539-4.3A5.328,5.328,0,0,1,6.2-11.391a5.085,5.085,0,0,1,3.879,1.57,5.79,5.79,0,0,1,1.48,4.141A5.929,5.929,0,0,1,10.02-1.422,5.269,5.269,0,0,1,6.016.2Zm.109-9.414a2.54,2.54,0,0,0-2.109,1,4.153,4.153,0,0,0-.781,2.637,4.077,4.077,0,0,0,.781,2.633,2.5,2.5,0,0,0,2.047.969,2.528,2.528,0,0,0,2.07-.941A4.032,4.032,0,0,0,8.9-5.539,4.369,4.369,0,0,0,8.156-8.25,2.42,2.42,0,0,0,6.125-9.219ZM15.673-.93h-.031V3.68H13.173V-8h2.469v1.2h.031a2.9,2.9,0,0,1,2.57-1.4,2.892,2.892,0,0,1,2.4,1.066,4.54,4.54,0,0,1,.848,2.9,4.922,4.922,0,0,1-.988,3.211A3.222,3.222,0,0,1,17.877.2,2.491,2.491,0,0,1,15.673-.93ZM15.6-4.211v.641a2.037,2.037,0,0,0,.438,1.352,1.424,1.424,0,0,0,1.148.523A1.514,1.514,0,0,0,18.5-2.348,3.15,3.15,0,0,0,18.963-4.2q0-2.109-1.641-2.109a1.541,1.541,0,0,0-1.238.574A2.29,2.29,0,0,0,15.6-4.211ZM27.933-.094A3.649,3.649,0,0,1,26.284.2q-2.609,0-2.609-2.711V-6.18h-1.3V-8h1.3V-9.727l2.461-.7V-8h1.8v1.82h-1.8v3.234q0,1.25.992,1.25a1.673,1.673,0,0,0,.8-.227Zm2.642-9.172a1.442,1.442,0,0,1-1.023-.371,1.2,1.2,0,0,1-.4-.91,1.153,1.153,0,0,1,.4-.906,1.49,1.49,0,0,1,1.023-.352,1.486,1.486,0,0,1,1.027.352,1.158,1.158,0,0,1,.395.906,1.191,1.191,0,0,1-.395.922A1.466,1.466,0,0,1,30.575-9.266ZM31.794,0H29.325V-8h2.469ZM46.577,0H44.116V-4.562q0-1.742-1.281-1.742a1.177,1.177,0,0,0-.992.523,2.151,2.151,0,0,0-.383,1.3V0H38.991V-4.609q0-1.7-1.258-1.7a1.206,1.206,0,0,0-1.012.5,2.2,2.2,0,0,0-.379,1.359V0H33.874V-8h2.469v1.25h.031a2.952,2.952,0,0,1,1.074-1.043,2.952,2.952,0,0,1,1.512-.4A2.3,2.3,0,0,1,41.28-6.7,2.959,2.959,0,0,1,43.967-8.2q2.609,0,2.609,3.219Zm3.2-9.266a1.442,1.442,0,0,1-1.023-.371,1.2,1.2,0,0,1-.4-.91,1.153,1.153,0,0,1,.4-.906,1.49,1.49,0,0,1,1.023-.352,1.486,1.486,0,0,1,1.027.352,1.158,1.158,0,0,1,.395.906,1.191,1.191,0,0,1-.395.922A1.466,1.466,0,0,1,49.781-9.266ZM51,0H48.531V-8H51Zm1.556-.211v-2a5.256,5.256,0,0,0,1.215.547,4.028,4.028,0,0,0,1.145.18,2.455,2.455,0,0,0,1.035-.18.581.581,0,0,0,.379-.547.506.506,0,0,0-.172-.391,1.6,1.6,0,0,0-.441-.273,5.009,5.009,0,0,0-.59-.211q-.32-.094-.617-.211a5.913,5.913,0,0,1-.84-.387,2.427,2.427,0,0,1-.609-.48,1.889,1.889,0,0,1-.375-.633,2.525,2.525,0,0,1-.129-.852A2.192,2.192,0,0,1,52.849-6.8a2.393,2.393,0,0,1,.781-.793,3.57,3.57,0,0,1,1.117-.453A5.825,5.825,0,0,1,56.056-8.2a7.261,7.261,0,0,1,1.078.082,8.047,8.047,0,0,1,1.078.238v1.906a3.9,3.9,0,0,0-1-.41,4.235,4.235,0,0,0-1.051-.137,2.328,2.328,0,0,0-.457.043,1.505,1.505,0,0,0-.379.125.7.7,0,0,0-.258.211.486.486,0,0,0-.094.293.541.541,0,0,0,.141.375,1.221,1.221,0,0,0,.367.27,3.625,3.625,0,0,0,.5.2q.277.09.551.184a7.161,7.161,0,0,1,.891.375,2.848,2.848,0,0,1,.684.477,1.871,1.871,0,0,1,.438.641,2.277,2.277,0,0,1,.152.875,2.282,2.282,0,0,1-.309,1.215,2.471,2.471,0,0,1-.82.82,3.72,3.72,0,0,1-1.18.461A6.54,6.54,0,0,1,55,.2,7.149,7.149,0,0,1,52.556-.211Zm12.4.117A3.649,3.649,0,0,1,63.308.2Q60.7.2,60.7-2.516V-6.18H59.4V-8h1.3V-9.727l2.461-.7V-8h1.8v1.82h-1.8v3.234q0,1.25.992,1.25a1.673,1.673,0,0,0,.8-.227ZM73,0H70.669V-1.148h-.031A2.607,2.607,0,0,1,68.255.2a2.492,2.492,0,0,1-1.832-.66,2.366,2.366,0,0,1-.668-1.762q0-2.328,2.758-2.687L70.685-5.2q0-1.312-1.422-1.312a4.853,4.853,0,0,0-2.719.852V-7.523a6.116,6.116,0,0,1,1.41-.469,7.413,7.413,0,0,1,1.629-.2Q73-8.2,73-4.781Zm-2.32-3.25v-.539L69.232-3.6q-1.2.156-1.2,1.086a.9.9,0,0,0,.293.691,1.126,1.126,0,0,0,.793.27,1.462,1.462,0,0,0,1.133-.48A1.735,1.735,0,0,0,70.685-3.25Z" transform="translate(513.56 3842.246)" fill="#212429"/>
    <path id="Trazado_1050470" data-name="Trazado 1050470" d="M6.641-11.2v7.4H8.078v1.172H6.641V0H5.375V-2.633H.109V-3.742q.734-.828,1.484-1.77t1.434-1.91q.684-.969,1.266-1.934a17.671,17.671,0,0,0,.98-1.848ZM1.555-3.8h3.82V-9.289Q4.789-8.266,4.266-7.461T3.27-6q-.473.656-.9,1.188T1.555-3.8Z" transform="translate(436.56 3919.746)" fill="#212429"/>
    <path id="Trazado_1050471" data-name="Trazado 1050471" d="M7.891-10.461q-.258.445-.621,1.109T6.5-7.859q-.406.828-.828,1.781T4.883-4.109q-.367,1.016-.645,2.059A15.315,15.315,0,0,0,3.836,0H2.461a15.579,15.579,0,0,1,.434-2.043q.293-1.043.664-2.047t.785-1.934q.414-.93.8-1.711t.715-1.379q.324-.6.52-.934H.766V-11.2H7.891Z" transform="translate(557.56 3919.746)" fill="#212429"/>
    <path id="Trazado_1050472" data-name="Trazado 1050472" d="M.7-3.125A2.981,2.981,0,0,1,.844-4.02a3.24,3.24,0,0,1,.4-.84,3.33,3.33,0,0,1,.648-.711,3.091,3.091,0,0,1,.879-.508A3.322,3.322,0,0,1,1.617-7.121a2.466,2.466,0,0,1-.43-1.41,2.72,2.72,0,0,1,.238-1.141,2.748,2.748,0,0,1,.66-.906,3.052,3.052,0,0,1,1-.6,3.56,3.56,0,0,1,1.25-.215,3.526,3.526,0,0,1,1.258.219,3.106,3.106,0,0,1,1,.6,2.7,2.7,0,0,1,.656.906,2.74,2.74,0,0,1,.234,1.133,2.466,2.466,0,0,1-.43,1.41A3.363,3.363,0,0,1,5.914-6.078a3.064,3.064,0,0,1,.867.508,3.379,3.379,0,0,1,.645.711,3.24,3.24,0,0,1,.4.84,2.981,2.981,0,0,1,.141.895A3.327,3.327,0,0,1,7.7-1.781,3,3,0,0,1,6.957-.738a3.444,3.444,0,0,1-1.148.676A4.293,4.293,0,0,1,4.336.18,4.235,4.235,0,0,1,2.875-.062,3.5,3.5,0,0,1,1.727-.738,3.023,3.023,0,0,1,.973-1.781,3.285,3.285,0,0,1,.7-3.125Zm1.391-.109a2.646,2.646,0,0,0,.16.945,2.038,2.038,0,0,0,.453.719,1.978,1.978,0,0,0,.711.457,2.568,2.568,0,0,0,.926.16,2.439,2.439,0,0,0,.906-.164,2.112,2.112,0,0,0,.715-.461A2.072,2.072,0,0,0,6.434-2.3,2.514,2.514,0,0,0,6.6-3.234a2.4,2.4,0,0,0-.16-.879,2.2,2.2,0,0,0-.457-.723,2.147,2.147,0,0,0-.711-.492,2.313,2.313,0,0,0-.93-.18,2.338,2.338,0,0,0-.895.168,2.14,2.14,0,0,0-.711.469,2.171,2.171,0,0,0-.473.719A2.391,2.391,0,0,0,2.094-3.234Zm.4-5.2a1.867,1.867,0,0,0,.145.738,1.86,1.86,0,0,0,.4.594,1.872,1.872,0,0,0,.59.4,1.8,1.8,0,0,0,.719.145A1.786,1.786,0,0,0,5.066-6.7a1.867,1.867,0,0,0,.59-.4,1.95,1.95,0,0,0,.4-.594A1.8,1.8,0,0,0,6.2-8.43a1.916,1.916,0,0,0-.145-.75,1.836,1.836,0,0,0-.395-.594,1.847,1.847,0,0,0-.59-.395,1.847,1.847,0,0,0-.73-.145,1.864,1.864,0,0,0-.754.148,1.821,1.821,0,0,0-.586.4,1.759,1.759,0,0,0-.379.6A2.02,2.02,0,0,0,2.492-8.43Z" transform="translate(612.56 3919.746)" fill="#f8276e"/>
    <path id="Trazado_1050473" data-name="Trazado 1050473" d="M5.656,0H4.375V-9.68a2.966,2.966,0,0,1-.434.34,7.068,7.068,0,0,1-.641.379q-.355.188-.75.352a5.451,5.451,0,0,1-.77.258v-1.3a7.448,7.448,0,0,0,.895-.316q.473-.2.93-.445t.863-.516a6.854,6.854,0,0,0,.7-.527h.484ZM16.611-3.555a4.15,4.15,0,0,1-.266,1.508,3.624,3.624,0,0,1-.734,1.188,3.281,3.281,0,0,1-1.117.777A3.538,3.538,0,0,1,13.088.2a3.2,3.2,0,0,1-1.512-.352,3.2,3.2,0,0,1-1.133-1.012,4.853,4.853,0,0,1-.707-1.613A8.74,8.74,0,0,1,9.494-4.93a10.1,10.1,0,0,1,.324-2.652,6.444,6.444,0,0,1,.922-2.039,4.25,4.25,0,0,1,1.441-1.309,3.862,3.862,0,0,1,1.883-.461,4.535,4.535,0,0,1,1.859.32v1.211A3.949,3.949,0,0,0,14.1-10.3a2.724,2.724,0,0,0-1.352.336,3.1,3.1,0,0,0-1.031.949,4.63,4.63,0,0,0-.66,1.48,7.511,7.511,0,0,0-.23,1.93h.031a2.69,2.69,0,0,1,2.555-1.4,3.363,3.363,0,0,1,1.324.25,2.859,2.859,0,0,1,1.008.707,3.183,3.183,0,0,1,.645,1.09A4.148,4.148,0,0,1,16.611-3.555ZM15.3-3.391a3.486,3.486,0,0,0-.148-1.055,2.288,2.288,0,0,0-.426-.8,1.836,1.836,0,0,0-.684-.5,2.3,2.3,0,0,0-.922-.176,2.158,2.158,0,0,0-.883.18,2.2,2.2,0,0,0-.7.488,2.262,2.262,0,0,0-.465.719,2.276,2.276,0,0,0-.168.871,3.475,3.475,0,0,0,.164,1.082,2.8,2.8,0,0,0,.461.879,2.192,2.192,0,0,0,.707.59,1.931,1.931,0,0,0,.91.215,2.084,2.084,0,0,0,.883-.184,1.97,1.97,0,0,0,.68-.512,2.369,2.369,0,0,0,.438-.785A3.112,3.112,0,0,0,15.3-3.391Z" transform="translate(821.56 3919.746)" fill="#212429"/>
    <path id="Trazado_1050474" data-name="Trazado 1050474" d="M1.281,0V-11.2H5.25q5.969,0,5.969,5.461A5.522,5.522,0,0,1,9.59-1.562,6.007,6.007,0,0,1,5.25,0ZM3.8-9.148v7.1h1.25a3.378,3.378,0,0,0,2.574-.984,3.735,3.735,0,0,0,.934-2.68,3.388,3.388,0,0,0-.926-2.52,3.529,3.529,0,0,0-2.6-.918ZM20.439,0H17.978V-1.219h-.039A2.792,2.792,0,0,1,15.494.2q-2.781,0-2.781-3.367V-8h2.461v4.609q0,1.7,1.344,1.7A1.329,1.329,0,0,0,17.58-2.16a1.874,1.874,0,0,0,.4-1.262V-8h2.461Zm7.3-5.773A2.142,2.142,0,0,0,26.7-6.016a1.5,1.5,0,0,0-1.258.59,2.573,2.573,0,0,0-.453,1.605V0H22.519V-8h2.469v1.484h.031a2.136,2.136,0,0,1,2.109-1.625,1.59,1.59,0,0,1,.609.094ZM35.544,0H33.208V-1.148h-.031A2.607,2.607,0,0,1,30.794.2a2.492,2.492,0,0,1-1.832-.66,2.366,2.366,0,0,1-.668-1.762q0-2.328,2.758-2.687L33.224-5.2q0-1.312-1.422-1.312a4.853,4.853,0,0,0-2.719.852V-7.523a6.116,6.116,0,0,1,1.41-.469,7.413,7.413,0,0,1,1.629-.2q3.422,0,3.422,3.414Zm-2.32-3.25v-.539L31.77-3.6q-1.2.156-1.2,1.086a.9.9,0,0,0,.293.691,1.126,1.126,0,0,0,.793.27,1.462,1.462,0,0,0,1.133-.48A1.735,1.735,0,0,0,33.224-3.25ZM43.561-.289A4.881,4.881,0,0,1,41.147.2,4.083,4.083,0,0,1,38.163-.922,3.859,3.859,0,0,1,37.022-3.8,4.251,4.251,0,0,1,38.245-7.02,4.518,4.518,0,0,1,41.514-8.2a4.2,4.2,0,0,1,2.047.375v2.094A2.814,2.814,0,0,0,41.835-6.3a2.275,2.275,0,0,0-1.684.621,2.317,2.317,0,0,0-.621,1.715A2.28,2.28,0,0,0,40.124-2.3a2.182,2.182,0,0,0,1.633.605,3.258,3.258,0,0,0,1.8-.578ZM46.43-9.266a1.442,1.442,0,0,1-1.023-.371,1.2,1.2,0,0,1-.4-.91,1.153,1.153,0,0,1,.4-.906A1.49,1.49,0,0,1,46.43-11.8a1.486,1.486,0,0,1,1.027.352,1.158,1.158,0,0,1,.395.906,1.191,1.191,0,0,1-.395.922A1.466,1.466,0,0,1,46.43-9.266ZM47.649,0H45.18V-8h2.469Zm5.892.2A4.3,4.3,0,0,1,50.4-.926a4.064,4.064,0,0,1-1.145-3.043,4.065,4.065,0,0,1,1.188-3.105A4.487,4.487,0,0,1,53.65-8.2a4.249,4.249,0,0,1,3.125,1.121,3.985,3.985,0,0,1,1.133,2.965A4.23,4.23,0,0,1,56.74-.961,4.348,4.348,0,0,1,53.541.2ZM53.6-6.3a1.647,1.647,0,0,0-1.359.6A2.653,2.653,0,0,0,51.76-4q0,2.3,1.859,2.3,1.773,0,1.773-2.367Q55.392-6.3,53.6-6.3Zm2.648-5.484L53.806-9.266H52.025l2.031-2.523ZM67.23,0H64.769V-4.445q0-1.859-1.328-1.859a1.318,1.318,0,0,0-1.055.492,1.875,1.875,0,0,0-.414,1.25V0H59.5V-8h2.469v1.266H62A2.829,2.829,0,0,1,64.574-8.2q2.656,0,2.656,3.3Z" transform="translate(908.56 3916.746)" fill="#212429"/>
    <path id="Trazado_1050475" data-name="Trazado 1050475" d="M6.016.2A5.215,5.215,0,0,1,2.094-1.371,5.624,5.624,0,0,1,.578-5.453a6.026,6.026,0,0,1,1.539-4.3A5.328,5.328,0,0,1,6.2-11.391a5.085,5.085,0,0,1,3.879,1.57,5.79,5.79,0,0,1,1.48,4.141A5.929,5.929,0,0,1,10.02-1.422,5.269,5.269,0,0,1,6.016.2Zm.109-9.414a2.54,2.54,0,0,0-2.109,1,4.153,4.153,0,0,0-.781,2.637,4.077,4.077,0,0,0,.781,2.633,2.5,2.5,0,0,0,2.047.969,2.528,2.528,0,0,0,2.07-.941A4.032,4.032,0,0,0,8.9-5.539,4.369,4.369,0,0,0,8.156-8.25,2.42,2.42,0,0,0,6.125-9.219ZM15.673-.93h-.031V3.68H13.173V-8h2.469v1.2h.031a2.9,2.9,0,0,1,2.57-1.4,2.892,2.892,0,0,1,2.4,1.066,4.54,4.54,0,0,1,.848,2.9,4.922,4.922,0,0,1-.988,3.211A3.222,3.222,0,0,1,17.877.2,2.491,2.491,0,0,1,15.673-.93ZM15.6-4.211v.641a2.037,2.037,0,0,0,.438,1.352,1.424,1.424,0,0,0,1.148.523A1.514,1.514,0,0,0,18.5-2.348,3.15,3.15,0,0,0,18.963-4.2q0-2.109-1.641-2.109a1.541,1.541,0,0,0-1.238.574A2.29,2.29,0,0,0,15.6-4.211ZM27.933-.094A3.649,3.649,0,0,1,26.284.2q-2.609,0-2.609-2.711V-6.18h-1.3V-8h1.3V-9.727l2.461-.7V-8h1.8v1.82h-1.8v3.234q0,1.25.992,1.25a1.673,1.673,0,0,0,.8-.227Zm2.642-9.172a1.442,1.442,0,0,1-1.023-.371,1.2,1.2,0,0,1-.4-.91,1.153,1.153,0,0,1,.4-.906,1.49,1.49,0,0,1,1.023-.352,1.486,1.486,0,0,1,1.027.352,1.158,1.158,0,0,1,.395.906,1.191,1.191,0,0,1-.395.922A1.466,1.466,0,0,1,30.575-9.266ZM31.794,0H29.325V-8h2.469ZM46.577,0H44.116V-4.562q0-1.742-1.281-1.742a1.177,1.177,0,0,0-.992.523,2.151,2.151,0,0,0-.383,1.3V0H38.991V-4.609q0-1.7-1.258-1.7a1.206,1.206,0,0,0-1.012.5,2.2,2.2,0,0,0-.379,1.359V0H33.874V-8h2.469v1.25h.031a2.952,2.952,0,0,1,1.074-1.043,2.952,2.952,0,0,1,1.512-.4A2.3,2.3,0,0,1,41.28-6.7,2.959,2.959,0,0,1,43.967-8.2q2.609,0,2.609,3.219Zm3.2-9.266a1.442,1.442,0,0,1-1.023-.371,1.2,1.2,0,0,1-.4-.91,1.153,1.153,0,0,1,.4-.906,1.49,1.49,0,0,1,1.023-.352,1.486,1.486,0,0,1,1.027.352,1.158,1.158,0,0,1,.395.906,1.191,1.191,0,0,1-.395.922A1.466,1.466,0,0,1,49.781-9.266ZM51,0H48.531V-8H51Zm1.556-.211v-2a5.256,5.256,0,0,0,1.215.547,4.028,4.028,0,0,0,1.145.18,2.455,2.455,0,0,0,1.035-.18.581.581,0,0,0,.379-.547.506.506,0,0,0-.172-.391,1.6,1.6,0,0,0-.441-.273,5.009,5.009,0,0,0-.59-.211q-.32-.094-.617-.211a5.913,5.913,0,0,1-.84-.387,2.427,2.427,0,0,1-.609-.48,1.889,1.889,0,0,1-.375-.633,2.525,2.525,0,0,1-.129-.852A2.192,2.192,0,0,1,52.849-6.8a2.393,2.393,0,0,1,.781-.793,3.57,3.57,0,0,1,1.117-.453A5.825,5.825,0,0,1,56.056-8.2a7.261,7.261,0,0,1,1.078.082,8.047,8.047,0,0,1,1.078.238v1.906a3.9,3.9,0,0,0-1-.41,4.235,4.235,0,0,0-1.051-.137,2.328,2.328,0,0,0-.457.043,1.505,1.505,0,0,0-.379.125.7.7,0,0,0-.258.211.486.486,0,0,0-.094.293.541.541,0,0,0,.141.375,1.221,1.221,0,0,0,.367.27,3.625,3.625,0,0,0,.5.2q.277.09.551.184a7.161,7.161,0,0,1,.891.375,2.848,2.848,0,0,1,.684.477,1.871,1.871,0,0,1,.438.641,2.277,2.277,0,0,1,.152.875,2.282,2.282,0,0,1-.309,1.215,2.471,2.471,0,0,1-.82.82,3.72,3.72,0,0,1-1.18.461A6.54,6.54,0,0,1,55,.2,7.149,7.149,0,0,1,52.556-.211Zm12.4.117A3.649,3.649,0,0,1,63.308.2Q60.7.2,60.7-2.516V-6.18H59.4V-8h1.3V-9.727l2.461-.7V-8h1.8v1.82h-1.8v3.234q0,1.25.992,1.25a1.673,1.673,0,0,0,.8-.227ZM73,0H70.669V-1.148h-.031A2.607,2.607,0,0,1,68.255.2a2.492,2.492,0,0,1-1.832-.66,2.366,2.366,0,0,1-.668-1.762q0-2.328,2.758-2.687L70.685-5.2q0-1.312-1.422-1.312a4.853,4.853,0,0,0-2.719.852V-7.523a6.116,6.116,0,0,1,1.41-.469,7.413,7.413,0,0,1,1.629-.2Q73-8.2,73-4.781Zm-2.32-3.25v-.539L69.232-3.6q-1.2.156-1.2,1.086a.9.9,0,0,0,.293.691,1.126,1.126,0,0,0,.793.27,1.462,1.462,0,0,0,1.133-.48A1.735,1.735,0,0,0,70.685-3.25Zm17.12-.539H84.8V-.781H83.219V-3.789H80.2V-5.375h3.023V-8.4H84.8v3.023h3.008ZM97.088-11.2v7.063h1.344V-2.3H97.088V0h-2.25V-2.3H89.955v-1.93q.648-.727,1.344-1.59t1.344-1.777q.648-.914,1.207-1.84A18.442,18.442,0,0,0,94.8-11.2ZM92.166-4.141h2.672V-8.055q-.273.508-.594,1.027T93.572-6q-.352.5-.711.977T92.166-4.141ZM112.9,0H110.41V-6.7q0-1.086.094-2.4h-.062a11.8,11.8,0,0,1-.352,1.484L107.465,0H105.4L102.73-7.539a14.672,14.672,0,0,1-.352-1.562h-.07q.1,1.656.1,2.906V0h-2.273V-11.2h3.7l2.289,6.641a9.35,9.35,0,0,1,.4,1.6h.047a16.127,16.127,0,0,1,.445-1.617L109.3-11.2h3.6Zm8.963,0h-2.336V-1.148H119.5A2.607,2.607,0,0,1,117.115.2a2.492,2.492,0,0,1-1.832-.66,2.366,2.366,0,0,1-.668-1.762q0-2.328,2.758-2.687l2.172-.289q0-1.312-1.422-1.312a4.853,4.853,0,0,0-2.719.852V-7.523a6.116,6.116,0,0,1,1.41-.469,7.413,7.413,0,0,1,1.629-.2q3.422,0,3.422,3.414Zm-2.32-3.25v-.539l-1.453.188q-1.2.156-1.2,1.086a.9.9,0,0,0,.293.691,1.126,1.126,0,0,0,.793.27,1.462,1.462,0,0,0,1.133-.48A1.735,1.735,0,0,0,119.544-3.25Zm1.586-8.539-2.445,2.523H116.9l2.031-2.523ZM123.3-.211v-2a5.256,5.256,0,0,0,1.215.547,4.028,4.028,0,0,0,1.145.18,2.455,2.455,0,0,0,1.035-.18.581.581,0,0,0,.379-.547A.506.506,0,0,0,126.9-2.6a1.6,1.6,0,0,0-.441-.273,5.009,5.009,0,0,0-.59-.211q-.32-.094-.617-.211a5.913,5.913,0,0,1-.84-.387,2.427,2.427,0,0,1-.609-.48,1.889,1.889,0,0,1-.375-.633,2.525,2.525,0,0,1-.129-.852,2.192,2.192,0,0,1,.293-1.156,2.393,2.393,0,0,1,.781-.793,3.57,3.57,0,0,1,1.117-.453A5.825,5.825,0,0,1,126.8-8.2a7.261,7.261,0,0,1,1.078.082,8.047,8.047,0,0,1,1.078.238v1.906a3.9,3.9,0,0,0-1-.41,4.235,4.235,0,0,0-1.051-.137,2.328,2.328,0,0,0-.457.043,1.505,1.505,0,0,0-.379.125.7.7,0,0,0-.258.211.486.486,0,0,0-.094.293.541.541,0,0,0,.141.375,1.221,1.221,0,0,0,.367.27,3.625,3.625,0,0,0,.5.2q.277.09.551.184a7.161,7.161,0,0,1,.891.375,2.848,2.848,0,0,1,.684.477,1.871,1.871,0,0,1,.438.641,2.277,2.277,0,0,1,.152.875,2.282,2.282,0,0,1-.309,1.215,2.471,2.471,0,0,1-.82.82,3.72,3.72,0,0,1-1.18.461A6.54,6.54,0,0,1,125.741.2,7.149,7.149,0,0,1,123.3-.211Zm14.745-3.648V0h-2.523V-11.2h3.953q4.234,0,4.234,3.57A3.426,3.426,0,0,1,142.49-4.9a4.813,4.813,0,0,1-3.246,1.043Zm0-5.406v3.492h.992q2.016,0,2.016-1.766,0-1.727-2.016-1.727Zm12.283,3.492a2.142,2.142,0,0,0-1.039-.242,1.5,1.5,0,0,0-1.258.59,2.573,2.573,0,0,0-.453,1.605V0h-2.469V-8h2.469v1.484h.031a2.136,2.136,0,0,1,2.109-1.625,1.59,1.59,0,0,1,.609.094ZM155.224.2A4.3,4.3,0,0,1,152.08-.926a4.064,4.064,0,0,1-1.145-3.043,4.065,4.065,0,0,1,1.188-3.105A4.487,4.487,0,0,1,155.334-8.2a4.249,4.249,0,0,1,3.125,1.121,3.985,3.985,0,0,1,1.133,2.965,4.23,4.23,0,0,1-1.168,3.148A4.348,4.348,0,0,1,155.224.2Zm.063-6.5a1.647,1.647,0,0,0-1.359.6,2.653,2.653,0,0,0-.484,1.7q0,2.3,1.859,2.3,1.773,0,1.773-2.367Q157.076-6.3,155.287-6.3ZM163.694-.93h-.031V0h-2.469V-11.844h2.469V-6.8h.031a2.929,2.929,0,0,1,2.6-1.4,2.855,2.855,0,0,1,2.383,1.063,4.582,4.582,0,0,1,.836,2.906,4.962,4.962,0,0,1-.977,3.211A3.181,3.181,0,0,1,165.929.2,2.521,2.521,0,0,1,163.694-.93Zm-.07-3.375v.82a1.872,1.872,0,0,0,.445,1.281,1.449,1.449,0,0,0,1.141.508,1.514,1.514,0,0,0,1.309-.652,3.15,3.15,0,0,0,.465-1.848,2.506,2.506,0,0,0-.426-1.551,1.437,1.437,0,0,0-1.215-.559,1.569,1.569,0,0,0-1.23.555A2.107,2.107,0,0,0,163.624-4.3ZM177.618,0h-2.336V-1.148h-.031A2.607,2.607,0,0,1,172.868.2a2.492,2.492,0,0,1-1.832-.66,2.366,2.366,0,0,1-.668-1.762q0-2.328,2.758-2.687L175.3-5.2q0-1.312-1.422-1.312a4.853,4.853,0,0,0-2.719.852V-7.523a6.116,6.116,0,0,1,1.41-.469,7.413,7.413,0,0,1,1.629-.2q3.422,0,3.422,3.414ZM175.3-3.25v-.539l-1.453.188q-1.2.156-1.2,1.086a.9.9,0,0,0,.293.691,1.126,1.126,0,0,0,.793.27,1.462,1.462,0,0,0,1.133-.48A1.735,1.735,0,0,0,175.3-3.25Zm6.775,2.32h-.031V0h-2.469V-11.844h2.469V-6.8h.031a2.929,2.929,0,0,1,2.6-1.4,2.855,2.855,0,0,1,2.383,1.063,4.582,4.582,0,0,1,.836,2.906,4.962,4.962,0,0,1-.977,3.211A3.181,3.181,0,0,1,184.307.2,2.521,2.521,0,0,1,182.073-.93ZM182-4.3v.82a1.872,1.872,0,0,0,.445,1.281,1.449,1.449,0,0,0,1.141.508,1.514,1.514,0,0,0,1.309-.652,3.15,3.15,0,0,0,.465-1.848,2.506,2.506,0,0,0-.426-1.551,1.437,1.437,0,0,0-1.215-.559,1.569,1.569,0,0,0-1.23.555A2.107,2.107,0,0,0,182-4.3ZM191.965,0H189.5V-11.844h2.469Zm9.267-3.3h-5.219q.125,1.742,2.2,1.742a4.286,4.286,0,0,0,2.32-.625V-.4A6.1,6.1,0,0,1,197.646.2a4.058,4.058,0,0,1-3.008-1.074,4.058,4.058,0,0,1-1.07-3,4.281,4.281,0,0,1,1.156-3.156A3.852,3.852,0,0,1,197.568-8.2a3.5,3.5,0,0,1,2.707,1.039,4,4,0,0,1,.957,2.82Zm-2.289-1.516q0-1.719-1.391-1.719a1.328,1.328,0,0,0-1.027.492A2.234,2.234,0,0,0,196-4.812Zm12.189,1.023h-3.008V-.781h-1.578V-3.789h-3.023V-5.375h3.023V-8.4h1.578v3.023h3.008Zm5.65-.07V0h-2.523V-11.2h3.953q4.234,0,4.234,3.57a3.426,3.426,0,0,1-1.215,2.73,4.813,4.813,0,0,1-3.246,1.043Zm0-5.406v3.492h.992q2.016,0,2.016-1.766,0-1.727-2.016-1.727ZM230.557-3.3h-5.219q.125,1.742,2.2,1.742a4.286,4.286,0,0,0,2.32-.625V-.4A6.1,6.1,0,0,1,226.971.2a4.058,4.058,0,0,1-3.008-1.074,4.058,4.058,0,0,1-1.07-3,4.281,4.281,0,0,1,1.156-3.156A3.852,3.852,0,0,1,226.893-8.2,3.5,3.5,0,0,1,229.6-7.156a4,4,0,0,1,.957,2.82Zm-2.289-1.516q0-1.719-1.391-1.719a1.328,1.328,0,0,0-1.027.492,2.234,2.234,0,0,0-.527,1.227Zm3.236,4.6v-2a5.256,5.256,0,0,0,1.215.547,4.028,4.028,0,0,0,1.145.18,2.455,2.455,0,0,0,1.035-.18.581.581,0,0,0,.379-.547.506.506,0,0,0-.172-.391,1.6,1.6,0,0,0-.441-.273,5.009,5.009,0,0,0-.59-.211q-.32-.094-.617-.211a5.914,5.914,0,0,1-.84-.387,2.427,2.427,0,0,1-.609-.48,1.889,1.889,0,0,1-.375-.633,2.525,2.525,0,0,1-.129-.852A2.192,2.192,0,0,1,231.8-6.8a2.393,2.393,0,0,1,.781-.793,3.57,3.57,0,0,1,1.117-.453A5.825,5.825,0,0,1,235-8.2a7.261,7.261,0,0,1,1.078.082,8.047,8.047,0,0,1,1.078.238v1.906a3.9,3.9,0,0,0-1-.41,4.235,4.235,0,0,0-1.051-.137,2.328,2.328,0,0,0-.457.043,1.505,1.505,0,0,0-.379.125.7.7,0,0,0-.258.211.486.486,0,0,0-.094.293.541.541,0,0,0,.141.375,1.221,1.221,0,0,0,.367.27,3.625,3.625,0,0,0,.5.2q.277.09.551.184a7.161,7.161,0,0,1,.891.375,2.848,2.848,0,0,1,.684.477,1.871,1.871,0,0,1,.438.641,2.277,2.277,0,0,1,.152.875,2.282,2.282,0,0,1-.309,1.215,2.471,2.471,0,0,1-.82.82,3.72,3.72,0,0,1-1.18.461A6.54,6.54,0,0,1,233.949.2,7.149,7.149,0,0,1,231.5-.211Zm8.814-9.055a1.442,1.442,0,0,1-1.023-.371,1.2,1.2,0,0,1-.4-.91,1.153,1.153,0,0,1,.4-.906,1.49,1.49,0,0,1,1.023-.352,1.486,1.486,0,0,1,1.027.352,1.158,1.158,0,0,1,.395.906,1.191,1.191,0,0,1-.395.922A1.466,1.466,0,0,1,240.318-9.266ZM241.537,0h-2.469V-8h2.469ZM256.32,0h-2.461V-4.562q0-1.742-1.281-1.742a1.177,1.177,0,0,0-.992.523,2.151,2.151,0,0,0-.383,1.3V0h-2.469V-4.609q0-1.7-1.258-1.7a1.206,1.206,0,0,0-1.012.5,2.2,2.2,0,0,0-.379,1.359V0h-2.469V-8h2.469v1.25h.031a2.952,2.952,0,0,1,1.074-1.043,2.952,2.952,0,0,1,1.512-.4,2.3,2.3,0,0,1,2.32,1.492A2.959,2.959,0,0,1,253.711-8.2q2.609,0,2.609,3.219Zm3.2-9.266a1.442,1.442,0,0,1-1.023-.371,1.2,1.2,0,0,1-.4-.91,1.153,1.153,0,0,1,.4-.906,1.49,1.49,0,0,1,1.023-.352,1.486,1.486,0,0,1,1.027.352,1.158,1.158,0,0,1,.395.906,1.191,1.191,0,0,1-.395.922A1.466,1.466,0,0,1,259.525-9.266ZM260.743,0h-2.469V-8h2.469ZM262.3-.211v-2a5.256,5.256,0,0,0,1.215.547,4.028,4.028,0,0,0,1.145.18,2.455,2.455,0,0,0,1.035-.18.581.581,0,0,0,.379-.547A.506.506,0,0,0,265.9-2.6a1.6,1.6,0,0,0-.441-.273,5.01,5.01,0,0,0-.59-.211q-.32-.094-.617-.211a5.913,5.913,0,0,1-.84-.387,2.427,2.427,0,0,1-.609-.48,1.889,1.889,0,0,1-.375-.633,2.525,2.525,0,0,1-.129-.852,2.192,2.192,0,0,1,.293-1.156,2.393,2.393,0,0,1,.781-.793,3.57,3.57,0,0,1,1.117-.453A5.825,5.825,0,0,1,265.8-8.2a7.261,7.261,0,0,1,1.078.082,8.046,8.046,0,0,1,1.078.238v1.906a3.9,3.9,0,0,0-1-.41,4.235,4.235,0,0,0-1.051-.137,2.328,2.328,0,0,0-.457.043,1.505,1.505,0,0,0-.379.125.7.7,0,0,0-.258.211.486.486,0,0,0-.094.293.541.541,0,0,0,.141.375,1.221,1.221,0,0,0,.367.27,3.624,3.624,0,0,0,.5.2q.277.09.551.184a7.161,7.161,0,0,1,.891.375,2.847,2.847,0,0,1,.684.477,1.872,1.872,0,0,1,.438.641,2.277,2.277,0,0,1,.152.875,2.282,2.282,0,0,1-.309,1.215,2.47,2.47,0,0,1-.82.82,3.72,3.72,0,0,1-1.18.461A6.54,6.54,0,0,1,264.745.2,7.149,7.149,0,0,1,262.3-.211Z" transform="translate(916.56 3620)" fill="#f8276e"/>
    <path id="Trazado_1050476" data-name="Trazado 1050476" d="M8.672-3.727A4.107,4.107,0,0,1,8.383-2.18a3.776,3.776,0,0,1-.8,1.246,3.723,3.723,0,0,1-1.227.828A3.95,3.95,0,0,1,4.8.2,3.922,3.922,0,0,1,3.105-.156a3.414,3.414,0,0,1-1.262-1.02,4.767,4.767,0,0,1-.789-1.637,8.088,8.088,0,0,1-.273-2.2,9.039,9.039,0,0,1,.355-2.621A6.018,6.018,0,0,1,2.152-9.641a4.562,4.562,0,0,1,1.6-1.293,4.751,4.751,0,0,1,2.109-.457,5.32,5.32,0,0,1,2.016.3v2.063a3.7,3.7,0,0,0-1.859-.484,2.6,2.6,0,0,0-1.133.242,2.5,2.5,0,0,0-.871.688A3.324,3.324,0,0,0,3.441-7.5a4.781,4.781,0,0,0-.223,1.4h.047A2.717,2.717,0,0,1,5.617-7.2a3.064,3.064,0,0,1,1.258.25,2.729,2.729,0,0,1,.961.707,3.243,3.243,0,0,1,.617,1.1A4.379,4.379,0,0,1,8.672-3.727ZM6.258-3.57q0-1.8-1.477-1.8a1.449,1.449,0,0,0-.609.125A1.356,1.356,0,0,0,3.7-4.9a1.6,1.6,0,0,0-.3.535A2.1,2.1,0,0,0,3.3-3.68a2.644,2.644,0,0,0,.109.773,2.054,2.054,0,0,0,.309.629,1.528,1.528,0,0,0,.473.426A1.206,1.206,0,0,0,4.8-1.7,1.319,1.319,0,0,0,5.4-1.832a1.356,1.356,0,0,0,.461-.383,1.759,1.759,0,0,0,.293-.594A2.708,2.708,0,0,0,6.258-3.57Z" transform="translate(1043.56 3664.134)" fill="#f8276e"/>
    <path id="Trazado_1050477" data-name="Trazado 1050477" d="M8.672-3.727A4.107,4.107,0,0,1,8.383-2.18a3.776,3.776,0,0,1-.8,1.246,3.723,3.723,0,0,1-1.227.828A3.95,3.95,0,0,1,4.8.2,3.922,3.922,0,0,1,3.105-.156a3.414,3.414,0,0,1-1.262-1.02,4.767,4.767,0,0,1-.789-1.637,8.088,8.088,0,0,1-.273-2.2,9.039,9.039,0,0,1,.355-2.621A6.018,6.018,0,0,1,2.152-9.641a4.562,4.562,0,0,1,1.6-1.293,4.751,4.751,0,0,1,2.109-.457,5.32,5.32,0,0,1,2.016.3v2.063a3.7,3.7,0,0,0-1.859-.484,2.6,2.6,0,0,0-1.133.242,2.5,2.5,0,0,0-.871.688A3.324,3.324,0,0,0,3.441-7.5a4.781,4.781,0,0,0-.223,1.4h.047A2.717,2.717,0,0,1,5.617-7.2a3.064,3.064,0,0,1,1.258.25,2.729,2.729,0,0,1,.961.707,3.243,3.243,0,0,1,.617,1.1A4.379,4.379,0,0,1,8.672-3.727ZM6.258-3.57q0-1.8-1.477-1.8a1.449,1.449,0,0,0-.609.125A1.356,1.356,0,0,0,3.7-4.9a1.6,1.6,0,0,0-.3.535A2.1,2.1,0,0,0,3.3-3.68a2.644,2.644,0,0,0,.109.773,2.054,2.054,0,0,0,.309.629,1.528,1.528,0,0,0,.473.426A1.206,1.206,0,0,0,4.8-1.7,1.319,1.319,0,0,0,5.4-1.832a1.356,1.356,0,0,0,.461-.383,1.759,1.759,0,0,0,.293-.594A2.708,2.708,0,0,0,6.258-3.57Z" transform="translate(1043.56 3775.134)" fill="#f8276e"/>
    <path id="Trazado_1050478" data-name="Trazado 1050478" d="M7.438-11.2v7.063H8.781V-2.3H7.438V0H5.188V-2.3H.3v-1.93q.648-.727,1.344-1.59T2.992-7.594q.648-.914,1.207-1.84a18.443,18.443,0,0,0,.949-1.77ZM2.516-4.141H5.188V-8.055q-.273.508-.594,1.027T3.922-6q-.352.5-.711.977T2.516-4.141ZM31-9.781q-.75,1.352-1.344,2.535T28.608-4.91a22.029,22.029,0,0,0-.773,2.344A22.638,22.638,0,0,0,27.311,0H24.733a21.094,21.094,0,0,1,.578-2.516,23.592,23.592,0,0,1,.832-2.348Q26.616-6,27.19-7.078T28.4-9.187H23.2V-11.2H31ZM41.113-3.016a2.983,2.983,0,0,1,.137-.9,2.734,2.734,0,0,1,.41-.8,3.019,3.019,0,0,1,.684-.664,3.672,3.672,0,0,1,.965-.48,3.46,3.46,0,0,1-1.32-1.082,2.473,2.473,0,0,1-.469-1.465,2.649,2.649,0,0,1,.27-1.187,2.881,2.881,0,0,1,.746-.945,3.49,3.49,0,0,1,1.137-.621,4.485,4.485,0,0,1,1.441-.223,4.573,4.573,0,0,1,1.461.223,3.572,3.572,0,0,1,1.145.617,2.8,2.8,0,0,1,.746.934,2.615,2.615,0,0,1,.266,1.172A2.326,2.326,0,0,1,48.23-7a3.722,3.722,0,0,1-1.383,1.074,3.769,3.769,0,0,1,.961.48,3.093,3.093,0,0,1,.7.668,2.736,2.736,0,0,1,.422.816,3.006,3.006,0,0,1,.141.918,2.933,2.933,0,0,1-.289,1.309A2.979,2.979,0,0,1,47.96-.715a3.853,3.853,0,0,1-1.258.66A5.26,5.26,0,0,1,45.089.18a5.287,5.287,0,0,1-1.6-.23A3.84,3.84,0,0,1,42.234-.7a3.025,3.025,0,0,1-.824-1.012A2.852,2.852,0,0,1,41.113-3.016Zm2.336-.211a1.9,1.9,0,0,0,.117.688,1.406,1.406,0,0,0,.336.516,1.5,1.5,0,0,0,.52.324,1.906,1.906,0,0,0,.676.113,1.8,1.8,0,0,0,.66-.117,1.549,1.549,0,0,0,.52-.328,1.493,1.493,0,0,0,.344-.516,1.775,1.775,0,0,0,.125-.68,1.769,1.769,0,0,0-.117-.641,1.523,1.523,0,0,0-.336-.527,1.659,1.659,0,0,0-.52-.355,1.656,1.656,0,0,0-.676-.133,1.761,1.761,0,0,0-.656.121,1.5,1.5,0,0,0-.523.344,1.622,1.622,0,0,0-.344.527A1.733,1.733,0,0,0,43.449-3.227Zm.344-4.961a1.48,1.48,0,0,0,.105.559,1.441,1.441,0,0,0,.285.453,1.3,1.3,0,0,0,.426.3,1.265,1.265,0,0,0,.52.109,1.257,1.257,0,0,0,.523-.109,1.331,1.331,0,0,0,.426-.3,1.464,1.464,0,0,0,.289-.453,1.451,1.451,0,0,0,.105-.555,1.552,1.552,0,0,0-.1-.566,1.354,1.354,0,0,0-.285-.453,1.348,1.348,0,0,0-.43-.3,1.284,1.284,0,0,0-.527-.109,1.283,1.283,0,0,0-.543.113,1.309,1.309,0,0,0-.422.3,1.369,1.369,0,0,0-.273.453A1.585,1.585,0,0,0,43.792-8.187Zm21.231-3.266V0H62.563V-8.672a2.947,2.947,0,0,1-.48.34,4.96,4.96,0,0,1-.59.289,5.267,5.267,0,0,1-.648.219,4.736,4.736,0,0,1-.664.129V-9.773a10.266,10.266,0,0,0,1.813-.719,10.315,10.315,0,0,0,1.539-.961ZM76.4-3.727a4.107,4.107,0,0,1-.289,1.547,3.776,3.776,0,0,1-.8,1.246,3.723,3.723,0,0,1-1.227.828,3.95,3.95,0,0,1-1.555.3,3.922,3.922,0,0,1-1.691-.352,3.414,3.414,0,0,1-1.262-1.02,4.767,4.767,0,0,1-.789-1.637,8.089,8.089,0,0,1-.273-2.2,9.039,9.039,0,0,1,.355-2.621,6.018,6.018,0,0,1,1.016-2.012,4.562,4.562,0,0,1,1.6-1.293,4.751,4.751,0,0,1,2.109-.457,5.32,5.32,0,0,1,2.016.3v2.063a3.7,3.7,0,0,0-1.859-.484,2.6,2.6,0,0,0-1.133.242,2.5,2.5,0,0,0-.871.688A3.324,3.324,0,0,0,71.17-7.5a4.781,4.781,0,0,0-.223,1.4h.047a2.717,2.717,0,0,1,2.352-1.1,3.064,3.064,0,0,1,1.258.25,2.729,2.729,0,0,1,.961.707,3.243,3.243,0,0,1,.617,1.1A4.379,4.379,0,0,1,76.4-3.727Zm-2.414.156q0-1.8-1.477-1.8a1.449,1.449,0,0,0-.609.125,1.356,1.356,0,0,0-.469.352,1.6,1.6,0,0,0-.3.535,2.1,2.1,0,0,0-.105.684,2.644,2.644,0,0,0,.109.773,2.054,2.054,0,0,0,.309.629,1.528,1.528,0,0,0,.473.426,1.206,1.206,0,0,0,.609.156,1.319,1.319,0,0,0,.605-.137,1.356,1.356,0,0,0,.461-.383,1.76,1.76,0,0,0,.293-.594A2.708,2.708,0,0,0,73.986-3.57Z" transform="translate(1009.56 3727.246)" fill="#f8276e"/>
    <path id="Trazado_1049410" data-name="Trazado 1049410" d="M1279.165,3776.636" transform="translate(-32.5 -33.254)" fill="none" stroke="#707070" stroke-width="1"/>
    <path id="Trazado_1049411" data-name="Trazado 1049411" d="M905.664,3776.636h370.464" transform="translate(-32.5 -33.254)" fill="none" stroke="#707070" stroke-width="1"/>
    <path id="Trazado_1049412" data-name="Trazado 1049412" d="M905.664,3776.636h370.464" transform="translate(-32.5 -140.638)" fill="none" stroke="#707070" stroke-width="1"/>
    <path id="Trazado_1049413" data-name="Trazado 1049413" d="M655.06,3746.393v177.64" transform="translate(-32.5 -33.254)" fill="none" stroke="#707070" stroke-width="1"/>
    <path id="Trazado_1049414" data-name="Trazado 1049414" d="M602.058,3913.3v16.986" transform="translate(-32.5 -31.521)" fill="#707070" stroke="#707070" stroke-width="1"/>
    <g id="Trazado_1050479" data-name="Trazado 1050479" transform="translate(377.5 3610.746)" fill="#707070">
      <path d="M 17.14507484436035 15.5 L 0.8549256324768066 15.5 L 9 1.019867777824402 L 17.14507484436035 15.5 Z" stroke="none"/>
      <path d="M 9 2.039735794067383 L 1.709850311279297 15 L 16.2901496887207 15 L 9 2.039735794067383 M 9 0 L 18 16 L 0 16 L 9 0 Z" stroke="none" fill="#707070"/>
    </g>
    <g id="Trazado_1050480" data-name="Trazado 1050480" transform="translate(929.5 3881.746) rotate(90)" fill="#707070">
      <path d="M 17.14507484436035 15.5 L 0.8549256324768066 15.5 L 9 1.019867777824402 L 17.14507484436035 15.5 Z" stroke="none"/>
      <path d="M 9 2.039735794067383 L 1.709850311279297 15 L 16.2901496887207 15 L 9 2.039735794067383 M 9 0 L 18 16 L 0 16 L 9 0 Z" stroke="none" fill="#707070"/>
    </g>
    <path id="Trazado_1049415" data-name="Trazado 1049415" d="M604.836,3674.576v33.762h-4.928l9.661,9.661,8.661-9.661h-5.11v-33.762Z" transform="translate(-32.5 -33.254)" fill="#6e6e6e" stroke="#6e6e6e" stroke-linecap="round" stroke-linejoin="round" stroke-width="1"/>
    <path id="Trazado_1049416" data-name="Trazado 1049416" d="M604.836,3674.576v33.762h-4.928l9.661,9.661,8.661-9.661h-5.11v-33.762Z" transform="matrix(0.616, 0.788, -0.788, 0.616, 3191.983, 937.131)" fill="#6e6e6e" stroke="#6e6e6e" stroke-linecap="round" stroke-linejoin="round" stroke-width="1"/>
    <path id="Trazado_1049419" data-name="Trazado 1049419" d="M604.836,3674.576v33.762h-4.928l9.661,9.661,8.661-9.661h-5.11v-33.762Z" transform="matrix(0.616, 0.788, -0.788, 0.616, 3404.983, 1105.546)" fill="#6e6e6e" stroke="#707070" stroke-linecap="round" stroke-linejoin="round" stroke-width="1"/>
    <path id="Trazado_1049417" data-name="Trazado 1049417" d="M604.836,3674.576v33.762h-4.928l9.661,9.661,8.661-9.661h-5.11v-33.762Z" transform="matrix(0.616, 0.788, -0.788, 0.616, 3022.983, 1101.216)" fill="#6e6e6e" stroke="#707070" stroke-linecap="round" stroke-linejoin="round" stroke-width="1"/>
    <path id="Trazado_1049418" data-name="Trazado 1049418" d="M477,3923.522s37.664-104.671,69-154.063,56.352-43.5,56.352-43.5,39.32,8.3,106.475,57.617,162.146,139.664,162.146,139.664" transform="translate(-32.5 -33.254)" fill="none" stroke="#6e6e6e" stroke-width="1.5"/>
    <path id="Trazado_1050481" data-name="Trazado 1050481" d="M9,0A9,9,0,1,1,0,9,9,9,0,0,1,9,0Z" transform="translate(435.5 3881.746)" fill="#04fc03"/>
    <path id="Trazado_1050482" data-name="Trazado 1050482" d="M9,0A9,9,0,1,1,0,9,9,9,0,0,1,9,0Z" transform="translate(613.5 3705.746)" fill="#f8276e"/>
    <path id="Trazado_1050483" data-name="Trazado 1050483" d="M9,0A9,9,0,1,1,0,9,9,9,0,0,1,9,0Z" transform="translate(830.5 3881.746)" fill="#04fc03"/>
    <path id="Trazado_1050484" data-name="Trazado 1050484" d="M9,0A9,9,0,1,1,0,9,9,9,0,0,1,9,0Z" transform="translate(559.5 3683.746)" fill="#04fc03"/>
  </g>
</svg>
