<svg xmlns="http://www.w3.org/2000/svg" xmlns:xlink="http://www.w3.org/1999/xlink" width="108" height="108" viewBox="0 0 108 108">
  <defs>
    <filter id="Trazado_904820" x="0" y="0" width="108" height="108" filterUnits="userSpaceOnUse">
      <feOffset dy="3" input="SourceAlpha"/>
      <feGaussianBlur stdDeviation="3" result="blur"/>
      <feFlood flood-opacity="0.161"/>
      <feComposite operator="in" in2="blur"/>
      <feComposite in="SourceGraphic"/>
    </filter>
  </defs>
  <g id="Grupo_1208925" data-name="Grupo 1208925" transform="translate(-200 -463.605)">
    <g id="Grupo_1174741" data-name="Grupo 1174741" transform="translate(209 469.605)">
      <g id="Grupo_1173585" data-name="Grupo 1173585" transform="translate(0 0)">
        <g id="Grupo_1173428" data-name="Grupo 1173428">
          <g id="Grupo_1171958" data-name="Grupo 1171958">
            <g id="Grupo_1167341" data-name="Grupo 1167341">
              <g id="Grupo_1166792" data-name="Grupo 1166792">
                <g transform="matrix(1, 0, 0, 1, -9, -6)" filter="url(#Trazado_904820)">
                  <g id="Trazado_904820-2" data-name="Trazado 904820" transform="translate(9 6)" fill="#fef9e5">
                    <path d="M 44.99999618530273 88.50002288818359 C 39.12687301635742 88.50002288818359 33.43022155761719 87.35009765625 28.06829643249512 85.08218383789062 C 22.88852119445801 82.89133453369141 18.23629570007324 79.75460815429688 14.24084663391113 75.75916290283203 C 10.24540901184082 71.76371002197266 7.108683586120605 67.11148834228516 4.917821407318115 61.93171310424805 C 2.649921178817749 56.56978607177734 1.499996185302734 50.87313461303711 1.499996185302734 45.0000114440918 C 1.499996185302734 39.12688827514648 2.649921178817749 33.43023681640625 4.917821407318115 28.06831169128418 C 7.108683586120605 22.88853645324707 10.24540901184082 18.2363109588623 14.24084663391113 14.2408618927002 C 18.23629570007324 10.24541187286377 22.88852119445801 7.108686447143555 28.06829643249512 4.917836666107178 C 33.43022155761719 2.649924039840698 39.12687301635742 1.499998927116394 44.99999618530273 1.499998927116394 C 50.87311935424805 1.499998927116394 56.56977081298828 2.649924039840698 61.93169784545898 4.917836666107178 C 67.11147308349609 7.108686447143555 71.76369476318359 10.24541187286377 75.75914764404297 14.2408618927002 C 79.75458526611328 18.2363109588623 82.89131164550781 22.88853645324707 85.08216857910156 28.06831169128418 C 87.35007476806641 33.43023681640625 88.5 39.12688827514648 88.5 45.0000114440918 C 88.5 50.87313461303711 87.35007476806641 56.56978607177734 85.08216857910156 61.93171310424805 C 82.89131164550781 67.11148834228516 79.75458526611328 71.76371002197266 75.75914764404297 75.75916290283203 C 71.76369476318359 79.75460815429688 67.11147308349609 82.89133453369141 61.93169784545898 85.08218383789062 C 56.56977081298828 87.35009765625 50.87311935424805 88.50002288818359 44.99999618530273 88.50002288818359 Z" stroke="none"/>
                    <path d="M 44.99999618530273 3 C 39.32870864868164 3 33.82865142822266 4.110054016113281 28.65262603759766 6.299339294433594 C 23.65165710449219 8.414566040039062 19.15968322753906 11.44333648681641 15.301513671875 15.30152893066406 C 11.44333648681641 19.15969848632812 8.414566040039062 23.65165710449219 6.299339294433594 28.65264129638672 C 4.110054016113281 33.82866668701172 2.999992370605469 39.3287239074707 2.999992370605469 45.0000114440918 C 2.999992370605469 50.67129898071289 4.110054016113281 56.17135620117188 6.299339294433594 61.34738159179688 C 8.414566040039062 66.34836578369141 11.44333648681641 70.84032440185547 15.301513671875 74.69849395751953 C 19.15968322753906 78.55668640136719 23.65165710449219 81.58545684814453 28.65262603759766 83.70068359375 C 33.82865142822266 85.88996887207031 39.32870864868164 87.00002288818359 44.99999618530273 87.00002288818359 C 50.67128372192383 87.00002288818359 56.17134094238281 85.88996887207031 61.34736633300781 83.70068359375 C 66.34834289550781 81.58545684814453 70.84030914306641 78.55668640136719 74.69847869873047 74.69849395751953 C 78.55665588378906 70.84032440185547 81.58542633056641 66.34836578369141 83.70065307617188 61.34738159179688 C 85.88993835449219 56.17135620117188 87 50.67129898071289 87 45.0000114440918 C 87 39.3287239074707 85.88993835449219 33.82866668701172 83.70065307617188 28.65264129638672 C 81.58542633056641 23.65165710449219 78.55665588378906 19.15969848632812 74.69847869873047 15.30152893066406 C 70.84030914306641 11.44333648681641 66.34834289550781 8.414566040039062 61.34736633300781 6.299339294433594 C 56.17134094238281 4.110054016113281 50.67128372192383 3 44.99999618530273 3 M 44.99999618530273 0 C 69.85281372070312 0 90 20.14719390869141 90 45.0000114440918 C 90 69.85282897949219 69.85281372070312 90.00002288818359 44.99999618530273 90.00002288818359 C 20.14717864990234 90.00002288818359 -7.62939453125e-06 69.85282897949219 -7.62939453125e-06 45.0000114440918 C -7.62939453125e-06 20.14719390869141 20.14717864990234 0 44.99999618530273 0 Z" stroke="none" fill="#866d08"/>
                  </g>
                </g>
              </g>
            </g>
          </g>
        </g>
      </g>
    </g>
    <g id="horizontal-bar-graph_11452439" transform="translate(225.9 486)">
      <g id="Grupo_1208924" data-name="Grupo 1208924">
        <path id="Trazado_1050280" data-name="Trazado 1050280" d="M20.149,52.256v-9.85H30v9.85ZM11.832,34.506v-9.85H4.525v9.85ZM30,16.755V6.9H3.6v9.85Z" fill="#f3da49" fill-rule="evenodd"/>
        <path id="Trazado_1050281" data-name="Trazado 1050281" d="M11.832,34.505v-9.85H30v9.85ZM45.459,52.256v-9.85H30v9.85ZM39.4,16.755V6.9H30v9.85Z" fill="#ff8b47" fill-rule="evenodd"/>
        <path id="Trazado_1050282" data-name="Trazado 1050282" d="M45.459,52.256v-9.85H53.6v9.85ZM53.6,34.506v-9.85H30v9.85ZM45.459,16.755V6.9H39.4v9.85Z" fill="#14cfff" fill-rule="evenodd"/>
        <path id="Trazado_1050283" data-name="Trazado 1050283" d="M30,42.41v2H20.15v-2ZM4.52,24.66v2h7.31v-2ZM3.6,6.9v2H30v-2Z" fill="#f9b348" fill-rule="evenodd"/>
        <path id="Trazado_1050284" data-name="Trazado 1050284" d="M30,24.66v2H11.83v-2Zm0,17.75v2H45.46v-2ZM30,6.9v2h9.4v-2Z" fill="#f63" fill-rule="evenodd"/>
        <path id="Trazado_1050285" data-name="Trazado 1050285" d="M53.6,42.41v2H45.46v-2ZM30,24.66v2H53.6v-2ZM39.4,6.9v2h6.06v-2Z" fill="#28abfa" fill-rule="evenodd"/>
      </g>
      <path id="Trazado_1050286" data-name="Trazado 1050286" d="M53.6,35.51a1,1,0,0,0,1-1V24.66a1,1,0,0,0-1-1H31V17.75H45.46a1,1,0,0,0,1-1V6.9a1,1,0,0,0-1-1H31V1a1,1,0,1,0-2,0V5.9H3.6a1,1,0,0,0-1,1v9.85a1,1,0,0,0,1,1H29v5.91H4.52a1,1,0,0,0-1,1v9.85a1,1,0,0,0,1,1H29v5.9H20.15a1,1,0,0,0-1,1v9.85a1,1,0,0,0,1,1H29V59a1,1,0,0,0,2,0V53.26H53.6a1,1,0,0,0,1-1V42.41a1,1,0,0,0-1-1H31v-5.9ZM40.4,7.9h4.06v7.85H40.4ZM29,51.26H21.15V43.41H29ZM10.83,33.51H5.52V25.66h5.31Zm18.17,0H12.83V25.66H29Zm23.6-7.85v7.85H31V25.66ZM38.4,7.9v7.85H31V7.9ZM29,15.75H4.6V7.9H29ZM46.46,43.41H52.6v7.85H46.46Zm-2,0v7.85H31V43.41Z"/>
    </g>
  </g>
</svg>
