<svg xmlns="http://www.w3.org/2000/svg" xmlns:xlink="http://www.w3.org/1999/xlink" width="1020" height="293" viewBox="0 0 1020 293">
  <defs>
    <filter id="Fondo" x="0" y="0" width="1020" height="293" filterUnits="userSpaceOnUse">
      <feOffset dy="3" input="SourceAlpha"/>
      <feGaussianBlur stdDeviation="3" result="blur"/>
      <feFlood flood-opacity="0.161"/>
      <feComposite operator="in" in2="blur"/>
      <feComposite in="SourceGraphic"/>
    </filter>
  </defs>
  <g id="Grupo_1208960" data-name="Grupo 1208960" transform="translate(-320.873 -2685)">
    <g transform="matrix(1, 0, 0, 1, 320.87, 2685)" filter="url(#Fondo)">
      <rect id="Fondo-2" data-name="Fondo" width="1002" height="275" transform="translate(9 6)" fill="#fff"/>
    </g>
    <g id="Grupo_1208959" data-name="Grupo 1208959">
      <path id="Trazado_1050464" data-name="Trazado 1050464" d="M4.354-2.444V-16.663a27.322,27.322,0,0,0,8.4,4.865,26.994,26.994,0,0,0,9.153,1.622,20.3,20.3,0,0,0,4.732-.489,11.085,11.085,0,0,0,3.377-1.355,5.91,5.91,0,0,0,2.022-2.044,5.1,5.1,0,0,0,.667-2.555,5.523,5.523,0,0,0-1.066-3.333,11.475,11.475,0,0,0-2.91-2.71,30.411,30.411,0,0,0-4.377-2.4q-2.533-1.155-5.465-2.355-7.465-3.11-11.131-7.6A16.588,16.588,0,0,1,4.088-45.855a17.268,17.268,0,0,1,2-8.553A16.982,16.982,0,0,1,11.531-60.3a24.406,24.406,0,0,1,7.976-3.4,40.983,40.983,0,0,1,9.6-1.089,57.726,57.726,0,0,1,8.82.6,34.687,34.687,0,0,1,7.087,1.844v13.286a21.43,21.43,0,0,0-3.488-1.955,27.636,27.636,0,0,0-3.888-1.4,29.656,29.656,0,0,0-3.977-.822A28.145,28.145,0,0,0,29.9-53.5a19.58,19.58,0,0,0-4.443.467,11.4,11.4,0,0,0-3.377,1.311A6.522,6.522,0,0,0,19.951-49.7a4.792,4.792,0,0,0-.755,2.644,5.049,5.049,0,0,0,.844,2.866,9.684,9.684,0,0,0,2.4,2.4,25.463,25.463,0,0,0,3.777,2.222q2.222,1.089,5.021,2.244a55.949,55.949,0,0,1,6.865,3.4,24.405,24.405,0,0,1,5.221,4.066,15.838,15.838,0,0,1,3.333,5.177,18.291,18.291,0,0,1,1.155,6.776,18.151,18.151,0,0,1-2.022,8.953A16.414,16.414,0,0,1,40.3-3.088,23.8,23.8,0,0,1,32.237.133a46.608,46.608,0,0,1-9.709.978A53.985,53.985,0,0,1,12.552.222,30.113,30.113,0,0,1,4.354-2.444ZM203.7,0H189.527V-38.124q0-6.176.533-13.641H189.7a67.127,67.127,0,0,1-2,8.442L172.776,0h-11.73l-15.2-42.878a83.435,83.435,0,0,1-2-8.887h-.4q.578,9.42.578,16.529V0H131.1V-63.718h21.017l13.019,37.769A53.176,53.176,0,0,1,167.4-16.84h.267a91.721,91.721,0,0,1,2.533-9.2l13.019-37.68H203.7ZM347.017,0H331.377l-4.532-14.174H304.184L299.7,0H284.144l23.194-63.718h17.018ZM323.557-25.194l-6.843-21.417a27.911,27.911,0,0,1-1.066-5.732h-.355a24.3,24.3,0,0,1-1.111,5.554l-6.932,21.595ZM481.225,0H464.74l-9.909-16.4q-1.111-1.866-2.133-3.333a18.513,18.513,0,0,0-2.066-2.51,8.217,8.217,0,0,0-2.177-1.6,5.526,5.526,0,0,0-2.466-.555h-3.866V0H427.771V-63.718h22.75q23.194,0,23.194,17.329a17.945,17.945,0,0,1-1.022,6.154,17.1,17.1,0,0,1-2.888,5.088,18.308,18.308,0,0,1-4.51,3.91,23.259,23.259,0,0,1-5.887,2.577v.178a9.132,9.132,0,0,1,2.755,1.444,19.728,19.728,0,0,1,2.577,2.333,32.544,32.544,0,0,1,2.377,2.866q1.133,1.533,2.066,3Zm-39.1-52.965v17.729h6.221a10.313,10.313,0,0,0,7.42-2.666,8.9,8.9,0,0,0,2.844-6.709q0-8.354-10-8.354Zm160.779.933H584.728V0h-14.4V-52.032H552.247V-63.718H602.9Z" transform="translate(521.873 2813)" fill="#212429"/>
      <path id="Trazado_1050465" data-name="Trazado 1050465" d="M7.406,0H1.469V-11.2H7.156v1.188H2.781v3.727H6.828v1.18H2.781v3.922H7.406Zm1.5-.289V-1.664a3.792,3.792,0,0,0,2.3.773q1.688,0,1.688-1.125a.976.976,0,0,0-.145-.543,1.44,1.44,0,0,0-.391-.395,3.007,3.007,0,0,0-.578-.309q-.332-.137-.715-.285a9.207,9.207,0,0,1-.934-.426,2.82,2.82,0,0,1-.672-.484A1.8,1.8,0,0,1,9.06-5.07a2.17,2.17,0,0,1-.137-.8,1.912,1.912,0,0,1,.258-1A2.286,2.286,0,0,1,9.869-7.6a3.206,3.206,0,0,1,.98-.441,4.349,4.349,0,0,1,1.137-.148,4.59,4.59,0,0,1,1.859.359v1.3a3.624,3.624,0,0,0-2.031-.578,2.374,2.374,0,0,0-.648.082,1.587,1.587,0,0,0-.5.23,1.065,1.065,0,0,0-.32.355.936.936,0,0,0-.113.457,1.1,1.1,0,0,0,.113.523,1.152,1.152,0,0,0,.332.375,2.538,2.538,0,0,0,.531.3q.312.133.711.289a9.9,9.9,0,0,1,.953.418A3.269,3.269,0,0,1,13.6-3.6a1.893,1.893,0,0,1,.457.621,2,2,0,0,1,.16.836,1.971,1.971,0,0,1-.262,1.031,2.243,2.243,0,0,1-.7.727,3.2,3.2,0,0,1-1.008.43,4.976,4.976,0,0,1-1.2.141A4.539,4.539,0,0,1,8.908-.289ZM17.5-1.156h-.031V3.68H16.183V-8h1.281v1.406H17.5a3.03,3.03,0,0,1,2.766-1.594,2.93,2.93,0,0,1,2.414,1.074,4.449,4.449,0,0,1,.867,2.879,4.959,4.959,0,0,1-.977,3.215A3.251,3.251,0,0,1,19.894.188,2.676,2.676,0,0,1,17.5-1.156Zm-.031-3.227v1.117a2.379,2.379,0,0,0,.645,1.684,2.14,2.14,0,0,0,1.637.691,2.145,2.145,0,0,0,1.824-.891,4.086,4.086,0,0,0,.66-2.477,3.225,3.225,0,0,0-.617-2.094,2.043,2.043,0,0,0-1.672-.758,2.27,2.27,0,0,0-1.8.777A2.854,2.854,0,0,0,17.464-4.383Zm14.556.7H26.372a2.992,2.992,0,0,0,.719,2.063,2.478,2.478,0,0,0,1.891.727,3.931,3.931,0,0,0,2.484-.891v1.2a4.643,4.643,0,0,1-2.789.766A3.381,3.381,0,0,1,26.013-.9a4.461,4.461,0,0,1-.969-3.066A4.375,4.375,0,0,1,26.1-7.012a3.394,3.394,0,0,1,2.629-1.176,3.008,3.008,0,0,1,2.43,1.016,4.234,4.234,0,0,1,.859,2.82ZM30.708-4.766a2.607,2.607,0,0,0-.535-1.727,1.823,1.823,0,0,0-1.465-.617,2.07,2.07,0,0,0-1.539.648,2.943,2.943,0,0,0-.781,1.7Zm8.7,4.4a4.163,4.163,0,0,1-2.187.555A3.622,3.622,0,0,1,34.463-.926a4.035,4.035,0,0,1-1.051-2.887,4.435,4.435,0,0,1,1.133-3.176,3.963,3.963,0,0,1,3.023-1.2,4.209,4.209,0,0,1,1.859.391v1.313a3.258,3.258,0,0,0-1.906-.625,2.576,2.576,0,0,0-2.012.879,3.335,3.335,0,0,0-.785,2.309A3.176,3.176,0,0,0,35.463-1.7a2.545,2.545,0,0,0,1.98.813,3.211,3.211,0,0,0,1.969-.7ZM42.633,0H41.352V-8h1.281Zm1.148-12.078L41.735-9.516h-.992l1.742-2.562Zm5.4,1.359a1.707,1.707,0,0,0-.852-.211q-1.344,0-1.344,1.7V-8h1.875v1.094H46.986V0H45.713V-6.906H44.346V-8h1.367V-9.3a2.7,2.7,0,0,1,.727-1.988,2.453,2.453,0,0,1,1.813-.73,2.511,2.511,0,0,1,.93.141Zm1.713.688a.812.812,0,0,1-.586-.234.791.791,0,0,1-.242-.594.8.8,0,0,1,.242-.6.8.8,0,0,1,.586-.238.827.827,0,0,1,.6.238.8.8,0,0,1,.246.6.792.792,0,0,1-.246.586A.82.82,0,0,1,50.894-10.031ZM51.519,0H50.238V-8h1.281Zm8.048-.367A4.163,4.163,0,0,1,57.38.188,3.622,3.622,0,0,1,54.618-.926a4.035,4.035,0,0,1-1.051-2.887A4.435,4.435,0,0,1,54.7-6.988a3.963,3.963,0,0,1,3.023-1.2,4.209,4.209,0,0,1,1.859.391v1.313a3.258,3.258,0,0,0-1.906-.625,2.576,2.576,0,0,0-2.012.879,3.335,3.335,0,0,0-.785,2.309A3.176,3.176,0,0,0,55.618-1.7a2.545,2.545,0,0,0,1.98.813,3.211,3.211,0,0,0,1.969-.7ZM64.85.188A3.711,3.711,0,0,1,62.018-.934,4.153,4.153,0,0,1,60.96-3.906a4.326,4.326,0,0,1,1.1-3.148,3.96,3.96,0,0,1,2.977-1.133,3.588,3.588,0,0,1,2.793,1.1,4.368,4.368,0,0,1,1,3.055A4.3,4.3,0,0,1,67.753-.965,3.791,3.791,0,0,1,64.85.188Zm.094-7.3a2.437,2.437,0,0,0-1.953.84,3.449,3.449,0,0,0-.719,2.316A3.262,3.262,0,0,0,63-1.711a2.469,2.469,0,0,0,1.945.82,2.342,2.342,0,0,0,1.91-.8,3.492,3.492,0,0,0,.668-2.289A3.552,3.552,0,0,0,66.854-6.3,2.332,2.332,0,0,0,64.944-7.109ZM70.4-.289V-1.664a3.792,3.792,0,0,0,2.3.773q1.688,0,1.688-1.125a.976.976,0,0,0-.145-.543,1.44,1.44,0,0,0-.391-.395,3.007,3.007,0,0,0-.578-.309q-.332-.137-.715-.285a9.207,9.207,0,0,1-.934-.426,2.82,2.82,0,0,1-.672-.484,1.8,1.8,0,0,1-.406-.613,2.17,2.17,0,0,1-.137-.8,1.912,1.912,0,0,1,.258-1A2.286,2.286,0,0,1,71.36-7.6a3.206,3.206,0,0,1,.98-.441,4.349,4.349,0,0,1,1.137-.148,4.59,4.59,0,0,1,1.859.359v1.3a3.624,3.624,0,0,0-2.031-.578,2.374,2.374,0,0,0-.648.082,1.587,1.587,0,0,0-.5.23,1.065,1.065,0,0,0-.32.355.936.936,0,0,0-.113.457,1.1,1.1,0,0,0,.113.523,1.152,1.152,0,0,0,.332.375,2.538,2.538,0,0,0,.531.3q.313.133.711.289a9.9,9.9,0,0,1,.953.418,3.269,3.269,0,0,1,.719.484,1.893,1.893,0,0,1,.457.621,2,2,0,0,1,.16.836,1.971,1.971,0,0,1-.262,1.031,2.243,2.243,0,0,1-.7.727,3.2,3.2,0,0,1-1.008.43,4.976,4.976,0,0,1-1.2.141A4.539,4.539,0,0,1,70.4-.289Z" transform="translate(510.873 2855.617)" fill="#212429"/>
      <path id="Trazado_1050466" data-name="Trazado 1050466" d="M12.891,0h-1.3V-7.516q0-.891.109-2.18h-.031a6.969,6.969,0,0,1-.336,1.086L7.5,0H6.859L3.039-8.547A6.7,6.7,0,0,1,2.7-9.7H2.672q.062.672.063,2.2V0H1.469V-11.2H3.2L6.641-3.391a10,10,0,0,1,.516,1.344H7.2q.336-.922.539-1.375L11.25-11.2h1.641Zm9.2-3.68H16.447a2.992,2.992,0,0,0,.719,2.063,2.478,2.478,0,0,0,1.891.727,3.931,3.931,0,0,0,2.484-.891v1.2a4.643,4.643,0,0,1-2.789.766A3.381,3.381,0,0,1,16.088-.9a4.461,4.461,0,0,1-.969-3.066,4.375,4.375,0,0,1,1.059-3.043,3.394,3.394,0,0,1,2.629-1.176,3.008,3.008,0,0,1,2.43,1.016,4.234,4.234,0,0,1,.859,2.82ZM20.783-4.766a2.607,2.607,0,0,0-.535-1.727,1.823,1.823,0,0,0-1.465-.617,2.07,2.07,0,0,0-1.539.648,2.943,2.943,0,0,0-.781,1.7ZM30.863,0H29.581V-1.359H29.55A2.958,2.958,0,0,1,26.8.188,2.988,2.988,0,0,1,24.39-.887a4.407,4.407,0,0,1-.9-2.926,4.794,4.794,0,0,1,1-3.18,3.3,3.3,0,0,1,2.664-1.2,2.564,2.564,0,0,1,2.4,1.3h.031v-4.953h1.281ZM29.581-3.617V-4.8a2.289,2.289,0,0,0-.641-1.641,2.149,2.149,0,0,0-1.625-.672,2.212,2.212,0,0,0-1.844.859A3.766,3.766,0,0,0,24.8-3.875a3.387,3.387,0,0,0,.645,2.184,2.107,2.107,0,0,0,1.73.8,2.188,2.188,0,0,0,1.738-.773A2.882,2.882,0,0,0,29.581-3.617Zm4.533-6.414a.812.812,0,0,1-.586-.234.791.791,0,0,1-.242-.594.8.8,0,0,1,.242-.6.8.8,0,0,1,.586-.238.827.827,0,0,1,.6.238.8.8,0,0,1,.246.6.792.792,0,0,1-.246.586A.82.82,0,0,1,34.114-10.031ZM34.739,0H33.458V-8h1.281Zm3.908-1.156h-.031V0H37.335V-11.844h1.281v5.25h.031a3.03,3.03,0,0,1,2.766-1.594,2.932,2.932,0,0,1,2.41,1.074,4.436,4.436,0,0,1,.871,2.879,4.959,4.959,0,0,1-.977,3.215A3.251,3.251,0,0,1,41.045.188,2.631,2.631,0,0,1,38.647-1.156Zm-.031-3.227v1.117a2.379,2.379,0,0,0,.645,1.684A2.14,2.14,0,0,0,40.9-.891a2.145,2.145,0,0,0,1.824-.891,4.086,4.086,0,0,0,.66-2.477,3.225,3.225,0,0,0-.617-2.094,2.043,2.043,0,0,0-1.672-.758,2.27,2.27,0,0,0-1.8.777A2.854,2.854,0,0,0,38.616-4.383ZM48.024,0H46.742V-11.844h1.281Zm9.025-3.68H51.4a2.992,2.992,0,0,0,.719,2.063,2.478,2.478,0,0,0,1.891.727,3.931,3.931,0,0,0,2.484-.891v1.2A4.643,4.643,0,0,1,53.7.188,3.381,3.381,0,0,1,51.041-.9a4.461,4.461,0,0,1-.969-3.066,4.375,4.375,0,0,1,1.059-3.043A3.394,3.394,0,0,1,53.76-8.187a3.008,3.008,0,0,1,2.43,1.016,4.234,4.234,0,0,1,.859,2.82ZM55.736-4.766A2.607,2.607,0,0,0,55.2-6.492a1.823,1.823,0,0,0-1.465-.617,2.07,2.07,0,0,0-1.539.648,2.943,2.943,0,0,0-.781,1.7ZM58.5-.289V-1.664a3.792,3.792,0,0,0,2.3.773q1.688,0,1.688-1.125a.976.976,0,0,0-.145-.543,1.44,1.44,0,0,0-.391-.395,3.007,3.007,0,0,0-.578-.309q-.332-.137-.715-.285a9.207,9.207,0,0,1-.934-.426,2.82,2.82,0,0,1-.672-.484,1.8,1.8,0,0,1-.406-.613,2.17,2.17,0,0,1-.137-.8,1.912,1.912,0,0,1,.258-1,2.286,2.286,0,0,1,.688-.727,3.206,3.206,0,0,1,.98-.441,4.349,4.349,0,0,1,1.137-.148,4.59,4.59,0,0,1,1.859.359v1.3a3.624,3.624,0,0,0-2.031-.578,2.374,2.374,0,0,0-.648.082,1.587,1.587,0,0,0-.5.23,1.065,1.065,0,0,0-.32.355.936.936,0,0,0-.113.457,1.1,1.1,0,0,0,.113.523,1.152,1.152,0,0,0,.332.375,2.538,2.538,0,0,0,.531.3q.312.133.711.289a9.894,9.894,0,0,1,.953.418,3.269,3.269,0,0,1,.719.484,1.893,1.893,0,0,1,.457.621,2,2,0,0,1,.16.836,1.971,1.971,0,0,1-.262,1.031,2.243,2.243,0,0,1-.7.727,3.2,3.2,0,0,1-1.008.43,4.976,4.976,0,0,1-1.2.141A4.539,4.539,0,0,1,58.5-.289Z" transform="translate(662.119 2855.617)" fill="#212429"/>
      <path id="Trazado_1050467" data-name="Trazado 1050467" d="M10.141,0H8.688L7.5-3.141H2.75L1.633,0H.172l4.3-11.2H5.828ZM7.07-4.32,5.313-9.094a4.571,4.571,0,0,1-.172-.75H5.109a4.185,4.185,0,0,1-.18.75L3.188-4.32ZM12.9,0H11.619V-11.844H12.9Zm8.048-.367a4.163,4.163,0,0,1-2.187.555A3.622,3.622,0,0,1,16-.926a4.035,4.035,0,0,1-1.051-2.887,4.435,4.435,0,0,1,1.133-3.176,3.963,3.963,0,0,1,3.023-1.2,4.209,4.209,0,0,1,1.859.391v1.313a3.258,3.258,0,0,0-1.906-.625,2.576,2.576,0,0,0-2.012.879,3.335,3.335,0,0,0-.785,2.309A3.176,3.176,0,0,0,17-1.7a2.545,2.545,0,0,0,1.98.813,3.211,3.211,0,0,0,1.969-.7ZM28.614,0H27.333V-1.25H27.3A2.682,2.682,0,0,1,24.841.188,2.63,2.63,0,0,1,22.97-.445a2.192,2.192,0,0,1-.676-1.68q0-2.242,2.641-2.609l2.4-.336q0-2.039-1.648-2.039a3.938,3.938,0,0,0-2.609.984V-7.437a4.958,4.958,0,0,1,2.719-.75q2.82,0,2.82,2.984ZM27.333-4.047l-1.93.266a3.133,3.133,0,0,0-1.344.441,1.273,1.273,0,0,0-.453,1.121,1.221,1.221,0,0,0,.418.957,1.615,1.615,0,0,0,1.113.371,2.056,2.056,0,0,0,1.574-.668,2.387,2.387,0,0,0,.621-1.691ZM37.67,0H36.389V-4.562q0-2.547-1.859-2.547a2.017,2.017,0,0,0-1.59.723,2.679,2.679,0,0,0-.629,1.824V0H31.03V-8h1.281v1.328h.031a2.887,2.887,0,0,1,2.625-1.516,2.448,2.448,0,0,1,2.008.848,3.776,3.776,0,0,1,.7,2.449Zm7.994-7.633L40.93-1.094h4.688V0h-6.57V-.4l4.734-6.508H39.492V-8h6.172ZM53.049,0H51.767V-1.25h-.031A2.682,2.682,0,0,1,49.275.188,2.63,2.63,0,0,1,47.4-.445a2.192,2.192,0,0,1-.676-1.68q0-2.242,2.641-2.609l2.4-.336q0-2.039-1.648-2.039a3.938,3.938,0,0,0-2.609.984V-7.437a4.958,4.958,0,0,1,2.719-.75q2.82,0,2.82,2.984ZM51.767-4.047l-1.93.266a3.133,3.133,0,0,0-1.344.441,1.273,1.273,0,0,0-.453,1.121,1.221,1.221,0,0,0,.418.957,1.615,1.615,0,0,0,1.113.371,2.056,2.056,0,0,0,1.574-.668,2.387,2.387,0,0,0,.621-1.691Zm5.009,2.891h-.031V0H55.464V-11.844h1.281v5.25h.031a3.03,3.03,0,0,1,2.766-1.594,2.932,2.932,0,0,1,2.41,1.074,4.436,4.436,0,0,1,.871,2.879,4.959,4.959,0,0,1-.977,3.215A3.251,3.251,0,0,1,59.175.188,2.631,2.631,0,0,1,56.777-1.156Zm-.031-3.227v1.117a2.379,2.379,0,0,0,.645,1.684,2.14,2.14,0,0,0,1.637.691,2.145,2.145,0,0,0,1.824-.891,4.086,4.086,0,0,0,.66-2.477,3.225,3.225,0,0,0-.617-2.094,2.043,2.043,0,0,0-1.672-.758,2.27,2.27,0,0,0-1.8.777A2.854,2.854,0,0,0,56.746-4.383ZM66.153,0H64.872V-11.844h1.281Zm9.025-3.68H69.53a2.992,2.992,0,0,0,.719,2.063,2.478,2.478,0,0,0,1.891.727,3.931,3.931,0,0,0,2.484-.891v1.2a4.643,4.643,0,0,1-2.789.766A3.381,3.381,0,0,1,69.171-.9,4.461,4.461,0,0,1,68.2-3.969,4.375,4.375,0,0,1,69.26-7.012a3.394,3.394,0,0,1,2.629-1.176,3.008,3.008,0,0,1,2.43,1.016,4.234,4.234,0,0,1,.859,2.82ZM73.866-4.766a2.607,2.607,0,0,0-.535-1.727,1.823,1.823,0,0,0-1.465-.617,2.07,2.07,0,0,0-1.539.648,2.943,2.943,0,0,0-.781,1.7ZM76.633-.289V-1.664a3.792,3.792,0,0,0,2.3.773q1.688,0,1.688-1.125a.976.976,0,0,0-.145-.543,1.44,1.44,0,0,0-.391-.395,3.007,3.007,0,0,0-.578-.309Q79.18-3.4,78.8-3.547a9.207,9.207,0,0,1-.934-.426,2.82,2.82,0,0,1-.672-.484,1.8,1.8,0,0,1-.406-.613,2.17,2.17,0,0,1-.137-.8,1.912,1.912,0,0,1,.258-1,2.286,2.286,0,0,1,.688-.727,3.206,3.206,0,0,1,.98-.441,4.349,4.349,0,0,1,1.137-.148,4.59,4.59,0,0,1,1.859.359v1.3a3.624,3.624,0,0,0-2.031-.578,2.374,2.374,0,0,0-.648.082,1.587,1.587,0,0,0-.5.23,1.065,1.065,0,0,0-.32.355.936.936,0,0,0-.113.457,1.1,1.1,0,0,0,.113.523,1.152,1.152,0,0,0,.332.375,2.538,2.538,0,0,0,.531.3q.313.133.711.289a9.9,9.9,0,0,1,.953.418,3.269,3.269,0,0,1,.719.484,1.893,1.893,0,0,1,.457.621,2,2,0,0,1,.16.836,1.971,1.971,0,0,1-.262,1.031,2.243,2.243,0,0,1-.7.727,3.2,3.2,0,0,1-1.008.43,4.976,4.976,0,0,1-1.2.141A4.539,4.539,0,0,1,76.633-.289Z" transform="translate(793.119 2855.617)" fill="#212429"/>
      <path id="Trazado_1050468" data-name="Trazado 1050468" d="M9.5,0H7.938L6.063-3.141a6.84,6.84,0,0,0-.5-.746,2.85,2.85,0,0,0-.5-.5,1.718,1.718,0,0,0-.547-.285,2.249,2.249,0,0,0-.66-.09H2.781V0H1.469V-11.2H4.813a4.765,4.765,0,0,1,1.355.184,3.033,3.033,0,0,1,1.078.559,2.6,2.6,0,0,1,.715.934,3.1,3.1,0,0,1,.258,1.309,3.151,3.151,0,0,1-.176,1.074,2.805,2.805,0,0,1-.5.871,3.031,3.031,0,0,1-.781.652A3.988,3.988,0,0,1,5.734-5.2v.031a2.363,2.363,0,0,1,.488.285,2.687,2.687,0,0,1,.395.379,5.019,5.019,0,0,1,.371.5q.184.277.41.645ZM2.781-10.016v4.063H4.563a2.7,2.7,0,0,0,.91-.148A2.107,2.107,0,0,0,6.2-6.527a1.931,1.931,0,0,0,.477-.68,2.275,2.275,0,0,0,.172-.9,1.756,1.756,0,0,0-.582-1.4,2.5,2.5,0,0,0-1.684-.5ZM16.83-3.68H11.181A2.992,2.992,0,0,0,11.9-1.617a2.478,2.478,0,0,0,1.891.727,3.931,3.931,0,0,0,2.484-.891v1.2a4.643,4.643,0,0,1-2.789.766A3.381,3.381,0,0,1,10.822-.9a4.461,4.461,0,0,1-.969-3.066,4.375,4.375,0,0,1,1.059-3.043,3.394,3.394,0,0,1,2.629-1.176,3.008,3.008,0,0,1,2.43,1.016,4.234,4.234,0,0,1,.859,2.82ZM15.517-4.766a2.607,2.607,0,0,0-.535-1.727,1.823,1.823,0,0,0-1.465-.617,2.07,2.07,0,0,0-1.539.648,2.943,2.943,0,0,0-.781,1.7ZM20.05,0H18.769V-11.844H20.05Zm9.025-3.68H23.427a2.992,2.992,0,0,0,.719,2.063,2.478,2.478,0,0,0,1.891.727,3.931,3.931,0,0,0,2.484-.891v1.2a4.643,4.643,0,0,1-2.789.766A3.381,3.381,0,0,1,23.067-.9,4.461,4.461,0,0,1,22.1-3.969a4.375,4.375,0,0,1,1.059-3.043,3.394,3.394,0,0,1,2.629-1.176,3.008,3.008,0,0,1,2.43,1.016,4.234,4.234,0,0,1,.859,2.82ZM27.763-4.766a2.607,2.607,0,0,0-.535-1.727,1.823,1.823,0,0,0-1.465-.617,2.07,2.07,0,0,0-1.539.648,2.943,2.943,0,0,0-.781,1.7ZM37.3-8,34.116,0H32.858L29.827-8h1.406l2.031,5.813a5.217,5.217,0,0,1,.281,1.117h.031a5.283,5.283,0,0,1,.25-1.086L35.952-8Zm7.1,8H43.125V-1.25h-.031A2.682,2.682,0,0,1,40.633.188a2.63,2.63,0,0,1-1.871-.633,2.192,2.192,0,0,1-.676-1.68q0-2.242,2.641-2.609l2.4-.336q0-2.039-1.648-2.039a3.938,3.938,0,0,0-2.609.984V-7.437a4.958,4.958,0,0,1,2.719-.75q2.82,0,2.82,2.984ZM43.125-4.047l-1.93.266a3.133,3.133,0,0,0-1.344.441A1.273,1.273,0,0,0,39.4-2.219a1.221,1.221,0,0,0,.418.957,1.615,1.615,0,0,0,1.113.371A2.056,2.056,0,0,0,42.5-1.559a2.387,2.387,0,0,0,.621-1.691ZM53.463,0H52.181V-4.562q0-2.547-1.859-2.547a2.017,2.017,0,0,0-1.59.723A2.679,2.679,0,0,0,48.1-4.562V0H46.822V-8H48.1v1.328h.031A2.887,2.887,0,0,1,50.76-8.187a2.448,2.448,0,0,1,2.008.848,3.776,3.776,0,0,1,.7,2.449Zm6.127-.078a2.47,2.47,0,0,1-1.2.25q-2.1,0-2.1-2.344V-6.906H54.917V-8h1.375V-9.953l1.281-.414V-8h2.016v1.094H57.574V-2.4a1.869,1.869,0,0,0,.273,1.148,1.091,1.091,0,0,0,.906.344,1.347,1.347,0,0,0,.836-.266Zm8.142-3.6H62.083A2.992,2.992,0,0,0,62.8-1.617a2.478,2.478,0,0,0,1.891.727,3.931,3.931,0,0,0,2.484-.891v1.2a4.643,4.643,0,0,1-2.789.766A3.381,3.381,0,0,1,61.724-.9a4.461,4.461,0,0,1-.969-3.066,4.375,4.375,0,0,1,1.059-3.043,3.394,3.394,0,0,1,2.629-1.176,3.008,3.008,0,0,1,2.43,1.016,4.234,4.234,0,0,1,.859,2.82ZM66.419-4.766a2.607,2.607,0,0,0-.535-1.727,1.823,1.823,0,0,0-1.465-.617,2.07,2.07,0,0,0-1.539.648,2.943,2.943,0,0,0-.781,1.7ZM69.186-.289V-1.664a3.792,3.792,0,0,0,2.3.773q1.688,0,1.688-1.125a.976.976,0,0,0-.145-.543,1.44,1.44,0,0,0-.391-.395,3.007,3.007,0,0,0-.578-.309q-.332-.137-.715-.285a9.207,9.207,0,0,1-.934-.426,2.82,2.82,0,0,1-.672-.484,1.8,1.8,0,0,1-.406-.613,2.17,2.17,0,0,1-.137-.8,1.912,1.912,0,0,1,.258-1,2.286,2.286,0,0,1,.688-.727,3.206,3.206,0,0,1,.98-.441,4.349,4.349,0,0,1,1.137-.148,4.59,4.59,0,0,1,1.859.359v1.3a3.624,3.624,0,0,0-2.031-.578,2.374,2.374,0,0,0-.648.082,1.587,1.587,0,0,0-.5.23,1.065,1.065,0,0,0-.32.355.936.936,0,0,0-.113.457,1.1,1.1,0,0,0,.113.523,1.152,1.152,0,0,0,.332.375,2.538,2.538,0,0,0,.531.3q.313.133.711.289a9.9,9.9,0,0,1,.953.418,3.269,3.269,0,0,1,.719.484,1.893,1.893,0,0,1,.457.621,2,2,0,0,1,.16.836,1.971,1.971,0,0,1-.262,1.031,2.243,2.243,0,0,1-.7.727,3.2,3.2,0,0,1-1.008.43,4.976,4.976,0,0,1-1.2.141A4.539,4.539,0,0,1,69.186-.289Z" transform="translate(935.119 2855.617)" fill="#212429"/>
      <path id="Trazado_1050469" data-name="Trazado 1050469" d="M8.094-10.016H4.859V0H3.547V-10.016H.32V-11.2H8.094ZM14.548-3.68H8.9a2.992,2.992,0,0,0,.719,2.063,2.478,2.478,0,0,0,1.891.727,3.931,3.931,0,0,0,2.484-.891v1.2A4.643,4.643,0,0,1,11.2.188,3.381,3.381,0,0,1,8.541-.9a4.461,4.461,0,0,1-.969-3.066A4.375,4.375,0,0,1,8.631-7.012a3.394,3.394,0,0,1,2.629-1.176,3.008,3.008,0,0,1,2.43,1.016,4.234,4.234,0,0,1,.859,2.82ZM13.236-4.766A2.607,2.607,0,0,0,12.7-6.492a1.823,1.823,0,0,0-1.465-.617A2.07,2.07,0,0,0,9.7-6.461a2.943,2.943,0,0,0-.781,1.7ZM27.847,0H26.566V-4.594a3.466,3.466,0,0,0-.41-1.922,1.555,1.555,0,0,0-1.379-.594,1.708,1.708,0,0,0-1.395.75,2.869,2.869,0,0,0-.574,1.8V0H21.527V-4.75q0-2.359-1.82-2.359a1.686,1.686,0,0,0-1.391.707,2.923,2.923,0,0,0-.547,1.84V0H16.488V-8h1.281v1.266H17.8a2.718,2.718,0,0,1,2.484-1.453,2.316,2.316,0,0,1,1.43.457,2.3,2.3,0,0,1,.836,1.2,2.855,2.855,0,0,1,2.656-1.656q2.641,0,2.641,3.258Zm3.736-1.156h-.031V3.68H30.27V-8h1.281v1.406h.031a3.03,3.03,0,0,1,2.766-1.594,2.93,2.93,0,0,1,2.414,1.074,4.449,4.449,0,0,1,.867,2.879,4.959,4.959,0,0,1-.977,3.215A3.251,3.251,0,0,1,33.981.188,2.676,2.676,0,0,1,31.583-1.156Zm-.031-3.227v1.117A2.379,2.379,0,0,0,32.2-1.582a2.14,2.14,0,0,0,1.637.691,2.145,2.145,0,0,0,1.824-.891,4.086,4.086,0,0,0,.66-2.477A3.225,3.225,0,0,0,35.7-6.352a2.043,2.043,0,0,0-1.672-.758,2.27,2.27,0,0,0-1.8.777A2.854,2.854,0,0,0,31.552-4.383ZM43.022.188A3.711,3.711,0,0,1,40.19-.934a4.153,4.153,0,0,1-1.059-2.973,4.326,4.326,0,0,1,1.1-3.148A3.96,3.96,0,0,1,43.21-8.187,3.588,3.588,0,0,1,46-7.086a4.368,4.368,0,0,1,1,3.055A4.3,4.3,0,0,1,45.924-.965,3.791,3.791,0,0,1,43.022.188Zm.094-7.3a2.437,2.437,0,0,0-1.953.84,3.449,3.449,0,0,0-.719,2.316,3.262,3.262,0,0,0,.727,2.242,2.469,2.469,0,0,0,1.945.82,2.342,2.342,0,0,0,1.91-.8,3.492,3.492,0,0,0,.668-2.289A3.552,3.552,0,0,0,45.026-6.3,2.332,2.332,0,0,0,43.116-7.109ZM53.227-6.7a1.567,1.567,0,0,0-.969-.258,1.635,1.635,0,0,0-1.371.773,3.576,3.576,0,0,0-.551,2.109V0H49.055V-8h1.281v1.648h.031A2.794,2.794,0,0,1,51.2-7.668a1.906,1.906,0,0,1,1.258-.473,2.092,2.092,0,0,1,.766.109ZM60.346,0H59.064V-1.25h-.031A2.682,2.682,0,0,1,56.572.188,2.63,2.63,0,0,1,54.7-.445a2.192,2.192,0,0,1-.676-1.68q0-2.242,2.641-2.609l2.4-.336q0-2.039-1.648-2.039a3.938,3.938,0,0,0-2.609.984V-7.437a4.958,4.958,0,0,1,2.719-.75q2.82,0,2.82,2.984ZM59.064-4.047l-1.93.266a3.133,3.133,0,0,0-1.344.441,1.273,1.273,0,0,0-.453,1.121,1.221,1.221,0,0,0,.418.957,1.615,1.615,0,0,0,1.113.371,2.056,2.056,0,0,0,1.574-.668,2.387,2.387,0,0,0,.621-1.691ZM64.042,0H62.761V-11.844h1.281Zm9.025-3.68H67.419a2.992,2.992,0,0,0,.719,2.063,2.478,2.478,0,0,0,1.891.727,3.931,3.931,0,0,0,2.484-.891v1.2a4.643,4.643,0,0,1-2.789.766A3.381,3.381,0,0,1,67.06-.9a4.461,4.461,0,0,1-.969-3.066A4.375,4.375,0,0,1,67.15-7.012a3.394,3.394,0,0,1,2.629-1.176,3.008,3.008,0,0,1,2.43,1.016,4.234,4.234,0,0,1,.859,2.82ZM71.755-4.766a2.607,2.607,0,0,0-.535-1.727,1.823,1.823,0,0,0-1.465-.617,2.07,2.07,0,0,0-1.539.648,2.943,2.943,0,0,0-.781,1.7ZM74.522-.289V-1.664a3.792,3.792,0,0,0,2.3.773q1.688,0,1.688-1.125a.976.976,0,0,0-.145-.543,1.44,1.44,0,0,0-.391-.395,3.007,3.007,0,0,0-.578-.309q-.332-.137-.715-.285a9.207,9.207,0,0,1-.934-.426,2.82,2.82,0,0,1-.672-.484,1.8,1.8,0,0,1-.406-.613,2.17,2.17,0,0,1-.137-.8,1.912,1.912,0,0,1,.258-1,2.286,2.286,0,0,1,.688-.727,3.206,3.206,0,0,1,.98-.441A4.349,4.349,0,0,1,77.6-8.187a4.59,4.59,0,0,1,1.859.359v1.3a3.624,3.624,0,0,0-2.031-.578,2.374,2.374,0,0,0-.648.082,1.587,1.587,0,0,0-.5.23,1.065,1.065,0,0,0-.32.355.936.936,0,0,0-.113.457,1.1,1.1,0,0,0,.113.523,1.152,1.152,0,0,0,.332.375,2.538,2.538,0,0,0,.531.3q.313.133.711.289a9.9,9.9,0,0,1,.953.418,3.269,3.269,0,0,1,.719.484,1.893,1.893,0,0,1,.457.621,2,2,0,0,1,.16.836,1.971,1.971,0,0,1-.262,1.031,2.243,2.243,0,0,1-.7.727,3.2,3.2,0,0,1-1.008.43,4.976,4.976,0,0,1-1.2.141A4.539,4.539,0,0,1,74.522-.289Z" transform="translate(1065.873 2855.617)" fill="#212429"/>
      <g id="Layer_x0020_1" transform="translate(526.873 2869.997)">
        <g id="Grupo_1208737" data-name="Grupo 1208737" transform="translate(0 0)">
          <path id="Trazado_1049625" data-name="Trazado 1049625" d="M27.635,7.231a16.159,16.159,0,0,1,2.891,1.2l3.818-5.515.439.3-.44-.3a.536.536,0,0,1,.828-.065l7.7,7.7a.535.535,0,0,1-.111.843l-5.479,3.793a16.152,16.152,0,0,1,1.2,2.892l6.6-1.2v0a.536.536,0,0,1,.632.539V28.31a.534.534,0,0,1-.678.517l-6.553-1.192a16.148,16.148,0,0,1-1.2,2.891L42.8,34.344l-.3.439.3-.44a.536.536,0,0,1,.065.828l-7.7,7.7a.535.535,0,0,1-.843-.111l-3.793-5.479a16.179,16.179,0,0,1-2.892,1.2l1.2,6.6h0a.536.536,0,0,1-.539.632H17.4a.534.534,0,0,1-.517-.678l1.192-6.553a16.174,16.174,0,0,1-2.891-1.2L11.369,42.8l-.439-.3.44.3a.536.536,0,0,1-.828.065l-7.7-7.7a.535.535,0,0,1,.111-.843l5.479-3.793a16.16,16.16,0,0,1-1.2-2.892l-6.6,1.2v0A.536.536,0,0,1,0,28.3V17.4a.534.534,0,0,1,.678-.517l6.553,1.192a16.166,16.166,0,0,1,1.2-2.891L2.914,11.369l.3-.439-.3.44a.536.536,0,0,1-.065-.828l7.7-7.7a.535.535,0,0,1,.843.111l3.794,5.48a16.182,16.182,0,0,1,2.891-1.2l-1.2-6.6h0A.536.536,0,0,1,17.415,0H28.31a.534.534,0,0,1,.517.678L27.635,7.231ZM28.7,8.747l-1.77-.61a.536.536,0,0,1-.431-.623h0L27.67,1.071H18.043l1.163,6.4a.536.536,0,0,1-.376.658v0a15.373,15.373,0,0,0-3.523,1.46.536.536,0,0,1-.724-.149l.44-.3-.439.3L10.856,4.049,4.049,10.856l5.35,3.7a.536.536,0,0,1,.2.729h0a15.965,15.965,0,0,0-1.458,3.5.536.536,0,0,1-.623.431v0L1.071,18.043V27.67l6.4-1.163a.536.536,0,0,1,.658.376h0a15.378,15.378,0,0,0,1.459,3.522.536.536,0,0,1-.149.725l-.3-.44.3.439L4.049,34.857l6.807,6.807,3.7-5.351a.536.536,0,0,1,.729-.2h0a15.958,15.958,0,0,0,3.5,1.458.536.536,0,0,1,.431.623h0l-1.172,6.443H27.67l-1.163-6.4a.536.536,0,0,1,.376-.658v0a15.379,15.379,0,0,0,3.522-1.46.536.536,0,0,1,.725.149l-.44.3.439-.3,3.727,5.384,6.807-6.807-5.351-3.7a.536.536,0,0,1-.2-.729h0a15.944,15.944,0,0,0,1.458-3.5A.536.536,0,0,1,38.2,26.5v0l6.443,1.172V18.043l-6.4,1.163a.536.536,0,0,1-.658-.376h0a15.381,15.381,0,0,0-1.459-3.522.536.536,0,0,1,.149-.725l.3.44-.3-.439,5.384-3.727L34.857,4.049,31.153,9.4a.536.536,0,0,1-.729.2h0A15.232,15.232,0,0,0,28.7,8.747Z" transform="translate(0 0)"/>
          <path id="Trazado_1049626" data-name="Trazado 1049626" d="M12.8.39A12.405,12.405,0,1,1,.39,12.8,12.405,12.405,0,0,1,12.8.39ZM20.81,4.781a11.334,11.334,0,1,0,0,16.029,11.334,11.334,0,0,0,0-16.029Z" transform="translate(10.061 10.061)"/>
          <path id="Trazado_1049627" data-name="Trazado 1049627" d="M1.4,5.706a.536.536,0,0,0-.758.758l6.118,6.118a.536.536,0,0,0,.758,0L18.531,1.57a.536.536,0,0,0-.758-.758L7.14,11.446,1.4,5.706Z" transform="translate(12.375 16.734)"/>
        </g>
        <path id="Trazado_1049628" data-name="Trazado 1049628" d="M1.925,12.106a.536.536,0,0,1,.758-.758l5.739,5.74L19.056,6.454a.536.536,0,0,1,.758.758L8.8,18.224a.536.536,0,0,1-.758,0L1.925,12.106ZM19.778,3.75a11.334,11.334,0,1,0,0,16.029,11.334,11.334,0,0,0,0-16.029Z" transform="translate(11.092 11.092)" fill="#fff" fill-rule="evenodd"/>
        <path id="Trazado_1049629" data-name="Trazado 1049629" d="M9.42,21.825A12.405,12.405,0,1,1,21.825,34.23,12.405,12.405,0,0,1,9.42,21.825ZM27.666,7.715l-1.77-.61a.536.536,0,0,1-.431-.623h0L26.639.04H17.011l1.163,6.4A.536.536,0,0,1,17.8,7.1v0a15.373,15.373,0,0,0-3.523,1.46.536.536,0,0,1-.724-.149h0L9.824,3.017,3.017,9.824l5.35,3.7a.535.535,0,0,1,.2.729,15.965,15.965,0,0,0-1.458,3.5.536.536,0,0,1-.623.431v0L.04,17.011v9.627l6.4-1.163a.536.536,0,0,1,.658.376h0a15.378,15.378,0,0,0,1.459,3.522A.536.536,0,0,1,8.4,30.1h0L3.017,33.826l6.807,6.807,3.7-5.351a.535.535,0,0,1,.729-.2,15.958,15.958,0,0,0,3.5,1.458.536.536,0,0,1,.431.623h0L17.011,43.61h9.627l-1.163-6.4a.536.536,0,0,1,.376-.658v0a15.379,15.379,0,0,0,3.522-1.46.536.536,0,0,1,.725.149h0l3.727,5.384,6.807-6.807-5.351-3.7a.535.535,0,0,1-.2-.729,15.944,15.944,0,0,0,1.458-3.5.536.536,0,0,1,.623-.431v0l6.443,1.172V17.011l-6.4,1.163a.536.536,0,0,1-.658-.376h0A15.381,15.381,0,0,0,35.1,14.276a.536.536,0,0,1,.149-.725h0l5.384-3.727L33.826,3.017l-3.7,5.351a.535.535,0,0,1-.729.2,15.232,15.232,0,0,0-1.727-.848Z" transform="translate(1.031 1.031)" fill="#efc416" fill-rule="evenodd"/>
      </g>
      <g id="speed_7419941" transform="translate(664.763 2862.502)">
        <path id="Trazado_1049630" data-name="Trazado 1049630" d="M188.351,30.351A22.858,22.858,0,0,0,163.764,7.56,29.243,29.243,0,0,0,158.3,37.586c2.241,5.667,7.47,12.251,14.71,14.355A22.864,22.864,0,0,0,188.351,30.351Z" transform="translate(-135.139 0)" fill="#4b73a6"/>
        <g id="Grupo_1208740" data-name="Grupo 1208740" transform="translate(7.5 7.56)">
          <g id="Grupo_1208739" data-name="Grupo 1208739" transform="translate(0 0)">
            <g id="Grupo_1208738" data-name="Grupo 1208738">
              <path id="Trazado_1049631" data-name="Trazado 1049631" d="M28.626,8.2a22.857,22.857,0,1,0,9.247,44.381C26.192,41.206,21.955,22.45,28.626,8.2Z" transform="translate(-7.5 -8.205)" fill="#225a9d"/>
            </g>
          </g>
        </g>
        <path id="Trazado_1049632" data-name="Trazado 1049632" d="M162.616,52.948c-8.085,7.528-7.21,17.307.285,25.625l6.394,2.774a9.392,9.392,0,0,1,5.806,6.443,18.75,18.75,0,0,0-12.485-34.842Z" transform="translate(-135.666 -40.987)" fill="#eeecff"/>
        <g id="Grupo_1208743" data-name="Grupo 1208743" transform="translate(11.609 11.96)">
          <g id="Grupo_1208742" data-name="Grupo 1208742">
            <g id="Grupo_1208741" data-name="Grupo 1208741">
              <path id="Trazado_1049633" data-name="Trazado 1049633" d="M67.521,56.048A18.75,18.75,0,0,0,61.848,90.89a9.392,9.392,0,0,1,5.806-6.443l.969-3.717A39.22,39.22,0,0,1,67.521,56.048Z" transform="translate(-52.18 -56.048)" fill="#d3d3ff"/>
            </g>
          </g>
        </g>
        <path id="Trazado_1049634" data-name="Trazado 1049634" d="M335.841,257.847h5.886a14.642,14.642,0,0,1-2.049,7.494,2.943,2.943,0,0,1-5.07-2.991A8.789,8.789,0,0,0,335.841,257.847Z" transform="translate(-296.656 -227.326)" fill="#009b5e"/>
        <path id="Trazado_1049635" data-name="Trazado 1049635" d="M332.346,155.127H326.46a8.8,8.8,0,0,0-2.586-6.243l4.162-4.162A14.67,14.67,0,0,1,332.346,155.127Z" transform="translate(-287.275 -124.606)" fill="#00b65c"/>
        <path id="Trazado_1049636" data-name="Trazado 1049636" d="M266.4,102.174l-4.162,4.162A8.8,8.8,0,0,0,256,103.749V97.864A14.668,14.668,0,0,1,266.4,102.174Z" transform="translate(-225.644 -82.058)" fill="#ffc94b"/>
        <g id="Grupo_1208744" data-name="Grupo 1208744" transform="translate(26.073 33.122)">
          <circle id="Elipse_12589" data-name="Elipse 12589" cx="1.385" cy="1.385" r="1.385" transform="translate(2.898 10.389)" fill="none"/>
          <path id="Trazado_1049637" data-name="Trazado 1049637" d="M237.4,296.689l-2.407-9.228a1.794,1.794,0,0,0-3.47,0l-.569,2.181a31.991,31.991,0,0,0,5.757,10.655A4.252,4.252,0,0,0,237.4,296.689Z" transform="translate(-228.973 -286.121)" fill="#ff6e81"/>
          <path id="Trazado_1049638" data-name="Trazado 1049638" d="M211.414,324.4l-1.838,7.048a4.279,4.279,0,0,0,7.6,3.608A42.206,42.206,0,0,1,211.414,324.4Zm2.3,6.868a1.385,1.385,0,1,1-1.385,1.385A1.386,1.386,0,0,1,213.718,331.268Z" transform="translate(-209.435 -320.879)" fill="#ff455f"/>
        </g>
        <path id="Trazado_1049639" data-name="Trazado 1049639" d="M142.875,102.174l4.162,4.162a8.808,8.808,0,0,1,6.243-2.587V97.864A14.673,14.673,0,0,0,142.875,102.174Z" transform="translate(-122.924 -82.058)" fill="#fbe95e"/>
        <path id="Trazado_1049640" data-name="Trazado 1049640" d="M100.326,144.722l4.162,4.162a8.8,8.8,0,0,0-2.586,6.243H96.016A14.67,14.67,0,0,1,100.326,144.722Z" transform="translate(-80.375 -124.606)" fill="#ff455f"/>
        <path id="Trazado_1049641" data-name="Trazado 1049641" d="M103.135,262.35a2.943,2.943,0,0,1-5.07,2.991,14.642,14.642,0,0,1-2.049-7.494H101.9A8.789,8.789,0,0,0,103.135,262.35Z" transform="translate(-80.375 -227.326)" fill="#ff6e81"/>
        <g id="Grupo_1208745" data-name="Grupo 1208745" transform="translate(7.5 7.495)">
          <circle id="Elipse_12590" data-name="Elipse 12590" cx="22.856" cy="22.856" r="22.856" transform="translate(0)" fill="none" stroke="#000" stroke-linecap="round" stroke-linejoin="round" stroke-miterlimit="10" stroke-width="1"/>
          <path id="Trazado_1049642" data-name="Trazado 1049642" d="M188.127,164.438a8.8,8.8,0,0,1,6.243-2.587" transform="translate(-171.514 -147.654)" fill="none" stroke="#000" stroke-linecap="round" stroke-linejoin="round" stroke-miterlimit="10" stroke-width="1"/>
          <path id="Trazado_1049643" data-name="Trazado 1049643" d="M153.28,97.864a14.667,14.667,0,0,0-10.4,4.31" transform="translate(-130.424 -89.553)" fill="none" stroke="#000" stroke-linecap="round" stroke-linejoin="round" stroke-miterlimit="10" stroke-width="1"/>
          <path id="Trazado_1049644" data-name="Trazado 1049644" d="M266.4,102.174a14.668,14.668,0,0,0-10.4-4.31v5.885a8.8,8.8,0,0,1,6.243,2.587" transform="translate(-233.144 -89.553)" fill="none" stroke="#000" stroke-linecap="round" stroke-linejoin="round" stroke-miterlimit="10" stroke-width="1"/>
          <path id="Trazado_1049645" data-name="Trazado 1049645" d="M101.9,155.127a8.8,8.8,0,0,1,2.586-6.243l-4.162-4.162a14.669,14.669,0,0,0-4.31,10.4" transform="translate(-87.875 -132.101)" fill="none" stroke="#000" stroke-linecap="round" stroke-linejoin="round" stroke-miterlimit="10" stroke-width="1"/>
          <path id="Trazado_1049646" data-name="Trazado 1049646" d="M332.345,155.127a14.67,14.67,0,0,0-4.31-10.4l-4.162,4.162a8.8,8.8,0,0,1,2.586,6.243" transform="translate(-294.774 -132.101)" fill="none" stroke="#000" stroke-linecap="round" stroke-linejoin="round" stroke-miterlimit="10" stroke-width="1"/>
          <path id="Trazado_1049647" data-name="Trazado 1049647" d="M101.9,257.847H96.016a14.642,14.642,0,0,0,2.049,7.494,2.943,2.943,0,0,0,5.07-2.991A8.789,8.789,0,0,1,101.9,257.847Z" transform="translate(-87.875 -234.821)" fill="none" stroke="#000" stroke-linecap="round" stroke-linejoin="round" stroke-miterlimit="10" stroke-width="1"/>
          <path id="Trazado_1049648" data-name="Trazado 1049648" d="M335.841,257.847a8.79,8.79,0,0,1-1.233,4.5,2.943,2.943,0,0,0,5.07,2.991,14.642,14.642,0,0,0,2.049-7.494Z" transform="translate(-304.157 -234.821)" fill="none" stroke="#000" stroke-linecap="round" stroke-linejoin="round" stroke-miterlimit="10" stroke-width="1"/>
          <path id="Trazado_1049649" data-name="Trazado 1049649" d="M74.2,81.39a9.392,9.392,0,0,1,5.806,6.443,18.747,18.747,0,1,0-18.157,0,9.392,9.392,0,0,1,5.806-6.443" transform="translate(-48.07 -48.526)" fill="none" stroke="#000" stroke-linecap="round" stroke-linejoin="round" stroke-miterlimit="10" stroke-width="1"/>
          <path id="Trazado_1049650" data-name="Trazado 1049650" d="M217.859,296.689a4.281,4.281,0,1,1-8.284,0l2.407-9.228a1.794,1.794,0,0,1,3.47,0Z" transform="translate(-190.861 -260.495)" fill="none" stroke="#000" stroke-linecap="round" stroke-linejoin="round" stroke-miterlimit="10" stroke-width="1"/>
          <circle id="Elipse_12591" data-name="Elipse 12591" cx="1.385" cy="1.385" r="1.385" transform="translate(21.471 36.016)" fill="none" stroke="#000" stroke-linecap="round" stroke-linejoin="round" stroke-miterlimit="10" stroke-width="1"/>
        </g>
      </g>
      <g id="_x35_1_x2C__Achievement_x2C__Business_x2C__Growth_x2C__Marketing_x2C__Mission" transform="translate(799.263 2853.997)">
        <g id="Grupo_1208747" data-name="Grupo 1208747" transform="translate(16 16)">
          <g id="Grupo_1208746" data-name="Grupo 1208746" transform="translate(0 0)">
            <path id="Trazado_1049651" data-name="Trazado 1049651" d="M320.762,216l.952,3.809H316l.952-3.809h3.809Z" transform="translate(-287.43 -196.953)" fill="#3c3b3d"/>
            <path id="Trazado_1049652" data-name="Trazado 1049652" d="M57.428,265.523v-5.714H68.856V256H80.284v21.9H46V265.523H57.428Z" transform="translate(-43.143 -233.144)" fill="#d7deed"/>
            <path id="Trazado_1049653" data-name="Trazado 1049653" d="M179.419,86l4.328,6.061h-2.6V106h-3.464V92.061h-2.6Z" transform="translate(-159.939 -79.334)" fill="#95a5a5"/>
            <path id="Trazado_1049654" data-name="Trazado 1049654" d="M346,26h11.428v9.523H346Z" transform="translate(-314.573 -25.048)" fill="#ef727a"/>
            <path id="Trazado_1049655" data-name="Trazado 1049655" d="M60.328,150.55l4.329,6.06h-2.6v13.506H58.6V156.61H56Z" transform="translate(-52.191 -137.736)" fill="#313a52"/>
            <path id="Trazado_1049656" data-name="Trazado 1049656" d="M404.571,477.9h-7.619a.952.952,0,1,1,0-1.9h7.619a.952.952,0,1,1,0,1.9Z" transform="translate(-359.811 -432.192)"/>
            <path id="Trazado_1049657" data-name="Trazado 1049657" d="M18.857,477.9h-1.9a.952.952,0,0,1,0-1.9h1.9a.952.952,0,0,1,0,1.9Z" transform="translate(-16 -432.192)"/>
            <path id="Trazado_1049658" data-name="Trazado 1049658" d="M71.237,269.809H36.952a.952.952,0,0,1-.952-.952V256.476a.952.952,0,0,1,.952-.952H47.428v-4.762a.952.952,0,0,1,.952-.952H59.809a.952.952,0,1,1,0,1.9H49.333v4.762a.952.952,0,0,1-.952.952H37.9V267.9h32.38v-20h-1.9a.952.952,0,0,1,0-1.9h2.857a.952.952,0,0,1,.952.952v21.9A.952.952,0,0,1,71.237,269.809Z" transform="translate(-34.095 -224.096)"/>
            <path id="Trazado_1049659" data-name="Trazado 1049659" d="M276.952,250.762a.952.952,0,0,1-.952-.952v-2.857a.952.952,0,0,1,.952-.952h2.857a.952.952,0,0,1,0,1.9h-1.9v1.9A.952.952,0,0,1,276.952,250.762Z" transform="translate(-251.239 -224.096)"/>
            <path id="Trazado_1049660" data-name="Trazado 1049660" d="M156.952,355.523a.952.952,0,0,1-.952-.952v-7.619a.952.952,0,0,1,1.9,0v7.619A.952.952,0,0,1,156.952,355.523Z" transform="translate(-142.667 -314.573)"/>
            <path id="Trazado_1049661" data-name="Trazado 1049661" d="M276.952,287.428a.952.952,0,0,1-.952-.952v-9.523a.952.952,0,1,1,1.9,0v9.523A.952.952,0,0,1,276.952,287.428Z" transform="translate(-251.239 -251.239)"/>
            <path id="Trazado_1049662" data-name="Trazado 1049662" d="M320.762,277.9h-3.809a.952.952,0,1,1,0-1.9h3.809a.952.952,0,1,1,0,1.9Z" transform="translate(-287.43 -251.239)"/>
            <path id="Trazado_1049663" data-name="Trazado 1049663" d="M80.762,377.9H76.952a.952.952,0,1,1,0-1.9h3.809a.952.952,0,1,1,0,1.9Z" transform="translate(-70.286 -341.716)"/>
            <path id="Trazado_1049664" data-name="Trazado 1049664" d="M200.762,317.9h-3.809a.952.952,0,1,1,0-1.9h3.809a.952.952,0,0,1,0,1.9Z" transform="translate(-178.858 -287.43)"/>
            <path id="Trazado_1049665" data-name="Trazado 1049665" d="M49.549,161.5a.952.952,0,0,1-.952-.952V148.514H46.952a.952.952,0,0,1-.775-1.506l4.328-6.06a.952.952,0,0,1,1.55,0l4.329,6.06a.952.952,0,0,1-.775,1.506H53.965v10.649a.952.952,0,0,1-1.9,0v-11.6a.952.952,0,0,1,.952-.952h.746l-2.478-3.469L48.8,146.61h.746a.952.952,0,0,1,.952.952v12.987A.952.952,0,0,1,49.549,161.5Z" transform="translate(-43.143 -128.689)"/>
            <path id="Trazado_1049666" data-name="Trazado 1049666" d="M110.592,329.29a.952.952,0,0,1-.952-.952v-1.386a.952.952,0,1,1,1.9,0v1.386A.952.952,0,0,1,110.592,329.29Z" transform="translate(-100.722 -296.477)"/>
            <path id="Trazado_1049667" data-name="Trazado 1049667" d="M168.639,96.952a.952.952,0,0,1-.952-.952V83.965h-1.645a.952.952,0,0,1-.775-1.506L169.6,76.4a.952.952,0,0,1,1.55,0l4.328,6.061a.952.952,0,0,1-.775,1.506h-1.645V94.615a.952.952,0,1,1-1.9,0v-11.6a.952.952,0,0,1,.952-.952h.747l-2.478-3.47-2.479,3.47h.746a.952.952,0,0,1,.952.952V96A.952.952,0,0,1,168.639,96.952Z" transform="translate(-150.891 -70.286)"/>
            <path id="Trazado_1049668" data-name="Trazado 1049668" d="M229.682,264.749a.952.952,0,0,1-.952-.952v-1.385a.952.952,0,1,1,1.9,0V263.8A.952.952,0,0,1,229.682,264.749Z" transform="translate(-208.471 -238.084)"/>
            <path id="Trazado_1049669" data-name="Trazado 1049669" d="M312.668,211.713h-5.716a.952.952,0,0,1-.924-1.183l.952-3.809A.952.952,0,0,1,307.9,206h3.809a.952.952,0,0,1,.924.721l.937,3.748a.953.953,0,0,1-.907,1.244Zm-4.5-1.9h3.275l-.476-1.9h-2.322Z" transform="translate(-278.382 -187.904)"/>
            <path id="Trazado_1049670" data-name="Trazado 1049670" d="M336.952,126.476a.952.952,0,0,1-.952-.952v-8.571a.952.952,0,1,1,1.9,0v8.571A.952.952,0,0,1,336.952,126.476Z" transform="translate(-305.525 -106.477)"/>
            <path id="Trazado_1049671" data-name="Trazado 1049671" d="M348.38,27.428H336.952a.952.952,0,0,1-.952-.952V16.952a.952.952,0,0,1,.952-.952H348.38a.952.952,0,0,1,.952.952v9.523A.952.952,0,0,1,348.38,27.428Zm-10.476-1.9h9.523V17.9H337.9Z" transform="translate(-305.525 -16)"/>
          </g>
        </g>
      </g>
      <g id="high-quality_18188160" transform="translate(946.061 2863.188)">
        <g id="Grupo_1208750" data-name="Grupo 1208750" transform="translate(12.874 32.357)">
          <path id="Trazado_1049673" data-name="Trazado 1049673" d="M22.63,60.647l-3.776,3.776,8.2,8.2c.351-.334.685-.668.736-.719a9.957,9.957,0,0,1,6.7-2.473h6.532a8.281,8.281,0,0,0,5.648-2.122l11.061-9.707a1.546,1.546,0,0,0,.585-1.287,1.643,1.643,0,0,0-.585-1.287,3.431,3.431,0,0,0-4.511,0l-8.555,7.485a1.049,1.049,0,0,0-.016-.317,3.413,3.413,0,0,0-3.392-2.958h-5.2a6,6,0,0,1-2.289-.451A10.714,10.714,0,0,0,22.63,60.647Z" transform="translate(-18.854 -54.187)" fill="#ffc7b3" fill-rule="evenodd"/>
        </g>
        <g id="Grupo_1208751" data-name="Grupo 1208751" transform="translate(7.758 41.615)">
          <path id="Trazado_1049674" data-name="Trazado 1049674" d="M0,0H14.272V5.836H0Z" transform="translate(10.09 14.216) rotate(-135)" fill="#58ed9b" fill-rule="evenodd"/>
        </g>
        <g id="Grupo_1208752" data-name="Grupo 1208752" transform="translate(10.681 42.576)">
          <path id="Trazado_1049675" data-name="Trazado 1049675" d="M23.274,83.788l3.158-3.141L17.31,71.524l-1.487,1.487a2.37,2.37,0,0,0,0,3.341Z" transform="translate(-15.134 -71.524)" fill="#24d1af" fill-rule="evenodd"/>
        </g>
        <g id="Grupo_1208753" data-name="Grupo 1208753" transform="translate(33.608 24.632)">
          <path id="Trazado_1049676" data-name="Trazado 1049676" d="M64.458,45.859l-4.8-4.778-5.631,5.631,4.8,4.795a.891.891,0,0,0,.968.184.858.858,0,0,0,.535-.819V47.38h3.492a.85.85,0,0,0,.819-.551.876.876,0,0,0-.183-.97Z" transform="translate(-54.031 -41.081)" fill="#58ed9b" fill-rule="evenodd"/>
        </g>
        <g id="Grupo_1208754" data-name="Grupo 1208754" transform="translate(34.844 25.251)">
          <path id="Trazado_1049677" data-name="Trazado 1049677" d="M65.319,46.29l-4.178-4.16-5.012,5.012,4.778,4.795h.017a.856.856,0,0,0,.267-.635V47.811h3.492a.85.85,0,0,0,.819-.551.875.875,0,0,0-.183-.97Z" transform="translate(-56.129 -42.13)" fill="#24d1af" fill-rule="evenodd"/>
        </g>
        <g id="Grupo_1208755" data-name="Grupo 1208755" transform="translate(22.932 24.632)">
          <path id="Trazado_1049678" data-name="Trazado 1049678" d="M36.185,45.859l4.778-4.778,5.631,5.631-4.778,4.795a.9.9,0,0,1-.968.184.872.872,0,0,1-.552-.819V47.38H36.82a.887.887,0,0,1-.635-1.521Z" transform="translate(-35.918 -41.081)" fill="#58ed9b" fill-rule="evenodd"/>
        </g>
        <g id="Grupo_1208756" data-name="Grupo 1208756" transform="translate(24.168 25.25)">
          <path id="Trazado_1049679" data-name="Trazado 1049679" d="M42.443,42.129l5.012,5.012-4.778,4.795h-.016a.856.856,0,0,1-.267-.635V47.81H38.9a.85.85,0,0,1-.819-.551.881.881,0,0,1,.2-.97Z" transform="translate(-38.016 -42.129)" fill="#24d1af" fill-rule="evenodd"/>
        </g>
        <g id="Grupo_1208757" data-name="Grupo 1208757" transform="translate(22.652 9.365)">
          <path id="Trazado_1049680" data-name="Trazado 1049680" d="M40.235,34.556h1.755a2.167,2.167,0,0,1,1.586.651l1.237,1.237a2.26,2.26,0,0,0,3.175,0l1.237-1.237a2.2,2.2,0,0,1,1.587-.651h1.755A2.267,2.267,0,0,0,54.821,32.3V30.546a2.135,2.135,0,0,1,.651-1.571l1.237-1.253a2.237,2.237,0,0,0,0-3.158l-1.237-1.253a2.171,2.171,0,0,1-.651-1.587V19.97a2.253,2.253,0,0,0-2.255-2.239H50.811a2.2,2.2,0,0,1-1.587-.651l-1.237-1.237a2.23,2.23,0,0,0-3.175,0l-1.237,1.237a2.166,2.166,0,0,1-1.586.651H40.235A2.239,2.239,0,0,0,38,19.97v1.754a2.171,2.171,0,0,1-.651,1.587l-1.237,1.253a2.209,2.209,0,0,0,0,3.158l1.237,1.253A2.134,2.134,0,0,1,38,30.546V32.3a2.254,2.254,0,0,0,2.239,2.256Z" transform="translate(-35.443 -15.178)" fill="#fedf5b" fill-rule="evenodd"/>
        </g>
        <g id="Grupo_1208758" data-name="Grupo 1208758" transform="translate(24.167 9.494)">
          <path id="Trazado_1049681" data-name="Trazado 1049681" d="M42.809,34.646h1.754a2.2,2.2,0,0,1,1.587.651l1.237,1.237a2.1,2.1,0,0,0,.836.535,2.174,2.174,0,0,0,.819-.535L50.279,35.3a2.2,2.2,0,0,1,1.587-.651H53.62a2.267,2.267,0,0,0,2.255-2.256V30.636a2.135,2.135,0,0,1,.651-1.571l1.237-1.253a2.237,2.237,0,0,0,0-3.158L56.526,23.4a2.171,2.171,0,0,1-.651-1.587V20.06a2.253,2.253,0,0,0-2.255-2.239H51.866a2.2,2.2,0,0,1-1.587-.651l-1.237-1.237a2.177,2.177,0,0,0-.819-.535,2.115,2.115,0,0,0-.836.535l-1.237,1.237a2.2,2.2,0,0,1-1.587.651H42.809a2.238,2.238,0,0,0-2.238,2.239v1.754A2.185,2.185,0,0,1,39.9,23.4l-1.237,1.253a2.237,2.237,0,0,0,0,3.158L39.9,29.065a2.151,2.151,0,0,1,.669,1.571V32.39A2.253,2.253,0,0,0,42.809,34.646Z" transform="translate(-38.014 -15.398)" fill="#ffb53b" fill-rule="evenodd"/>
        </g>
        <g id="Grupo_1208759" data-name="Grupo 1208759" transform="translate(26.908 13.621)">
          <path id="Trazado_1049682" data-name="Trazado 1049682" d="M49.364,35.817a6.708,6.708,0,1,0-6.7-6.717A6.718,6.718,0,0,0,49.364,35.817Z" transform="translate(-42.664 -22.4)" fill="#58ed9b" fill-rule="evenodd"/>
        </g>
        <g id="Grupo_1208760" data-name="Grupo 1208760" transform="translate(28.044 13.638)">
          <path id="Trazado_1049683" data-name="Trazado 1049683" d="M50.74,22.429a6.708,6.708,0,0,1,0,13.366,6.706,6.706,0,0,1,0-13.366Z" transform="translate(-44.591 -22.429)" fill="#24d1af" fill-rule="evenodd"/>
        </g>
        <g id="Grupo_1208761" data-name="Grupo 1208761" transform="translate(12.874 36.157)">
          <path id="Trazado_1049684" data-name="Trazado 1049684" d="M44.133,63.461v-.017A3.436,3.436,0,0,0,41.26,61.89h-5.2a6,6,0,0,1-2.289-.451A10.712,10.712,0,0,0,22.63,63.293L18.854,67.07l1.019,1.019,3.776-3.776a10.715,10.715,0,0,1,11.145-1.871,5.572,5.572,0,0,0,2.272.451h5.2a3.391,3.391,0,0,1,1.872.568Z" transform="translate(-18.854 -60.633)" fill="#ffdecf" fill-rule="evenodd"/>
        </g>
        <path id="Trazado_1049685" data-name="Trazado 1049685" d="M26.64,14.172v1.755a1.587,1.587,0,0,1-.5,1.171l-1.237,1.237a2.856,2.856,0,0,0,0,4.008l1.237,1.237a1.589,1.589,0,0,1,.5,1.171V26.5a2.808,2.808,0,0,0,.065.593l-1.914,1.914a1.484,1.484,0,0,0-.314,1.606,1.463,1.463,0,0,0,1.366.921h2.9v2.886a1.5,1.5,0,0,0,1.484,1.483,1.525,1.525,0,0,0,1.043-.431L34.949,31.8a2.574,2.574,0,0,0,1.366,0l3.694,3.694a1.513,1.513,0,0,0,1.029.421,1.364,1.364,0,0,0,.562-.12,1.463,1.463,0,0,0,.922-1.366V31.538h2.9a1.508,1.508,0,0,0,1.365-.921,1.447,1.447,0,0,0-.329-1.6L44.56,27.1a2.824,2.824,0,0,0,.065-.595V24.749a1.576,1.576,0,0,1,.476-1.168l1.26-1.243a2.855,2.855,0,0,0-.007-4.007L45.1,17.1a1.576,1.576,0,0,1-.479-1.17V14.173A2.831,2.831,0,0,0,41.8,11.345H40.042a1.586,1.586,0,0,1-1.171-.5l-1.24-1.24a2.839,2.839,0,0,0-2-.821,2.808,2.808,0,0,0-2,.824l-1.237,1.237a1.587,1.587,0,0,1-1.171.5H29.468a2.831,2.831,0,0,0-2.828,2.828Zm3.812,20.455a.305.305,0,0,1-.356.063.266.266,0,0,1-.172-.268V30.947a.589.589,0,0,0-.589-.589H25.843a.283.283,0,0,1-.272-.181.31.31,0,0,1,.054-.333l1.617-1.617a2.815,2.815,0,0,0,2.227,1.105h1.754a1.577,1.577,0,0,1,1.168.476l1.24,1.256c.065.065.141.116.212.174Zm15.187-4.77a.277.277,0,0,1,.065.3.323.323,0,0,1-.281.2H41.932a.589.589,0,0,0-.589.589v3.475a.293.293,0,0,1-.2.281.288.288,0,0,1-.311-.062l-3.4-3.405c.072-.059.149-.11.216-.176l1.234-1.25a1.579,1.579,0,0,1,1.171-.479H41.8a2.813,2.813,0,0,0,2.224-1.1ZM27.819,14.172a1.651,1.651,0,0,1,1.65-1.649h1.754a2.782,2.782,0,0,0,2-.841l1.237-1.237a1.713,1.713,0,0,1,2.341,0l1.237,1.237a2.783,2.783,0,0,0,2,.841H41.8a1.651,1.651,0,0,1,1.65,1.649v1.755a2.776,2.776,0,0,0,.827,2.007l1.25,1.234a1.67,1.67,0,0,1,0,2.338l-1.256,1.24a2.74,2.74,0,0,0-.824,2V26.5a1.651,1.651,0,0,1-1.65,1.649H40.045a2.777,2.777,0,0,0-2.007.827l-1.23,1.246a1.713,1.713,0,0,1-2.342.007l-1.24-1.256a2.776,2.776,0,0,0-2-.824H29.468a1.651,1.651,0,0,1-1.65-1.649V24.75a2.782,2.782,0,0,0-.841-2l-1.232-1.232a1.672,1.672,0,0,1,0-2.345l1.237-1.236a2.782,2.782,0,0,0,.841-2Zm7.815-7.882a.589.589,0,0,1-.589-.589V1.608a.589.589,0,0,1,1.179,0V5.7A.589.589,0,0,1,35.633,6.291Zm7.024,1.877a.589.589,0,0,1-.217-.8l2.038-3.542a.589.589,0,0,1,1.022.588L43.462,7.951a.59.59,0,0,1-.805.217Zm9.709,2.5a.59.59,0,0,1-.214.806L48.61,13.53a.589.589,0,0,1-.592-1.02l3.542-2.055a.589.589,0,0,1,.806.214Zm-2.1,9.079h4.094a.589.589,0,1,1,0,1.179H50.269a.589.589,0,0,1,0-1.179ZM47.8,27.362a.591.591,0,0,1,.805-.217l3.542,2.038a.59.59,0,0,1-.588,1.022L48.02,28.167A.59.59,0,0,1,47.8,27.362Zm-24.341,0a.59.59,0,0,1-.217.805L19.7,30.205a.59.59,0,0,1-.588-1.022l3.542-2.038a.591.591,0,0,1,.805.217ZM16.9,19.748H21a.589.589,0,1,1,0,1.179H16.9a.589.589,0,1,1,0-1.179Zm6.558-6.433a.59.59,0,0,1-.806.214l-3.542-2.055a.589.589,0,1,1,.592-1.02l3.542,2.055A.59.59,0,0,1,23.462,13.315ZM27.8,7.952,25.75,4.41a.589.589,0,0,1,1.02-.592l2.055,3.542a.589.589,0,0,1-1.02.592Zm7.828,19.675a7.3,7.3,0,1,0-7.306-7.289,7.3,7.3,0,0,0,7.306,7.289Zm0-13.416a6.119,6.119,0,1,1-6.127,6.127,6.125,6.125,0,0,1,6.127-6.127Zm1.654,22.613h-5.2a5.032,5.032,0,0,1-2.049-.407A11.363,11.363,0,0,0,18.8,37.95a.589.589,0,1,0,.721.932,10.18,10.18,0,0,1,10.07-1.376,6.149,6.149,0,0,0,2.5.5h5.2a2.87,2.87,0,0,1,2.825,2.462,1.076,1.076,0,0,1-.252.878,1.111,1.111,0,0,1-.868.393H28.733a.589.589,0,0,0,0,1.179H38.992a2.313,2.313,0,0,0,1.748-.787,2.237,2.237,0,0,0,.524-1.138l8.378-7.329a2.869,2.869,0,0,1,3.75-.014,1.137,1.137,0,0,1,0,1.7L42.329,45.04a7.689,7.689,0,0,1-5.275,1.992H30.52a10.4,10.4,0,0,0-7.068,2.616h0c-.085.071-.219.2-.355.327L14.313,41.19a.607.607,0,0,0-.833,0L9.353,45.317a.589.589,0,0,0,0,.833L19.444,56.242a.589.589,0,0,0,.833,0L24.4,52.116a.589.589,0,0,0,0-.833l-.474-.473c.127-.123.217-.209.232-.222a.61.61,0,0,0,.061-.046,9.267,9.267,0,0,1,6.3-2.33h6.533a8.819,8.819,0,0,0,6.053-2.285l11.059-9.689a2.315,2.315,0,0,0,0-3.482,4.052,4.052,0,0,0-5.3.021L41.1,39.565a4.054,4.054,0,0,0-3.815-2.741ZM19.861,54.992,10.6,45.734,13.9,42.44,23.154,51.7Zm-3.491-14.7.568-.568a.589.589,0,1,1,.833.833l-.568.568a.589.589,0,1,1-.833-.833ZM32.159,20.354a.589.589,0,0,1,.833-.833l1.888,1.889,3.393-3.393a.589.589,0,1,1,.833.833L35.3,22.66a.589.589,0,0,1-.833,0Z" transform="translate(-2.008)"/>
      </g>
      <g id="sandglass_6186246" transform="translate(1043.071 2871.895)">
        <g id="Grupo_1208764" data-name="Grupo 1208764" transform="translate(48.644 0.642)">
          <path id="Trazado_1049686" data-name="Trazado 1049686" d="M131.189,19.625l.673,2.672a14.256,14.256,0,0,1-4.572,14.326,4.246,4.246,0,0,0,0,6.461,14.256,14.256,0,0,1,4.572,14.326l-.673,2.672H107.852l-.673-2.672a14.256,14.256,0,0,1,4.572-14.326,4.246,4.246,0,0,0,0-6.461A14.256,14.256,0,0,1,107.18,22.3l.673-2.672h23.336Z" transform="translate(-102.362 -18.587)" fill="#faf7f7"/>
          <path id="Trazado_1049687" data-name="Trazado 1049687" d="M116.032,43.092c-1.851,3.518-2.647,9.07-2.053,14.326l.3,2.672h-6.428l-.673-2.672a14.255,14.255,0,0,1,4.572-14.326,4.245,4.245,0,0,0,0-6.46,14.25,14.25,0,0,1-4.572-14.326l.673-2.672h6.428l-.3,2.672a31.134,31.134,0,0,0-.193,3.479,24.363,24.363,0,0,0,2.246,10.847,8.132,8.132,0,0,1,0,6.461Z" transform="translate(-102.363 -18.596)" fill="#dedbee"/>
          <path id="Trazado_1049688" data-name="Trazado 1049688" d="M194.777,19.623h0Z" transform="translate(-182.858 -18.586)" fill="#dedbee"/>
          <path id="Trazado_1049689" data-name="Trazado 1049689" d="M166.521,119.929c-.011.039-.023.078-.036.117a11.89,11.89,0,0,1-3.615,5.437,14.725,14.725,0,0,0-3.918,5.254,1.826,1.826,0,0,1-1.67,1.093h0a1.826,1.826,0,0,1-1.67-1.093,14.726,14.726,0,0,0-3.918-5.254,11.884,11.884,0,0,1-3.615-5.436c-.012-.039-.025-.079-.036-.118Z" transform="translate(-140.124 -110.308)" fill="#ffc344"/>
          <path id="Trazado_1049690" data-name="Trazado 1049690" d="M148.045,339.907c.011-.039.023-.078.036-.117a11.89,11.89,0,0,1,3.615-5.437,14.726,14.726,0,0,0,3.918-5.254,1.826,1.826,0,0,1,1.67-1.093h0a1.826,1.826,0,0,1,1.67,1.093,14.726,14.726,0,0,0,3.918,5.254,11.884,11.884,0,0,1,3.615,5.436c.012.039.025.079.036.118Z" transform="translate(-140.126 -300.578)" fill="#ffc344"/>
          <path id="Trazado_1049691" data-name="Trazado 1049691" d="M157.28,131.827a1.825,1.825,0,0,1-1.67-1.093,14.727,14.727,0,0,0-3.918-5.253,11.881,11.881,0,0,1-3.615-5.437q-.019-.059-.036-.118h5.932l.013.118a20.391,20.391,0,0,0,1.294,5.437,23.181,23.181,0,0,1,1.4,5.253,2.54,2.54,0,0,0,.241.8C157.028,131.719,157.15,131.826,157.28,131.827Z" transform="translate(-140.123 -110.305)" fill="#fea95c"/>
          <path id="Trazado_1049692" data-name="Trazado 1049692" d="M157.279,328c-.259,0-.492.431-.6,1.093a23.2,23.2,0,0,1-1.4,5.254,20.382,20.382,0,0,0-1.294,5.437l-.013.116h-5.932c.011-.039.023-.077.036-.116a11.882,11.882,0,0,1,3.615-5.437,14.736,14.736,0,0,0,3.918-5.254A1.827,1.827,0,0,1,157.279,328Z" transform="translate(-140.122 -300.575)" fill="#fea95c"/>
          <g id="Grupo_1208762" data-name="Grupo 1208762" transform="translate(0)">
            <path id="Trazado_1049693" data-name="Trazado 1049693" d="M93.743,438.286H65.726a2.833,2.833,0,1,0,0,5.666H93.743a2.833,2.833,0,0,0,0-5.666Z" transform="translate(-62.261 -401.421)" fill="#c68d7a"/>
            <path id="Trazado_1049694" data-name="Trazado 1049694" d="M86.355,7.5H58.338a2.833,2.833,0,0,0,0,5.666H86.355a2.833,2.833,0,0,0,0-5.666Z" transform="translate(-55.505 -7.5)" fill="#c68d7a"/>
          </g>
          <g id="Grupo_1208763" data-name="Grupo 1208763" transform="translate(0 0.001)">
            <path id="Trazado_1049695" data-name="Trazado 1049695" d="M71.974,443.128a2.828,2.828,0,0,0,2,.829h-8.25a2.833,2.833,0,1,1,0-5.666h8.25a2.833,2.833,0,0,0-2,4.837Z" transform="translate(-62.262 -401.426)" fill="#bc7c63"/>
            <path id="Trazado_1049696" data-name="Trazado 1049696" d="M64.584,12.343a2.823,2.823,0,0,0,2,.83h-8.25a2.833,2.833,0,1,1,0-5.666h8.25a2.833,2.833,0,0,0-2,4.836Z" transform="translate(-55.504 -7.507)" fill="#bc7c63"/>
          </g>
        </g>
        <g id="Grupo_1208765" data-name="Grupo 1208765" transform="translate(48.002 0)">
          <path id="Trazado_1049697" data-name="Trazado 1049697" d="M155.6,118.137a15.48,15.48,0,0,0-4.089,5.484,1.181,1.181,0,0,1-2.166,0c-.178-.4-.377-.805-.591-1.194a.642.642,0,0,0-1.125.619c.2.357.379.725.542,1.093a2.465,2.465,0,0,0,4.515,0,14.19,14.19,0,0,1,3.747-5.026,12.52,12.52,0,0,0,3.809-5.726c.016-.048.03-.094.044-.142a.642.642,0,0,0-.618-.816H141.186a.642.642,0,0,0-.618.816c.009.031.019.063.028.094l.011.036,0,.009a12.521,12.521,0,0,0,3.81,5.729A14.243,14.243,0,0,1,146,120.689a.642.642,0,1,0,.976-.834,15.533,15.533,0,0,0-1.72-1.719,11.241,11.241,0,0,1-3.163-4.424h16.67a11.239,11.239,0,0,1-3.163,4.424Z" transform="translate(-132.625 -102.808)"/>
          <path id="Trazado_1049698" data-name="Trazado 1049698" d="M80.127,36.865h-.938c.018-.295.027-.59.027-.882,0-.178,0-.352-.009-.516a.642.642,0,1,0-1.283.046c.005.149.008.307.008.47,0,.292-.011.587-.03.882H74.327a12.5,12.5,0,0,0-2.52-2.937A14.176,14.176,0,0,1,68.06,28.9a2.466,2.466,0,0,0-4.516,0A14.176,14.176,0,0,1,59.8,33.928a12.471,12.471,0,0,0-2.52,2.937H53.7A13.6,13.6,0,0,1,58.45,25.626a4.887,4.887,0,0,0,0-7.436A13.6,13.6,0,0,1,53.671,7.831c0-.3.011-.59.03-.881H77.9a13.6,13.6,0,0,1-4.748,11.24,4.887,4.887,0,0,0,0,7.437,13.544,13.544,0,0,1,4.372,7.058.642.642,0,0,0,1.245-.311,14.821,14.821,0,0,0-4.784-7.723,3.6,3.6,0,0,1,0-5.484,14.883,14.883,0,0,0,5.2-12.217h.306a3.475,3.475,0,0,0,0-6.95H77.4a.642.642,0,0,0,0,1.284h2.1a2.191,2.191,0,1,1,0,4.382H51.477a2.191,2.191,0,1,1,0-4.382H74.4A.642.642,0,0,0,74.4,0H51.477a3.475,3.475,0,1,0,0,6.95h.937c-.017.292-.027.587-.027.881a14.882,14.882,0,0,0,5.229,11.335,3.6,3.6,0,0,1,0,5.483,14.888,14.888,0,0,0-5.2,12.216h-.306a3.475,3.475,0,0,0,0,6.95H80.127a3.475,3.475,0,0,0,0-6.95Zm-19.5-1.96a15.467,15.467,0,0,0,4.088-5.483,1.182,1.182,0,0,1,2.168,0,15.468,15.468,0,0,0,4.088,5.483,11.226,11.226,0,0,1,1.809,1.96H58.822a11.206,11.206,0,0,1,1.809-1.96Zm19.5,7.626H52.109a2.191,2.191,0,0,1,0-4.383H80.127a2.191,2.191,0,0,1,0,4.383Z" transform="translate(-48.002 0)"/>
        </g>
      </g>
    </g>
  </g>
</svg>
