<svg xmlns="http://www.w3.org/2000/svg" xmlns:xlink="http://www.w3.org/1999/xlink" width="113" height="113" viewBox="0 0 113 113">
  <defs>
    <filter id="Trazado_982547" x="0" y="0" width="113" height="113" filterUnits="userSpaceOnUse">
      <feOffset dy="3" input="SourceAlpha"/>
      <feGaussianBlur stdDeviation="3" result="blur"/>
      <feFlood flood-opacity="0.161"/>
      <feComposite operator="in" in2="blur"/>
      <feComposite in="SourceGraphic"/>
    </filter>
  </defs>
  <g id="Grupo_1208910" data-name="Grupo 1208910" transform="translate(-324.649 -2664.466)">
    <g id="Grupo_1208670" data-name="Grupo 1208670" transform="translate(333.649 2670.467)">
      <g id="Grupo_1208147" data-name="Grupo 1208147">
        <g id="Grupo_1202432" data-name="Grupo 1202432" transform="translate(0 0)">
          <g id="Grupo_1202055" data-name="Grupo 1202055" transform="translate(0 0)">
            <g id="Grupo_1177900" data-name="Grupo 1177900">
              <g id="Grupo_1172010" data-name="Grupo 1172010">
                <g id="Grupo_1171046" data-name="Grupo 1171046">
                  <g id="Grupo_1148525" data-name="Grupo 1148525">
                    <g transform="matrix(1, 0, 0, 1, -9, -6)" filter="url(#Trazado_982547)">
                      <g id="Trazado_982547-2" data-name="Trazado 982547" transform="translate(9 6)" fill="#f6ecfe">
                        <path d="M 47.5 93.5 C 41.28937149047852 93.5 35.26533508300781 92.28397369384766 29.59518623352051 89.88570404052734 C 24.11771965026855 87.56893157958984 19.19813346862793 84.25196075439453 14.97309303283691 80.02691650390625 C 10.74804019927979 75.80186462402344 7.431066513061523 70.88229370117188 5.114293098449707 65.40481567382812 C 2.716026782989502 59.73468017578125 1.5 53.71062850952148 1.5 47.5 C 1.5 41.28937149047852 2.716026782989502 35.26533508300781 5.114293098449707 29.59518623352051 C 7.431066513061523 24.11771965026855 10.74804019927979 19.19813346862793 14.97309303283691 14.97309303283691 C 19.19813346862793 10.74804019927979 24.11771965026855 7.431066513061523 29.59518623352051 5.114293098449707 C 35.26533508300781 2.716026782989502 41.28937149047852 1.5 47.5 1.5 C 53.71062850952148 1.5 59.73468017578125 2.716026782989502 65.40481567382812 5.114293098449707 C 70.88229370117188 7.431066513061523 75.80186462402344 10.74804019927979 80.02691650390625 14.97309303283691 C 84.25196075439453 19.19813346862793 87.56893157958984 24.11771965026855 89.88570404052734 29.59518623352051 C 92.28397369384766 35.26533508300781 93.5 41.28937149047852 93.5 47.5 C 93.5 53.71062850952148 92.28397369384766 59.73468017578125 89.88570404052734 65.40481567382812 C 87.56893157958984 70.88229370117188 84.25196075439453 75.80186462402344 80.02691650390625 80.02691650390625 C 75.80186462402344 84.25196075439453 70.88229370117188 87.56893157958984 65.40481567382812 89.88570404052734 C 59.73468017578125 92.28397369384766 53.71062850952148 93.5 47.5 93.5 Z" stroke="none"/>
                        <path d="M 47.5 3 C 41.49121475219727 3 35.66376876831055 4.176155090332031 30.17950439453125 6.495796203613281 C 24.88084411621094 8.736953735351562 20.12152099609375 11.94598388671875 16.03375244140625 16.03375244140625 C 11.94598388671875 20.12152099609375 8.736953735351562 24.88084411621094 6.495796203613281 30.17950439453125 C 4.176155090332031 35.66376876831055 3 41.49121475219727 3 47.5 C 3 53.50878524780273 4.176155090332031 59.33623123168945 6.495796203613281 64.82049560546875 C 8.736953735351562 70.11915588378906 11.94598388671875 74.87847900390625 16.03375244140625 78.96624755859375 C 20.12152099609375 83.05401611328125 24.88084411621094 86.26304626464844 30.17950439453125 88.50419616699219 C 35.66376876831055 90.82384490966797 41.49121475219727 92 47.5 92 C 53.50878524780273 92 59.33623123168945 90.82384490966797 64.82049560546875 88.50419616699219 C 70.11915588378906 86.26304626464844 74.87847900390625 83.05401611328125 78.96624755859375 78.96624755859375 C 83.05401611328125 74.87847900390625 86.26304626464844 70.11915588378906 88.50419616699219 64.82049560546875 C 90.82384490966797 59.33623123168945 92 53.50878524780273 92 47.5 C 92 41.49121475219727 90.82384490966797 35.66376876831055 88.50419616699219 30.17950439453125 C 86.26304626464844 24.88084411621094 83.05401611328125 20.12152099609375 78.96624755859375 16.03375244140625 C 74.87847900390625 11.94598388671875 70.11915588378906 8.736953735351562 64.82049560546875 6.495796203613281 C 59.33623123168945 4.176155090332031 53.50878524780273 3 47.5 3 M 47.5 0 C 73.7335205078125 0 95 21.2664794921875 95 47.5 C 95 73.7335205078125 73.7335205078125 95 47.5 95 C 21.2664794921875 95 0 73.7335205078125 0 47.5 C 0 21.2664794921875 21.2664794921875 0 47.5 0 Z" stroke="none" fill="#aa52f9"/>
                      </g>
                    </g>
                  </g>
                </g>
              </g>
            </g>
          </g>
        </g>
      </g>
    </g>
    <g id="planning_1792486" transform="translate(351.78 2688.597)">
      <path id="Trazado_1050227" data-name="Trazado 1050227" d="M53.889,64.9H8V19.013L19.013,8H53.889Zm0,0" transform="translate(-7.083 -7.082)" fill="#cfd8dc"/>
      <path id="Trazado_1050228" data-name="Trazado 1050228" d="M408,8h3.671V64.9H408Zm0,0" transform="translate(-361.193 -7.082)" fill="#b0bec5"/>
      <path id="Trazado_1050229" data-name="Trazado 1050229" d="M232,40h16.52V51.013H232Zm0,0" transform="translate(-205.385 -35.411)" fill="#dce775"/>
      <path id="Trazado_1050230" data-name="Trazado 1050230" d="M40,376h5.507v14.685H40Zm0,0" transform="translate(-35.412 -332.864)" fill="#ff8a65"/>
      <path id="Trazado_1050231" data-name="Trazado 1050231" d="M120,440h5.507v7.342H120Zm0,0" transform="translate(-106.234 -389.522)" fill="#ffe082"/>
      <path id="Trazado_1050232" data-name="Trazado 1050232" d="M200,408h5.507v11.013H200Zm0,0" transform="translate(-177.056 -361.193)" fill="#a6e7ff"/>
      <path id="Trazado_1050233" data-name="Trazado 1050233" d="M8,19.013H19.013V8Zm0,0" transform="translate(-7.083 -7.082)" fill="#90a4ae"/>
      <path id="Trazado_1050234" data-name="Trazado 1050234" d="M62.027,163.013A11.013,11.013,0,1,1,51.013,152,11.013,11.013,0,0,1,62.027,163.013Zm0,0" transform="translate(-35.412 -134.562)" fill="#a6e7ff"/>
      <path id="Trazado_1050235" data-name="Trazado 1050235" d="M147.013,163.013A11.013,11.013,0,0,0,136,152v11.013Zm0,0" transform="translate(-120.398 -134.562)" fill="#ffe082"/>
      <path id="Trazado_1050236" data-name="Trazado 1050236" d="M147.013,248H136l5.507,9.53A11,11,0,0,0,147.013,248Zm0,0" transform="translate(-120.398 -219.549)" fill="#ff8a65"/>
      <path id="Trazado_1050237" data-name="Trazado 1050237" d="M328,408h20.191v3.671H328Zm0,0" transform="translate(-290.371 -361.193)" fill="#ffd54f"/>
      <path id="Trazado_1050238" data-name="Trazado 1050238" d="M328,168h20.191v3.671H328Zm0,0" transform="translate(-290.371 -148.727)" fill="#ffd54f"/>
      <path id="Trazado_1050239" data-name="Trazado 1050239" d="M360.52,200v6.109a2.294,2.294,0,0,1-1.021,1.909l-3,2a2.294,2.294,0,0,0,0,3.824l3,2a2.294,2.294,0,0,1,1.021,1.909v6.109H344v-6.109a2.294,2.294,0,0,1,1.021-1.909l3-2a2.294,2.294,0,0,0,0-3.824l-3-2A2.294,2.294,0,0,1,344,206.109V200Zm0,0" transform="translate(-304.536 -177.056)" fill="#eee"/>
      <path id="Trazado_1050240" data-name="Trazado 1050240" d="M349.048,254.425a2.281,2.281,0,0,0-1.024-1.912l-3-2A2.294,2.294,0,0,1,344,248.6V248h16.52v.6a2.294,2.294,0,0,1-1.021,1.909l-3,2a2.282,2.282,0,0,0-1.023,1.912v4.589a3.671,3.671,0,0,0,3.671,3.671h1.377v3.671H344v-3.671h1.377a3.671,3.671,0,0,0,3.671-3.671Zm0,0" transform="translate(-304.536 -219.549)" fill="#ffe082"/>
      <g id="Grupo_1208909" data-name="Grupo 1208909" transform="translate(29.369 7.342)">
        <path id="Trazado_1050241" data-name="Trazado 1050241" d="M256,64h11.013v1.836H256Zm0,0" transform="translate(-256 -64)" fill="#fff"/>
        <path id="Trazado_1050242" data-name="Trazado 1050242" d="M256,96h5.507v1.836H256Zm0,0" transform="translate(-256 -92.329)" fill="#fff"/>
        <path id="Trazado_1050243" data-name="Trazado 1050243" d="M272,224h5.507v1.836H272Zm0,0" transform="translate(-270.164 -205.644)" fill="#fff"/>
        <path id="Trazado_1050244" data-name="Trazado 1050244" d="M272,272h5.507v1.836H272Zm0,0" transform="translate(-270.164 -248.138)" fill="#fff"/>
        <path id="Trazado_1050245" data-name="Trazado 1050245" d="M272,320h5.507v1.836H272Zm0,0" transform="translate(-270.164 -290.631)" fill="#fff"/>
        <path id="Trazado_1050246" data-name="Trazado 1050246" d="M272,368h5.507v1.836H272Zm0,0" transform="translate(-270.164 -333.124)" fill="#fff"/>
      </g>
      <path id="Trazado_1050247" data-name="Trazado 1050247" d="M52.468,33.728l3-2A3.212,3.212,0,0,0,56.9,29.052v-5.19h1.836V18.356H51.4V0H11.551L0,11.551V58.738H51.4V51.4h7.342V45.889H56.9V40.7a3.212,3.212,0,0,0-1.431-2.674l-3-2a1.377,1.377,0,0,1,0-2.294Zm2.6-6.194H40.382V23.862H55.067Zm-7.342-25.7H49.56v16.52H47.724ZM56.9,20.191v1.836H38.547V20.191ZM11.013,3.133v7.88H3.133ZM9.177,56.9H5.506V44.054H9.177Zm9.178,0H14.684V51.4h3.671Zm9.178,0H23.862V47.725h3.671Zm18.356,0H29.369V45.889H22.026V56.9H20.191V49.56H12.849V56.9H11.013V42.218H3.671V56.9H1.835V12.849H12.849V1.835h33.04v16.52H36.711v5.507h1.836v5.19a3.212,3.212,0,0,0,1.431,2.674l3,2a1.377,1.377,0,0,1,0,2.294l-3,2A3.212,3.212,0,0,0,38.547,40.7v5.19H36.711V51.4h9.178ZM43.594,37.821v1.644a2.753,2.753,0,0,1-2.753,2.753h-.459V40.7A1.376,1.376,0,0,1,41,39.553ZM49.56,56.9H47.724V51.4H49.56ZM56.9,47.725V49.56H38.547V47.725Zm-2.449-8.168a1.376,1.376,0,0,1,.613,1.143v1.519h-.459a2.753,2.753,0,0,1-2.753-2.753V37.821Zm-3-7.356a3.213,3.213,0,0,0-1.432,2.675v4.589a4.594,4.594,0,0,0,4.589,4.589h.459v1.836H40.382V44.054h.459a4.594,4.594,0,0,0,4.589-4.589V34.876A3.213,3.213,0,0,0,44,32.2l-3-2.005a1.376,1.376,0,0,1-.574-.826H55.027a1.376,1.376,0,0,1-.574.826Zm0,0"/>
      <path id="Trazado_1050248" data-name="Trazado 1050248" d="M71.9,44.849V32H53.543v5.507H50.28l-4.713,7.542a11.961,11.961,0,1,0,1.855.5l3.877-6.2h2.244v5.507ZM55.378,33.836H70.063v9.178H55.378ZM43.447,66.876a10.1,10.1,0,0,1-.918-20.145v10.3l5.144,8.91A10.017,10.017,0,0,1,43.447,66.876Zm5.816-1.858L45.037,57.7H53.5a10.1,10.1,0,0,1-4.233,7.32ZM53.5,55.862H44.365V46.731A10.106,10.106,0,0,1,53.5,55.862Zm0,0" transform="translate(-27.845 -28.329)"/>
    </g>
  </g>
</svg>
