<svg xmlns="http://www.w3.org/2000/svg" xmlns:xlink="http://www.w3.org/1999/xlink" width="113" height="113" viewBox="0 0 113 113">
  <defs>
    <filter id="Trazado_982547" x="0" y="0" width="113" height="113" filterUnits="userSpaceOnUse">
      <feOffset dy="3" input="SourceAlpha"/>
      <feGaussianBlur stdDeviation="3" result="blur"/>
      <feFlood flood-opacity="0.161"/>
      <feComposite operator="in" in2="blur"/>
      <feComposite in="SourceGraphic"/>
    </filter>
  </defs>
  <g id="Grupo_1208911" data-name="Grupo 1208911" transform="translate(-744.149 -2664.466)">
    <g id="Grupo_1208671" data-name="Grupo 1208671" transform="translate(753.149 2670.467)">
      <g id="Grupo_1208147" data-name="Grupo 1208147">
        <g id="Grupo_1202432" data-name="Grupo 1202432" transform="translate(0 0)">
          <g id="Grupo_1202055" data-name="Grupo 1202055" transform="translate(0 0)">
            <g id="Grupo_1177900" data-name="Grupo 1177900">
              <g id="Grupo_1172010" data-name="Grupo 1172010">
                <g id="Grupo_1171046" data-name="Grupo 1171046">
                  <g id="Grupo_1148525" data-name="Grupo 1148525">
                    <g transform="matrix(1, 0, 0, 1, -9, -6)" filter="url(#Trazado_982547)">
                      <g id="Trazado_982547-2" data-name="Trazado 982547" transform="translate(9 6)" fill="#f6ecfe">
                        <path d="M 47.5 93.5 C 41.28937149047852 93.5 35.26533508300781 92.28397369384766 29.59518623352051 89.88570404052734 C 24.11771965026855 87.56893157958984 19.19813346862793 84.25196075439453 14.97309303283691 80.02691650390625 C 10.74804019927979 75.80186462402344 7.431066513061523 70.88229370117188 5.114293098449707 65.40481567382812 C 2.716026782989502 59.73468017578125 1.5 53.71062850952148 1.5 47.5 C 1.5 41.28937149047852 2.716026782989502 35.26533508300781 5.114293098449707 29.59518623352051 C 7.431066513061523 24.11771965026855 10.74804019927979 19.19813346862793 14.97309303283691 14.97309303283691 C 19.19813346862793 10.74804019927979 24.11771965026855 7.431066513061523 29.59518623352051 5.114293098449707 C 35.26533508300781 2.716026782989502 41.28937149047852 1.5 47.5 1.5 C 53.71062850952148 1.5 59.73468017578125 2.716026782989502 65.40481567382812 5.114293098449707 C 70.88229370117188 7.431066513061523 75.80186462402344 10.74804019927979 80.02691650390625 14.97309303283691 C 84.25196075439453 19.19813346862793 87.56893157958984 24.11771965026855 89.88570404052734 29.59518623352051 C 92.28397369384766 35.26533508300781 93.5 41.28937149047852 93.5 47.5 C 93.5 53.71062850952148 92.28397369384766 59.73468017578125 89.88570404052734 65.40481567382812 C 87.56893157958984 70.88229370117188 84.25196075439453 75.80186462402344 80.02691650390625 80.02691650390625 C 75.80186462402344 84.25196075439453 70.88229370117188 87.56893157958984 65.40481567382812 89.88570404052734 C 59.73468017578125 92.28397369384766 53.71062850952148 93.5 47.5 93.5 Z" stroke="none"/>
                        <path d="M 47.5 3 C 41.49121475219727 3 35.66376876831055 4.176155090332031 30.17950439453125 6.495796203613281 C 24.88084411621094 8.736953735351562 20.12152099609375 11.94598388671875 16.03375244140625 16.03375244140625 C 11.94598388671875 20.12152099609375 8.736953735351562 24.88084411621094 6.495796203613281 30.17950439453125 C 4.176155090332031 35.66376876831055 3 41.49121475219727 3 47.5 C 3 53.50878524780273 4.176155090332031 59.33623123168945 6.495796203613281 64.82049560546875 C 8.736953735351562 70.11915588378906 11.94598388671875 74.87847900390625 16.03375244140625 78.96624755859375 C 20.12152099609375 83.05401611328125 24.88084411621094 86.26304626464844 30.17950439453125 88.50419616699219 C 35.66376876831055 90.82384490966797 41.49121475219727 92 47.5 92 C 53.50878524780273 92 59.33623123168945 90.82384490966797 64.82049560546875 88.50419616699219 C 70.11915588378906 86.26304626464844 74.87847900390625 83.05401611328125 78.96624755859375 78.96624755859375 C 83.05401611328125 74.87847900390625 86.26304626464844 70.11915588378906 88.50419616699219 64.82049560546875 C 90.82384490966797 59.33623123168945 92 53.50878524780273 92 47.5 C 92 41.49121475219727 90.82384490966797 35.66376876831055 88.50419616699219 30.17950439453125 C 86.26304626464844 24.88084411621094 83.05401611328125 20.12152099609375 78.96624755859375 16.03375244140625 C 74.87847900390625 11.94598388671875 70.11915588378906 8.736953735351562 64.82049560546875 6.495796203613281 C 59.33623123168945 4.176155090332031 53.50878524780273 3 47.5 3 M 47.5 0 C 73.7335205078125 0 95 21.2664794921875 95 47.5 C 95 73.7335205078125 73.7335205078125 95 47.5 95 C 21.2664794921875 95 0 73.7335205078125 0 47.5 C 0 21.2664794921875 21.2664794921875 0 47.5 0 Z" stroke="none" fill="#aa52f9"/>
                      </g>
                    </g>
                  </g>
                </g>
              </g>
            </g>
          </g>
        </g>
      </g>
    </g>
    <g id="Layer_x0020_1" transform="translate(623.577 2543.895)">
      <path id="Trazado_1050249" data-name="Trazado 1050249" d="M176.366,174.815c-.458,0-1.34.106-1.34-.705s.881-.67,1.34-.67v-6.7c-.705.846-1.727,2.926-3.1,7.509-1.763,5.852-3.243,9.166-6.98,12.515h10.083v-3.878c-.458,0-1.34.106-1.34-.705s.881-.67,1.34-.67v-2.679c-.458,0-1.34.141-1.34-.67s.881-.705,1.34-.705Zm-25.242,19.037V153.733H147.67a.648.648,0,0,1-.67-.67V147.67a.648.648,0,0,1,.67-.67h58.8a.648.648,0,0,1,.67.67v5.394a.648.648,0,0,1-.67.67h-3.455v45.512a.7.7,0,0,1-.705.67H180.6v6.557a.648.648,0,0,1-.67.67h-5.711a.648.648,0,0,1-.67-.67v-6.557H151.83a.7.7,0,0,1-.705-.67Zm50.518-.67V153.733H152.5v39.449Zm-53.268-40.824h57.393v-3.984H148.375Zm26.546,53.409h4.3v-5.852h-4.3ZM152.5,198.541h49.143v-3.984H152.5Zm11.352-40.013h-7.086a.687.687,0,1,1,0-1.375h7.086A.687.687,0,0,1,163.851,158.528Zm4.019,3.6h-11.1a.705.705,0,0,1,0-1.41h11.1A.705.705,0,0,1,167.87,162.124Zm29.119,8.108H183.8a.7.7,0,0,1-.705-.67V157.823a.678.678,0,0,1,.705-.67H196.99a.678.678,0,0,1,.705.67v11.739A.7.7,0,0,1,196.99,170.232Zm-12.515-1.375H196.32V158.528H184.475ZM164.38,188.141h-2.292c0,1.2.247,2.538-.67,2.538-.952,0-.705-1.34-.705-2.538h-2.679a.687.687,0,0,1,0-1.375h6.1c4.653-3.7,6.028-6.945,7.826-12.9,1.622-5.429,2.961-8.144,4.407-8.884v-2.186c-.458,0-1.375.141-1.375-.67s.917-.705,1.375-.705V159.3a.705.705,0,0,1,1.41,0v2.115c.458,0,1.34-.106,1.34.705s-.881.67-1.34.67v2.045c1.586.458,3,3.138,4.759,8.919,1.8,5.993,2.82,9.307,7.474,13.009h6.1a.687.687,0,1,1,0,1.375h-2.679c0,1.2.247,2.538-.705,2.538-.917,0-.67-1.34-.67-2.538h-4.9c0,1.2.247,2.538-.67,2.538-.952,0-.705-1.34-.705-2.538h-4.9c0,1.2.282,2.538-.67,2.538s-.705-1.34-.705-2.538h-4.865c0,1.2.247,2.538-.705,2.538s-.67-1.34-.67-2.538h-4.9c0,1.2.247,2.538-.705,2.538-.917,0-.67-1.34-.67-2.538Zm23.514-1.375c-3.948-3.6-5.006-7.121-6.663-12.586-1.657-5.394-2.785-7.227-3.455-7.791v20.377Z" fill-rule="evenodd"/>
      <path id="Trazado_1050250" data-name="Trazado 1050250" d="M186,189.984h57.393V186H186Z" transform="translate(-37.625 -37.625)" fill="#ffa721" fill-rule="evenodd"/>
      <path id="Trazado_1050251" data-name="Trazado 1050251" d="M1210,474v10.329h11.845V474Z" transform="translate(-1025.525 -315.472)" fill="#1d81ce" fill-rule="evenodd"/>
      <path id="Trazado_1050252" data-name="Trazado 1050252" d="M333.6,353.829V342.089a.678.678,0,0,1,.705-.67H347.49a.678.678,0,0,1,.705.67v11.739a.7.7,0,0,1-.705.67H334.305A.7.7,0,0,1,333.6,353.829Zm-5.323-4.724c1.586.458,3,3.138,4.759,8.919,1.8,5.993,2.82,9.307,7.474,13.009h6.1a.687.687,0,1,1,0,1.375h-2.679c0,1.2.247,2.538-.705,2.538-.917,0-.67-1.34-.67-2.538h-4.9c0,1.2.247,2.538-.67,2.538-.952,0-.705-1.34-.705-2.538h-4.9c0,1.2.282,2.538-.67,2.538s-.705-1.34-.705-2.538h-4.865c0,1.2.247,2.538-.705,2.538s-.67-1.34-.67-2.538h-4.9c0,1.2.247,2.538-.705,2.538-.917,0-.67-1.34-.67-2.538h-4.9c0,1.2.247,2.538-.67,2.538-.952,0-.705-1.34-.705-2.538h-2.679a.687.687,0,0,1,0-1.375h6.1c4.654-3.7,6.028-6.945,7.826-12.9,1.622-5.429,2.961-8.144,4.407-8.884V347.06c-.458,0-1.375.141-1.375-.67s.917-.705,1.375-.705V343.57a.705.705,0,0,1,1.41,0v2.115c.458,0,1.34-.106,1.34.705s-.881.67-1.34.67ZM303,338v39.449h49.143V338Zm11.352,3.42a.687.687,0,0,1,0,1.375h-7.086a.687.687,0,0,1,0-1.375Zm4.019,3.561a.705.705,0,0,1,0,1.41h-11.1a.705.705,0,0,1,0-1.41Z" transform="translate(-150.5 -184.267)" fill="#ffe4af" fill-rule="evenodd"/>
      <path id="Trazado_1050253" data-name="Trazado 1050253" d="M1030.118,717.377c-3.948-3.6-5.006-7.121-6.663-12.586-1.657-5.394-2.785-7.227-3.455-7.791v20.377Z" transform="translate(-842.224 -530.611)" fill="#ff3e1a" fill-rule="evenodd"/>
      <path id="Trazado_1050254" data-name="Trazado 1050254" d="M704.083,727.024v-3.878c-.458,0-1.34.106-1.34-.705s.881-.67,1.34-.67v-2.679c-.458,0-1.34.141-1.34-.67s.881-.705,1.34-.705v-2.644c-.458,0-1.34.106-1.34-.7s.881-.67,1.34-.67V707c-.705.846-1.727,2.926-3.1,7.509-1.763,5.852-3.243,9.166-6.98,12.515Z" transform="translate(-527.716 -540.258)" fill="#7ed63f" fill-rule="evenodd"/>
      <path id="Trazado_1050255" data-name="Trazado 1050255" d="M352.143,1496H303v3.984h49.143Z" transform="translate(-150.5 -1301.443)" fill="#ffa721" fill-rule="evenodd"/>
      <path id="Trazado_1050256" data-name="Trazado 1050256" d="M943.3,1648H939v5.852h4.3Z" transform="translate(-764.079 -1448.084)" fill="#a98356" fill-rule="evenodd"/>
    </g>
  </g>
</svg>
