<svg xmlns="http://www.w3.org/2000/svg" xmlns:xlink="http://www.w3.org/1999/xlink" width="113" height="113" viewBox="0 0 113 113">
  <defs>
    <filter id="Trazado_982547" x="0" y="0" width="113" height="113" filterUnits="userSpaceOnUse">
      <feOffset dy="3" input="SourceAlpha"/>
      <feGaussianBlur stdDeviation="3" result="blur"/>
      <feFlood flood-opacity="0.161"/>
      <feComposite operator="in" in2="blur"/>
      <feComposite in="SourceGraphic"/>
    </filter>
  </defs>
  <g id="Grupo_1208922" data-name="Grupo 1208922" transform="translate(-1164.649 -2664.466)">
    <g id="Grupo_1208672" data-name="Grupo 1208672" transform="translate(1173.649 2670.467)">
      <g id="Grupo_1208147" data-name="Grupo 1208147">
        <g id="Grupo_1202432" data-name="Grupo 1202432" transform="translate(0 0)">
          <g id="Grupo_1202055" data-name="Grupo 1202055" transform="translate(0 0)">
            <g id="Grupo_1177900" data-name="Grupo 1177900">
              <g id="Grupo_1172010" data-name="Grupo 1172010">
                <g id="Grupo_1171046" data-name="Grupo 1171046">
                  <g id="Grupo_1148525" data-name="Grupo 1148525">
                    <g transform="matrix(1, 0, 0, 1, -9, -6)" filter="url(#Trazado_982547)">
                      <g id="Trazado_982547-2" data-name="Trazado 982547" transform="translate(9 6)" fill="#f6ecfe">
                        <path d="M 47.5 93.5 C 41.28937149047852 93.5 35.26533508300781 92.28397369384766 29.59518623352051 89.88570404052734 C 24.11771965026855 87.56893157958984 19.19813346862793 84.25196075439453 14.97309303283691 80.02691650390625 C 10.74804019927979 75.80186462402344 7.431066513061523 70.88229370117188 5.114293098449707 65.40481567382812 C 2.716026782989502 59.73468017578125 1.5 53.71062850952148 1.5 47.5 C 1.5 41.28937149047852 2.716026782989502 35.26533508300781 5.114293098449707 29.59518623352051 C 7.431066513061523 24.11771965026855 10.74804019927979 19.19813346862793 14.97309303283691 14.97309303283691 C 19.19813346862793 10.74804019927979 24.11771965026855 7.431066513061523 29.59518623352051 5.114293098449707 C 35.26533508300781 2.716026782989502 41.28937149047852 1.5 47.5 1.5 C 53.71062850952148 1.5 59.73468017578125 2.716026782989502 65.40481567382812 5.114293098449707 C 70.88229370117188 7.431066513061523 75.80186462402344 10.74804019927979 80.02691650390625 14.97309303283691 C 84.25196075439453 19.19813346862793 87.56893157958984 24.11771965026855 89.88570404052734 29.59518623352051 C 92.28397369384766 35.26533508300781 93.5 41.28937149047852 93.5 47.5 C 93.5 53.71062850952148 92.28397369384766 59.73468017578125 89.88570404052734 65.40481567382812 C 87.56893157958984 70.88229370117188 84.25196075439453 75.80186462402344 80.02691650390625 80.02691650390625 C 75.80186462402344 84.25196075439453 70.88229370117188 87.56893157958984 65.40481567382812 89.88570404052734 C 59.73468017578125 92.28397369384766 53.71062850952148 93.5 47.5 93.5 Z" stroke="none"/>
                        <path d="M 47.5 3 C 41.49121475219727 3 35.66376876831055 4.176155090332031 30.17950439453125 6.495796203613281 C 24.88084411621094 8.736953735351562 20.12152099609375 11.94598388671875 16.03375244140625 16.03375244140625 C 11.94598388671875 20.12152099609375 8.736953735351562 24.88084411621094 6.495796203613281 30.17950439453125 C 4.176155090332031 35.66376876831055 3 41.49121475219727 3 47.5 C 3 53.50878524780273 4.176155090332031 59.33623123168945 6.495796203613281 64.82049560546875 C 8.736953735351562 70.11915588378906 11.94598388671875 74.87847900390625 16.03375244140625 78.96624755859375 C 20.12152099609375 83.05401611328125 24.88084411621094 86.26304626464844 30.17950439453125 88.50419616699219 C 35.66376876831055 90.82384490966797 41.49121475219727 92 47.5 92 C 53.50878524780273 92 59.33623123168945 90.82384490966797 64.82049560546875 88.50419616699219 C 70.11915588378906 86.26304626464844 74.87847900390625 83.05401611328125 78.96624755859375 78.96624755859375 C 83.05401611328125 74.87847900390625 86.26304626464844 70.11915588378906 88.50419616699219 64.82049560546875 C 90.82384490966797 59.33623123168945 92 53.50878524780273 92 47.5 C 92 41.49121475219727 90.82384490966797 35.66376876831055 88.50419616699219 30.17950439453125 C 86.26304626464844 24.88084411621094 83.05401611328125 20.12152099609375 78.96624755859375 16.03375244140625 C 74.87847900390625 11.94598388671875 70.11915588378906 8.736953735351562 64.82049560546875 6.495796203613281 C 59.33623123168945 4.176155090332031 53.50878524780273 3 47.5 3 M 47.5 0 C 73.7335205078125 0 95 21.2664794921875 95 47.5 C 95 73.7335205078125 73.7335205078125 95 47.5 95 C 21.2664794921875 95 0 73.7335205078125 0 47.5 C 0 21.2664794921875 21.2664794921875 0 47.5 0 Z" stroke="none" fill="#aa52f9"/>
                      </g>
                    </g>
                  </g>
                </g>
              </g>
            </g>
          </g>
        </g>
      </g>
    </g>
    <g id="market-fluctuation_7314694" transform="translate(1182.625 2680.591)">
      <g id="Grupo_1208916" data-name="Grupo 1208916" transform="translate(10.014 11.348)">
        <g id="Grupo_1208912" data-name="Grupo 1208912" transform="translate(33.735 28.027)">
          <path id="Trazado_1050257" data-name="Trazado 1050257" d="M295.075,264.839h-4.08a.9.9,0,0,1-.9-.9V256h5.876v7.941A.9.9,0,0,1,295.075,264.839Z" transform="translate(-290.097 -256)" fill="#fe646f"/>
          <path id="Trazado_1050258" data-name="Trazado 1050258" d="M299.8,256v7.941a.9.9,0,0,1-.9.9h3.848a.9.9,0,0,0,.9-.9V256Z" transform="translate(-297.773 -256)" fill="#fd4755"/>
          <path id="Trazado_1050259" data-name="Trazado 1050259" d="M370.075,268.687h-4.08a.9.9,0,0,1-.9-.9V256h5.876v11.789A.9.9,0,0,1,370.075,268.687Z" transform="translate(-355.477 -256)" fill="#fe646f"/>
          <path id="Trazado_1050260" data-name="Trazado 1050260" d="M374.8,256v11.789a.9.9,0,0,1-.9.9h3.848a.9.9,0,0,0,.9-.9V256Z" transform="translate(-363.153 -256)" fill="#fd4755"/>
          <path id="Trazado_1050261" data-name="Trazado 1050261" d="M445.075,274.459h-4.08a.9.9,0,0,1-.9-.9V256h5.876v17.561A.9.9,0,0,1,445.075,274.459Z" transform="translate(-420.856 -256)" fill="#fe646f"/>
          <path id="Trazado_1050262" data-name="Trazado 1050262" d="M449.8,256v17.561a.9.9,0,0,1-.9.9h3.848a.9.9,0,0,0,.9-.9V256Z" transform="translate(-428.533 -256)" fill="#fd4755"/>
        </g>
        <g id="Grupo_1208913" data-name="Grupo 1208913" transform="translate(0 9.568)">
          <path id="Trazado_1050263" data-name="Trazado 1050263" d="M32.075,187.093h-4.08a.9.9,0,0,0-.9.9v7.941h5.876v-7.941A.9.9,0,0,0,32.075,187.093Z" transform="translate(-27.097 -177.473)" fill="#ffd15b"/>
          <path id="Trazado_1050264" data-name="Trazado 1050264" d="M39.751,187.093H35.9a.9.9,0,0,1,.9.9v7.941h3.848v-7.941A.9.9,0,0,0,39.751,187.093Z" transform="translate(-34.773 -177.473)" fill="#ffc344"/>
          <path id="Trazado_1050265" data-name="Trazado 1050265" d="M107.075,157.093h-4.08a.9.9,0,0,0-.9.9V169.78h5.876V157.991A.9.9,0,0,0,107.075,157.093Z" transform="translate(-92.477 -151.321)" fill="#ffd15b"/>
          <path id="Trazado_1050266" data-name="Trazado 1050266" d="M114.751,157.093H110.9a.9.9,0,0,1,.9.9V169.78h3.848V157.991A.9.9,0,0,0,114.751,157.093Z" transform="translate(-100.153 -151.321)" fill="#ffc344"/>
          <path id="Trazado_1050267" data-name="Trazado 1050267" d="M182.075,112.093h-4.08a.9.9,0,0,0-.9.9v17.561h5.876V112.991A.9.9,0,0,0,182.075,112.093Z" transform="translate(-157.856 -112.093)" fill="#ffd15b"/>
          <path id="Trazado_1050268" data-name="Trazado 1050268" d="M189.751,112.093H185.9a.9.9,0,0,1,.9.9v17.561h3.848V112.991A.9.9,0,0,0,189.751,112.093Z" transform="translate(-165.533 -112.093)" fill="#ffc344"/>
        </g>
        <g id="Grupo_1208914" data-name="Grupo 1208914" transform="translate(35.052)">
          <circle id="Elipse_12728" data-name="Elipse 12728" cx="11.168" cy="11.168" r="11.168" fill="#ffd15b"/>
          <path id="Trazado_1050269" data-name="Trazado 1050269" d="M374.356,37.5a11.229,11.229,0,0,0-1.924.166,11.17,11.17,0,0,1,0,22.005A11.169,11.169,0,1,0,374.356,37.5Z" transform="translate(-363.188 -37.5)" fill="#ffc344"/>
        </g>
        <g id="Grupo_1208915" data-name="Grupo 1208915" transform="translate(1.334 33.718)">
          <circle id="Elipse_12729" data-name="Elipse 12729" cx="11.168" cy="11.168" r="11.168" fill="#fe646f"/>
          <path id="Trazado_1050270" data-name="Trazado 1050270" d="M111.492,300.365a11.241,11.241,0,0,0-1.924.166,11.17,11.17,0,0,1,0,22.005,11.169,11.169,0,1,0,1.924-22.171Z" transform="translate(-100.324 -300.365)" fill="#fd4755"/>
        </g>
      </g>
      <g id="Grupo_1208921" data-name="Grupo 1208921" transform="translate(7.5 7.5)">
        <line id="Línea_1518" data-name="Línea 1518" x1="63.751" transform="translate(0 31.875)" fill="none" stroke="#000" stroke-linecap="round" stroke-linejoin="round" stroke-miterlimit="10" stroke-width="1"/>
        <line id="Línea_1519" data-name="Línea 1519" y2="63.751" transform="translate(31.875)" fill="none" stroke="#000" stroke-linecap="round" stroke-linejoin="round" stroke-miterlimit="10" stroke-width="1"/>
        <g id="Grupo_1208917" data-name="Grupo 1208917" transform="translate(36.249 31.875)">
          <path id="Trazado_1050271" data-name="Trazado 1050271" d="M295.075,264.839h-4.08a.9.9,0,0,1-.9-.9V256h5.876v7.941A.9.9,0,0,1,295.075,264.839Z" transform="translate(-290.097 -256)" fill="none" stroke="#000" stroke-linecap="round" stroke-linejoin="round" stroke-miterlimit="10" stroke-width="1"/>
          <path id="Trazado_1050272" data-name="Trazado 1050272" d="M370.075,268.687h-4.08a.9.9,0,0,1-.9-.9V256h5.876v11.789A.9.9,0,0,1,370.075,268.687Z" transform="translate(-355.477 -256)" fill="none" stroke="#000" stroke-linecap="round" stroke-linejoin="round" stroke-miterlimit="10" stroke-width="1"/>
          <path id="Trazado_1050273" data-name="Trazado 1050273" d="M445.075,274.459h-4.08a.9.9,0,0,1-.9-.9V256h5.876v17.561A.9.9,0,0,1,445.075,274.459Z" transform="translate(-420.856 -256)" fill="none" stroke="#000" stroke-linecap="round" stroke-linejoin="round" stroke-miterlimit="10" stroke-width="1"/>
        </g>
        <g id="Grupo_1208918" data-name="Grupo 1208918" transform="translate(2.514 13.416)">
          <path id="Trazado_1050274" data-name="Trazado 1050274" d="M32.075,187.093h-4.08a.9.9,0,0,0-.9.9v7.941h5.876v-7.941A.9.9,0,0,0,32.075,187.093Z" transform="translate(-27.097 -177.473)" fill="none" stroke="#000" stroke-linecap="round" stroke-linejoin="round" stroke-miterlimit="10" stroke-width="1"/>
          <path id="Trazado_1050275" data-name="Trazado 1050275" d="M107.075,157.093h-4.08a.9.9,0,0,0-.9.9V169.78h5.876V157.991A.9.9,0,0,0,107.075,157.093Z" transform="translate(-92.477 -151.321)" fill="none" stroke="#000" stroke-linecap="round" stroke-linejoin="round" stroke-miterlimit="10" stroke-width="1"/>
          <path id="Trazado_1050276" data-name="Trazado 1050276" d="M182.075,112.093h-4.08a.9.9,0,0,0-.9.9v17.561h5.876V112.991A.9.9,0,0,0,182.075,112.093Z" transform="translate(-157.856 -112.093)" fill="none" stroke="#000" stroke-linecap="round" stroke-linejoin="round" stroke-miterlimit="10" stroke-width="1"/>
        </g>
        <g id="Grupo_1208919" data-name="Grupo 1208919" transform="translate(37.566 3.848)">
          <path id="Trazado_1050277" data-name="Trazado 1050277" d="M306.145,38.883a11.174,11.174,0,1,1-3.444,2.948" transform="translate(-300.365 -37.5)" fill="none" stroke="#000" stroke-linecap="round" stroke-linejoin="round" stroke-miterlimit="10" stroke-width="1"/>
          <line id="Línea_1520" data-name="Línea 1520" x2="5.392" transform="translate(8.472 11.168)" fill="none" stroke="#000" stroke-linecap="round" stroke-linejoin="round" stroke-miterlimit="10" stroke-width="1"/>
          <line id="Línea_1521" data-name="Línea 1521" y1="5.392" transform="translate(11.168 8.472)" fill="none" stroke="#000" stroke-linecap="round" stroke-linejoin="round" stroke-miterlimit="10" stroke-width="1"/>
        </g>
        <g id="Grupo_1208920" data-name="Grupo 1208920" transform="translate(3.848 37.566)">
          <path id="Trazado_1050278" data-name="Trazado 1050278" d="M39.251,317.539a11.168,11.168,0,1,1,3.122,3.22" transform="translate(-37.5 -300.365)" fill="none" stroke="#000" stroke-linecap="round" stroke-linejoin="round" stroke-miterlimit="10" stroke-width="1"/>
          <line id="Línea_1522" data-name="Línea 1522" x2="5.392" transform="translate(8.472 11.168)" fill="none" stroke="#000" stroke-linecap="round" stroke-linejoin="round" stroke-miterlimit="10" stroke-width="1"/>
        </g>
      </g>
    </g>
  </g>
</svg>
