<svg xmlns="http://www.w3.org/2000/svg" xmlns:xlink="http://www.w3.org/1999/xlink" width="108" height="108" viewBox="0 0 108 108">
  <defs>
    <filter id="Trazado_904820" x="0" y="0" width="108" height="108" filterUnits="userSpaceOnUse">
      <feOffset dy="3" input="SourceAlpha"/>
      <feGaussianBlur stdDeviation="3" result="blur"/>
      <feFlood flood-opacity="0.161"/>
      <feComposite operator="in" in2="blur"/>
      <feComposite in="SourceGraphic"/>
    </filter>
  </defs>
  <g id="Grupo_1208897" data-name="Grupo 1208897" transform="translate(-620 -459)">
    <g id="Grupo_1181677" data-name="Grupo 1181677" transform="translate(629 465)">
      <g id="Grupo_1173585" data-name="Grupo 1173585" transform="translate(0 0)">
        <g id="Grupo_1173428" data-name="Grupo 1173428">
          <g id="Grupo_1171958" data-name="Grupo 1171958">
            <g id="Grupo_1167341" data-name="Grupo 1167341">
              <g id="Grupo_1166792" data-name="Grupo 1166792">
                <g transform="matrix(1, 0, 0, 1, -9, -6)" filter="url(#Trazado_904820)">
                  <g id="Trazado_904820-2" data-name="Trazado 904820" transform="translate(9 6)" fill="#e5ebfb">
                    <path d="M 44.99999618530273 88.50003051757812 C 39.12687301635742 88.50003051757812 33.43022155761719 87.35010528564453 28.06829643249512 85.08219146728516 C 22.88852119445801 82.89134216308594 18.23629570007324 79.75461578369141 14.24084663391113 75.75916290283203 C 10.24540901184082 71.76371765136719 7.108683586120605 67.11148834228516 4.917821407318115 61.93171691894531 C 2.649921178817749 56.56978988647461 1.499996185302734 50.87313842773438 1.499996185302734 45.00001525878906 C 1.499996185302734 39.12689208984375 2.649921178817749 33.43024063110352 4.917821407318115 28.06830215454102 C 7.108683586120605 22.88852691650391 10.24540901184082 18.23631477355957 14.24084663391113 14.24086570739746 C 18.23629570007324 10.24541568756104 22.88852119445801 7.10869026184082 28.06829643249512 4.917827606201172 C 33.43022155761719 2.649927854537964 39.12687301635742 1.50000274181366 44.99999618530273 1.50000274181366 C 50.87311935424805 1.50000274181366 56.56977081298828 2.649927854537964 61.93169784545898 4.917827606201172 C 67.11147308349609 7.10869026184082 71.76369476318359 10.24541568756104 75.75914764404297 14.24086570739746 C 79.75458526611328 18.23631477355957 82.89131164550781 22.88852691650391 85.08216857910156 28.06830215454102 C 87.35007476806641 33.43024063110352 88.5 39.12689208984375 88.5 45.00001525878906 C 88.5 50.87313842773438 87.35007476806641 56.56978988647461 85.08216857910156 61.93171691894531 C 82.89131164550781 67.11148834228516 79.75458526611328 71.76371765136719 75.75914764404297 75.75916290283203 C 71.76369476318359 79.75461578369141 67.11147308349609 82.89134216308594 61.93169784545898 85.08219146728516 C 56.56977081298828 87.35010528564453 50.87311935424805 88.50003051757812 44.99999618530273 88.50003051757812 Z" stroke="none"/>
                    <path d="M 44.99999618530273 3 C 39.32870864868164 3 33.82865142822266 4.110061645507812 28.65262603759766 6.299346923828125 C 23.65165710449219 8.414573669433594 19.15968322753906 11.44334411621094 15.301513671875 15.301513671875 C 11.44333648681641 19.15968322753906 8.414566040039062 23.65165710449219 6.299339294433594 28.65262985229492 C 4.110054016113281 33.82867050170898 2.999992370605469 39.32872772216797 2.999992370605469 45.00001525878906 C 2.999992370605469 50.67130279541016 4.110054016113281 56.17136001586914 6.299339294433594 61.34738922119141 C 8.414566040039062 66.34837341308594 11.44333648681641 70.84033203125 15.301513671875 74.69850158691406 C 19.15968322753906 78.55668640136719 23.65165710449219 81.58545684814453 28.65262603759766 83.70068359375 C 33.82865142822266 85.88996887207031 39.32870864868164 87.00003051757812 44.99999618530273 87.00003051757812 C 50.67128372192383 87.00003051757812 56.17134094238281 85.88996887207031 61.34736633300781 83.70068359375 C 66.34834289550781 81.58545684814453 70.84030914306641 78.55668640136719 74.69847869873047 74.69850158691406 C 78.55665588378906 70.84033203125 81.58542633056641 66.34837341308594 83.70065307617188 61.34738922119141 C 85.88993835449219 56.17136001586914 87 50.67130279541016 87 45.00001525878906 C 87 39.32872772216797 85.88993835449219 33.82867050170898 83.70065307617188 28.65262985229492 C 81.58542633056641 23.65165710449219 78.55665588378906 19.15968322753906 74.69847869873047 15.301513671875 C 70.84030914306641 11.44334411621094 66.34834289550781 8.414573669433594 61.34736633300781 6.299346923828125 C 56.17134094238281 4.110061645507812 50.67128372192383 3 44.99999618530273 3 M 44.99999618530273 0 C 69.85281372070312 0 90 20.14718627929688 90 45.00001525878906 C 90 69.85282897949219 69.85281372070312 90.00003051757812 44.99999618530273 90.00003051757812 C 20.14717864990234 90.00003051757812 -7.62939453125e-06 69.85282897949219 -7.62939453125e-06 45.00001525878906 C -7.62939453125e-06 20.14718627929688 20.14717864990234 0 44.99999618530273 0 Z" stroke="none" fill="#0b47db"/>
                  </g>
                </g>
              </g>
            </g>
          </g>
        </g>
      </g>
    </g>
    <g id="data-management_11413001" transform="translate(624.906 423.215)">
      <path id="Trazado_1050200" data-name="Trazado 1050200" d="M73.437,101.854a2.58,2.58,0,0,1,1.246.515,2.009,2.009,0,0,1,.8,1.575c.016,2.465.423,4.495-1.761,6.259a6.543,6.543,0,0,1-4.054,1.381c-13.265.087-32.643.189-45.306.3a6.526,6.526,0,0,1-3.979-1.328c-2.211-1.738-1.825-3.834-1.841-6.24a2.006,2.006,0,0,1,.783-1.58,2.58,2.58,0,0,1,1.236-.53l-.2-30.416a3.16,3.16,0,0,1,2.918-3.346l35.662-.235a10.891,10.891,0,0,1,.686-1.453l-.632-.624a.957.957,0,0,1-.011-1.353l2.705-2.741a.957.957,0,0,1,1.353-.011l.635.627a11.047,11.047,0,0,1,1.253-.625,10.905,10.905,0,0,1,1.319-.459l-.006-.894a.956.956,0,0,1,.952-.96l3.851-.025a.956.956,0,0,1,.959.952l.006.887A10.833,10.833,0,0,1,74.6,62.579l.624-.632a.957.957,0,0,1,1.353-.011l2.741,2.705a.957.957,0,0,1,.011,1.353l-.627.635a11.02,11.02,0,0,1,.625,1.253,10.9,10.9,0,0,1,.46,1.319l.894-.006a.956.956,0,0,1,.96.952L81.662,74a.956.956,0,0,1-.952.959l-.887.006a10.836,10.836,0,0,1-1.051,2.587l.632.624a.957.957,0,0,1,.011,1.353L76.71,82.268a.957.957,0,0,1-1.353.011l-.635-.626a11.068,11.068,0,0,1-1.413.691l.128,19.511ZM65.516,68.16l4.778-.032a2.77,2.77,0,0,1,2.138,1.025,3.586,3.586,0,0,1,.818,2.287l.028,4.317a5.437,5.437,0,0,0-7.763-7.6Z" transform="translate(0)" fill-rule="evenodd"/>
      <path id="Trazado_1050201" data-name="Trazado 1050201" d="M101.494,161.228l-31.385.206.169,25.621,42.879-.282-.093-14.127-.972.006a.956.956,0,0,1-.96-.952l-.006-.887a10.837,10.837,0,0,1-2.587-1.051l-.624.632a.957.957,0,0,1-1.353.011l-2.741-2.705a.957.957,0,0,1-.011-1.353l.627-.635a11.057,11.057,0,0,1-.625-1.253,10.912,10.912,0,0,1-.46-1.319l-.894.006a.956.956,0,0,1-.959-.952l-.006-.967ZM80.44,166.274a9.981,9.981,0,0,1,10.046,9.919v0h0a.959.959,0,0,1-.96.959c-.027,0-.053,0-.078,0l-1.013.007a7.987,7.987,0,1,1-8.943-8.826l-.007-1.1A.956.956,0,0,1,80.44,166.274Zm16.3,17.927a.956.956,0,1,1-.008-1.911l10.29-.068a.956.956,0,1,1,.007,1.911Zm-1.764-4.244a.956.956,0,1,1-.007-1.911l12.026-.08a.956.956,0,1,1,.007,1.911Zm-1.77-4.422a.956.956,0,1,1-.008-1.911l13.767-.091a.956.956,0,1,1,.007,1.911Z" transform="translate(-44.727 -88.041)" fill="#fff" fill-rule="evenodd"/>
      <path id="Trazado_1050202" data-name="Trazado 1050202" d="M114.695,236.111l-6,.04a.956.956,0,0,1-.96-.952l-.04-6a6.074,6.074,0,1,0,7,6.909Z" transform="translate(-72.913 -146.979)" fill="#f28a07" fill-rule="evenodd"/>
      <path id="Trazado_1050203" data-name="Trazado 1050203" d="M159.861,216.222a8.053,8.053,0,0,0-4.767-2.278L155.14,221l7.06-.047a8.044,8.044,0,0,0-2.339-4.734Z" transform="translate(-118.414 -133.75)" fill="#fdc42d" fill-rule="evenodd"/>
      <path id="Trazado_1050204" data-name="Trazado 1050204" d="M359.494,138.751l5.357-.035a.956.956,0,0,1,.959.952l.035,5.352a5.378,5.378,0,0,0,1.173-.358l-.037-5.691a1.655,1.655,0,0,0-.368-1.058.892.892,0,0,0-.669-.351l-6.12.04A5.408,5.408,0,0,0,359.494,138.751Z" transform="translate(-295.643 -67.522)" fill="#c7c1b3" fill-rule="evenodd"/>
      <path id="Trazado_1050205" data-name="Trazado 1050205" d="M364.016,165.058l-.029-4.4-4.4.029A5.448,5.448,0,0,0,364.016,165.058Z" transform="translate(-295.725 -87.548)" fill="#fff" fill-rule="evenodd"/>
      <path id="Trazado_1050206" data-name="Trazado 1050206" d="M94.773,152.694l.1,15.085a.956.956,0,0,1-.952.959l-44.791.295a.956.956,0,0,1-.959-.952l-.181-27.533a.956.956,0,0,1,.952-.959l32.338-.213a8.051,8.051,0,0,1,.009-1.146l-33.465.22c-.676,0-1.017.858-1.014,1.427l.2,30.382,17.724-.117a.956.956,0,0,1,.959.944,1.352,1.352,0,0,0,.577,1.019,2.632,2.632,0,0,0,1.634.517l7.3-.048a2.621,2.621,0,0,0,1.621-.538,1.355,1.355,0,0,0,.564-1.027.956.956,0,0,1,.952-.956l17.718-.117-.114-17.273A7.2,7.2,0,0,1,94.773,152.694Z" transform="translate(-24.524 -68.101)" fill="#c7c1b3" fill-rule="evenodd"/>
      <path id="Trazado_1050207" data-name="Trazado 1050207" d="M51.846,391.2l-18.447.122a.709.709,0,0,0-.44.141c-.043.035-.07.065-.07.081.011,1.667-.372,3.572,1.114,4.741a4.6,4.6,0,0,0,2.8.923c25.254-.116,31.515-.207,45.3-.3a4.615,4.615,0,0,0,2.862-.961c1.471-1.188,1.06-3.077,1.049-4.76a.536.536,0,0,0-.086-.214c-.056-.044-17.208.114-18.874.125a3.415,3.415,0,0,1-1.122,1.569,4.553,4.553,0,0,1-2.813.958l-7.3.048a4.545,4.545,0,0,1-2.818-.921A3.42,3.42,0,0,1,51.846,391.2Z" transform="translate(-12.421 -287.237)" fill="gray" fill-rule="evenodd"/>
      <path id="Trazado_1050208" data-name="Trazado 1050208" d="M334.564,93a9.047,9.047,0,0,0,1.587-.868.958.958,0,0,1,1.24.137l.465.459,1.361-1.379-.492-.486a.957.957,0,0,1-.127-1.21s.788-1.461.845-1.6a9.014,9.014,0,0,0,.511-1.733.957.957,0,0,1,.986-.78l.642,0-.013-1.94-.7,0a.956.956,0,0,1-.945-.789,8.981,8.981,0,0,0-1.4-3.292.957.957,0,0,1,.138-1.24l.459-.465-1.379-1.361-.485.492a.957.957,0,0,1-1.21.127s-1.462-.789-1.6-.845a9.023,9.023,0,0,0-1.733-.511.957.957,0,0,1-.78-.986l0-.642-1.94.013,0,.7a.956.956,0,0,1-.789.945,8.982,8.982,0,0,0-3.292,1.4.957.957,0,0,1-1.24-.138l-.465-.459-1.361,1.379.492.485a.957.957,0,0,1,.127,1.21s-.788,1.461-.845,1.6a9.024,9.024,0,0,0-.511,1.733.957.957,0,0,1-.986.78l-.642,0,.013,1.94.7,0a.956.956,0,0,1,.945.789,8.991,8.991,0,0,0,1.4,3.292.957.957,0,0,1-.137,1.24l-.459.465,1.379,1.361.485-.492a.957.957,0,0,1,1.21-.127s1.461.788,1.6.845a9.017,9.017,0,0,0,1.733.511.957.957,0,0,1,.78.986l0,.642,1.94-.013,0-.7a.956.956,0,0,1,.789-.945,9.108,9.108,0,0,0,1.7-.528ZM330.99,77.288a7.35,7.35,0,1,1-5.188,2.188A7.35,7.35,0,0,1,330.99,77.288Z" transform="translate(-261.824 -12.489)" fill="#597aff" fill-rule="evenodd"/>
    </g>
  </g>
</svg>
