<svg xmlns="http://www.w3.org/2000/svg" xmlns:xlink="http://www.w3.org/1999/xlink" width="108" height="108" viewBox="0 0 108 108">
  <defs>
    <filter id="Trazado_904820" x="0" y="0" width="108" height="108" filterUnits="userSpaceOnUse">
      <feOffset dy="3" input="SourceAlpha"/>
      <feGaussianBlur stdDeviation="3" result="blur"/>
      <feFlood flood-opacity="0.161"/>
      <feComposite operator="in" in2="blur"/>
      <feComposite in="SourceGraphic"/>
    </filter>
  </defs>
  <g id="Grupo_1208927" data-name="Grupo 1208927" transform="translate(-620 -2136.789)">
    <g id="Grupo_1208675" data-name="Grupo 1208675" transform="translate(629 2142.789)">
      <g id="Grupo_1173585" data-name="Grupo 1173585" transform="translate(0 0)">
        <g id="Grupo_1173428" data-name="Grupo 1173428">
          <g id="Grupo_1171958" data-name="Grupo 1171958">
            <g id="Grupo_1167341" data-name="Grupo 1167341">
              <g id="Grupo_1166792" data-name="Grupo 1166792">
                <g transform="matrix(1, 0, 0, 1, -9, -6)" filter="url(#Trazado_904820)">
                  <g id="Trazado_904820-2" data-name="Trazado 904820" transform="translate(9 6)" fill="#f6ecfe">
                    <path d="M 44.99999618530273 88.50002288818359 C 39.12687301635742 88.50002288818359 33.43022155761719 87.35009765625 28.06829643249512 85.08218383789062 C 22.88852119445801 82.89133453369141 18.23629570007324 79.75460815429688 14.24084663391113 75.7591552734375 C 10.24540901184082 71.76371002197266 7.108683586120605 67.11148071289062 4.917821407318115 61.93170928955078 C 2.649921178817749 56.56978225708008 1.499996185302734 50.87313079833984 1.499996185302734 45.00000762939453 C 1.499996185302734 39.12688446044922 2.649921178817749 33.43023300170898 4.917821407318115 28.06830787658691 C 7.108683586120605 22.8885326385498 10.24540901184082 18.23630714416504 14.24084663391113 14.24085807800293 C 18.23629570007324 10.24542045593262 22.88852119445801 7.108695030212402 28.06829643249512 4.917832851409912 C 33.43022155761719 2.649932622909546 39.12687301635742 1.500007629394531 44.99999618530273 1.500007629394531 C 50.87311935424805 1.500007629394531 56.56977081298828 2.649932622909546 61.93169784545898 4.917832851409912 C 67.11147308349609 7.108695030212402 71.76369476318359 10.24542045593262 75.75914764404297 14.24085807800293 C 79.75458526611328 18.23630714416504 82.89131164550781 22.8885326385498 85.08216857910156 28.06830787658691 C 87.35007476806641 33.43023300170898 88.5 39.12688446044922 88.5 45.00000762939453 C 88.5 50.87313079833984 87.35007476806641 56.56978225708008 85.08216857910156 61.93170928955078 C 82.89131164550781 67.11148071289062 79.75458526611328 71.76371002197266 75.75914764404297 75.7591552734375 C 71.76369476318359 79.75460815429688 67.11147308349609 82.89133453369141 61.93169784545898 85.08218383789062 C 56.56977081298828 87.35009765625 50.87311935424805 88.50002288818359 44.99999618530273 88.50002288818359 Z" stroke="none"/>
                    <path d="M 44.99999618530273 2.999992370605469 C 39.32870864868164 2.999992370605469 33.82865142822266 4.110054016113281 28.65262603759766 6.299339294433594 C 23.65165710449219 8.414566040039062 19.15968322753906 11.44333648681641 15.301513671875 15.30152130126953 C 11.44333648681641 19.15969085693359 8.414566040039062 23.65164947509766 6.299339294433594 28.65263748168945 C 4.110054016113281 33.82866287231445 2.999992370605469 39.32872009277344 2.999992370605469 45.00000762939453 C 2.999992370605469 50.67129516601562 4.110054016113281 56.17133712768555 6.299339294433594 61.34738159179688 C 8.414566040039062 66.34835052490234 11.44333648681641 70.84030914306641 15.301513671875 74.69849395751953 C 19.15968322753906 78.55666351318359 23.65165710449219 81.58543395996094 28.65262603759766 83.70066833496094 C 33.82865142822266 85.88995361328125 39.32870864868164 87.00000762939453 44.99999618530273 87.00000762939453 C 50.67128372192383 87.00000762939453 56.17134094238281 85.88995361328125 61.34736633300781 83.70066833496094 C 66.34834289550781 81.58543395996094 70.84030914306641 78.55666351318359 74.69847869873047 74.69849395751953 C 78.55665588378906 70.84030914306641 81.58542633056641 66.34835052490234 83.70065307617188 61.34738159179688 C 85.88993835449219 56.17133712768555 87 50.67129516601562 87 45.00000762939453 C 87 39.32872009277344 85.88993835449219 33.82866287231445 83.70065307617188 28.65263748168945 C 81.58542633056641 23.65164947509766 78.55665588378906 19.15969085693359 74.69847869873047 15.30152130126953 C 70.84030914306641 11.44333648681641 66.34834289550781 8.414566040039062 61.34736633300781 6.299339294433594 C 56.17134094238281 4.110054016113281 50.67128372192383 2.999992370605469 44.99999618530273 2.999992370605469 M 44.99999618530273 -7.62939453125e-06 C 69.85281372070312 -7.62939453125e-06 90 20.14719390869141 90 45.00000762939453 C 90 69.85280609130859 69.85281372070312 90.00000762939453 44.99999618530273 90.00000762939453 C 20.14717864990234 90.00000762939453 -7.62939453125e-06 69.85280609130859 -7.62939453125e-06 45.00000762939453 C -7.62939453125e-06 20.14719390869141 20.14717864990234 -7.62939453125e-06 44.99999618530273 -7.62939453125e-06 Z" stroke="none" fill="#aa52f9"/>
                  </g>
                </g>
              </g>
            </g>
          </g>
        </g>
      </g>
    </g>
    <g id="bar_chart-element-graph-diagram-infographic" data-name="bar chart-element-graph-diagram-infographic" transform="translate(646.165 2160.665)">
      <path id="Trazado_1050287" data-name="Trazado 1050287" d="M3,49H40.158v6.756H3Z" transform="translate(-0.156 -7.309)" fill="#006df0"/>
      <path id="Trazado_1050288" data-name="Trazado 1050288" d="M3,35H28.335v6.756H3Z" transform="translate(-0.156 -5.132)" fill="#ffcd00"/>
      <path id="Trazado_1050289" data-name="Trazado 1050289" d="M3,21H18.2v6.756H3Z" transform="translate(-0.156 -2.955)" fill="#ed1c24"/>
      <path id="Trazado_1050290" data-name="Trazado 1050290" d="M3,7H33.4v6.756H3Z" transform="translate(-0.156 -0.778)" fill="#7ed63e"/>
      <path id="Trazado_1050291" data-name="Trazado 1050291" d="M2,11H33.246v3.378H2Z" transform="translate(0 -1.4)" fill="#5eac24"/>
      <path id="Trazado_1050292" data-name="Trazado 1050292" d="M3,39H28.335v3.378H3Z" transform="translate(-0.156 -5.754)" fill="#ebbf00"/>
      <path id="Trazado_1050293" data-name="Trazado 1050293" d="M3,25H18.2v3.378H3Z" transform="translate(-0.156 -3.577)" fill="#d80027"/>
      <path id="Trazado_1050294" data-name="Trazado 1050294" d="M3,53H40.158v3.378H3Z" transform="translate(-0.156 -7.931)" fill="#005ece"/>
      <g id="Grupo_1208926" data-name="Grupo 1208926" transform="translate(2 2)">
        <path id="Trazado_1050295" data-name="Trazado 1050295" d="M50.981,50.981H3.689V49.292H40a.844.844,0,0,0,.845-.844V41.691A.844.844,0,0,0,40,40.847H3.689V37.469h24.49a.845.845,0,0,0,.844-.845V29.868a.844.844,0,0,0-.844-.844H3.689V25.646H18.045a.844.844,0,0,0,.844-.844V18.045a.844.844,0,0,0-.844-.844H3.689V13.823H33.246a.845.845,0,0,0,.845-.844V6.222a.845.845,0,0,0-.845-.844H3.689V2.844A.844.844,0,0,0,2,2.844V51.825a.844.844,0,0,0,.844.844H50.981a.844.844,0,0,0,0-1.689ZM3.689,7.067H32.4v5.067H3.689Zm0,11.823H17.2v5.067H3.689Zm0,11.823H27.335V35.78H3.689Zm0,11.823H39.158V47.6H3.689Z" transform="translate(-2 -2)" fill="#231f20"/>
        <path id="Trazado_1050296" data-name="Trazado 1050296" d="M51.289,13.689H42.844a.844.844,0,0,1,0-1.689h8.445a.844.844,0,0,1,0,1.689Z" transform="translate(-8.22 -3.555)" fill="#231f20"/>
        <path id="Trazado_1050297" data-name="Trazado 1050297" d="M33.289,27.689H24.844a.844.844,0,0,1,0-1.689h8.445a.844.844,0,0,1,0,1.689Z" transform="translate(-5.421 -5.732)" fill="#231f20"/>
        <path id="Trazado_1050298" data-name="Trazado 1050298" d="M33.289,23.689H24.844a.844.844,0,0,1,0-1.689h8.445a.844.844,0,0,1,0,1.689Z" transform="translate(-5.421 -5.11)" fill="#231f20"/>
        <path id="Trazado_1050299" data-name="Trazado 1050299" d="M45.289,41.689H36.844a.844.844,0,1,1,0-1.689h8.445a.844.844,0,1,1,0,1.689Z" transform="translate(-7.287 -7.909)" fill="#231f20"/>
        <path id="Trazado_1050300" data-name="Trazado 1050300" d="M45.289,37.689H36.844a.844.844,0,1,1,0-1.689h8.445a.844.844,0,1,1,0,1.689Z" transform="translate(-7.287 -7.287)" fill="#231f20"/>
        <path id="Trazado_1050301" data-name="Trazado 1050301" d="M59.289,55.689H50.845a.844.844,0,1,1,0-1.689h8.445a.844.844,0,0,1,0,1.689Z" transform="translate(-9.464 -10.086)" fill="#231f20"/>
        <path id="Trazado_1050302" data-name="Trazado 1050302" d="M59.289,51.689H50.845a.844.844,0,1,1,0-1.689h8.445a.844.844,0,0,1,0,1.689Z" transform="translate(-9.464 -9.464)" fill="#231f20"/>
        <path id="Trazado_1050303" data-name="Trazado 1050303" d="M51.289,9.689H42.844a.844.844,0,0,1,0-1.689h8.445a.844.844,0,0,1,0,1.689Z" transform="translate(-8.22 -2.933)" fill="#231f20"/>
      </g>
    </g>
  </g>
</svg>
