<svg xmlns="http://www.w3.org/2000/svg" xmlns:xlink="http://www.w3.org/1999/xlink" width="108" height="108" viewBox="0 0 108 108">
  <defs>
    <filter id="Trazado_904820" x="0" y="0" width="108" height="108" filterUnits="userSpaceOnUse">
      <feOffset dy="3" input="SourceAlpha"/>
      <feGaussianBlur stdDeviation="3" result="blur"/>
      <feFlood flood-opacity="0.161"/>
      <feComposite operator="in" in2="blur"/>
      <feComposite in="SourceGraphic"/>
    </filter>
  </defs>
  <g id="Grupo_1208929" data-name="Grupo 1208929" transform="translate(-620 -475.614)">
    <g id="Grupo_1208678" data-name="Grupo 1208678" transform="translate(629 481.614)">
      <g id="Grupo_1173585" data-name="Grupo 1173585" transform="translate(0 0)">
        <g id="Grupo_1173428" data-name="Grupo 1173428">
          <g id="Grupo_1171958" data-name="Grupo 1171958">
            <g id="Grupo_1167341" data-name="Grupo 1167341">
              <g id="Grupo_1166792" data-name="Grupo 1166792">
                <g transform="matrix(1, 0, 0, 1, -9, -6)" filter="url(#Trazado_904820)">
                  <g id="Trazado_904820-2" data-name="Trazado 904820" transform="translate(9 6)" fill="#e5fdfa">
                    <path d="M 44.99999618530273 88.50002288818359 C 39.12687301635742 88.50002288818359 33.43022155761719 87.35009765625 28.06829643249512 85.08218383789062 C 22.88852119445801 82.89133453369141 18.23629570007324 79.75460815429688 14.24084663391113 75.75916290283203 C 10.24540901184082 71.76371002197266 7.108683586120605 67.11148834228516 4.917821407318115 61.93171310424805 C 2.649921178817749 56.56978607177734 1.499996185302734 50.87313461303711 1.499996185302734 45.0000114440918 C 1.499996185302734 39.12688827514648 2.649921178817749 33.43023681640625 4.917821407318115 28.06831169128418 C 7.108683586120605 22.88853645324707 10.24540901184082 18.2363109588623 14.24084663391113 14.2408618927002 C 18.23629570007324 10.24541187286377 22.88852119445801 7.108686447143555 28.06829643249512 4.917836666107178 C 33.43022155761719 2.649924039840698 39.12687301635742 1.499998927116394 44.99999618530273 1.499998927116394 C 50.87311935424805 1.499998927116394 56.56977081298828 2.649924039840698 61.93169784545898 4.917836666107178 C 67.11147308349609 7.108686447143555 71.76369476318359 10.24541187286377 75.75914764404297 14.2408618927002 C 79.75458526611328 18.2363109588623 82.89131164550781 22.88853645324707 85.08216857910156 28.06831169128418 C 87.35007476806641 33.43023681640625 88.5 39.12688827514648 88.5 45.0000114440918 C 88.5 50.87313461303711 87.35007476806641 56.56978607177734 85.08216857910156 61.93171310424805 C 82.89131164550781 67.11148834228516 79.75458526611328 71.76371002197266 75.75914764404297 75.75916290283203 C 71.76369476318359 79.75460815429688 67.11147308349609 82.89133453369141 61.93169784545898 85.08218383789062 C 56.56977081298828 87.35009765625 50.87311935424805 88.50002288818359 44.99999618530273 88.50002288818359 Z" stroke="none"/>
                    <path d="M 44.99999618530273 3 C 39.32870864868164 3 33.82865142822266 4.110054016113281 28.65262603759766 6.299339294433594 C 23.65165710449219 8.414566040039062 19.15968322753906 11.44333648681641 15.301513671875 15.30152893066406 C 11.44333648681641 19.15969848632812 8.414566040039062 23.65165710449219 6.299339294433594 28.65264129638672 C 4.110054016113281 33.82866668701172 2.999992370605469 39.3287239074707 2.999992370605469 45.0000114440918 C 2.999992370605469 50.67129898071289 4.110054016113281 56.17135620117188 6.299339294433594 61.34738159179688 C 8.414566040039062 66.34836578369141 11.44333648681641 70.84032440185547 15.301513671875 74.69849395751953 C 19.15968322753906 78.55668640136719 23.65165710449219 81.58545684814453 28.65262603759766 83.70068359375 C 33.82865142822266 85.88996887207031 39.32870864868164 87.00002288818359 44.99999618530273 87.00002288818359 C 50.67128372192383 87.00002288818359 56.17134094238281 85.88996887207031 61.34736633300781 83.70068359375 C 66.34834289550781 81.58545684814453 70.84030914306641 78.55668640136719 74.69847869873047 74.69849395751953 C 78.55665588378906 70.84032440185547 81.58542633056641 66.34836578369141 83.70065307617188 61.34738159179688 C 85.88993835449219 56.17135620117188 87 50.67129898071289 87 45.0000114440918 C 87 39.3287239074707 85.88993835449219 33.82866668701172 83.70065307617188 28.65264129638672 C 81.58542633056641 23.65165710449219 78.55665588378906 19.15969848632812 74.69847869873047 15.30152893066406 C 70.84030914306641 11.44333648681641 66.34834289550781 8.414566040039062 61.34736633300781 6.299339294433594 C 56.17134094238281 4.110054016113281 50.67128372192383 3 44.99999618530273 3 M 44.99999618530273 0 C 69.85281372070312 0 90 20.14719390869141 90 45.0000114440918 C 90 69.85282897949219 69.85281372070312 90.00002288818359 44.99999618530273 90.00002288818359 C 20.14717864990234 90.00002288818359 -7.62939453125e-06 69.85282897949219 -7.62939453125e-06 45.0000114440918 C -7.62939453125e-06 20.14719390869141 20.14717864990234 0 44.99999618530273 0 Z" stroke="none" fill="#098576"/>
                  </g>
                </g>
              </g>
            </g>
          </g>
        </g>
      </g>
    </g>
    <g id="kpi_3862940_1_" data-name="kpi_3862940 (1)" transform="translate(643.86 494.987)">
      <path id="Trazado_1050304" data-name="Trazado 1050304" d="M5,51.692V19.872A1.872,1.872,0,0,1,6.872,18H53.667a1.872,1.872,0,0,1,1.872,1.872V51.692" transform="translate(-0.256 -1.09)" fill="#ccc"/>
      <path id="Trazado_1050305" data-name="Trazado 1050305" d="M9,51.949V22H52.051V51.949" transform="translate(-0.513 -1.346)" fill="#f2f2f2"/>
      <path id="Trazado_1050306" data-name="Trazado 1050306" d="M31.615,43.615H26A5.615,5.615,0,0,1,31.615,38Z" transform="translate(-1.603 -2.372)" fill="#5e87ca"/>
      <path id="Trazado_1050307" data-name="Trazado 1050307" d="M35.971,47.586,32,43.615V38a5.615,5.615,0,0,1,3.971,9.586Z" transform="translate(-1.987 -2.372)" fill="#4c6cb5"/>
      <path id="Trazado_1050308" data-name="Trazado 1050308" d="M35.586,47.971A5.615,5.615,0,0,1,26,44h5.615Z" transform="translate(-1.603 -2.756)" fill="#3b5892"/>
      <path id="Trazado_1050309" data-name="Trazado 1050309" d="M24.357,36.657a9.329,9.329,0,0,0-2.741,6.618H16a14.931,14.931,0,0,1,4.386-10.589Z" transform="translate(-0.962 -2.031)" fill="#fce797"/>
      <path id="Trazado_1050310" data-name="Trazado 1050310" d="M31.275,28.071a14.931,14.931,0,0,0-10.589,4.386l3.971,3.971a9.329,9.329,0,0,1,6.618-2.741Z" transform="translate(-1.262 -1.735)" fill="#f9d266"/>
      <path id="Trazado_1050311" data-name="Trazado 1050311" d="M42.589,32.386l-3.971,3.971A9.329,9.329,0,0,0,32,33.615V28a14.931,14.931,0,0,1,10.589,4.386Z" transform="translate(-1.987 -1.731)" fill="#f0ae42"/>
      <path id="Trazado_1050312" data-name="Trazado 1050312" d="M43.042,32.686a14.931,14.931,0,0,1,4.386,10.589H41.812a9.329,9.329,0,0,0-2.741-6.618Z" transform="translate(-2.44 -2.031)" fill="#d5883e"/>
      <path id="Trazado_1050313" data-name="Trazado 1050313" d="M3.872,54h52.41a1.872,1.872,0,0,1,1.872,1.872v1.872a3.744,3.744,0,0,1-3.744,3.744H5.744A3.744,3.744,0,0,1,2,57.744V55.872A1.872,1.872,0,0,1,3.872,54Z" transform="translate(-0.064 -3.397)" fill="#939393"/>
      <path id="Trazado_1050314" data-name="Trazado 1050314" d="M55.346,54H3.872A1.872,1.872,0,0,0,2,55.872v1.872a3.7,3.7,0,0,0,.212,1.191H53.474a1.872,1.872,0,0,0,1.872-1.872Z" transform="translate(-0.064 -3.397)" fill="#b5b5b5"/>
      <g id="Grupo_1208928" data-name="Grupo 1208928" transform="translate(11.295 23.462)">
        <path id="Trazado_1050315" data-name="Trazado 1050315" d="M26,54l.936,3.744h9.359L37.231,54" transform="translate(-12.897 -26.859)" fill="#ccc"/>
        <path id="Trazado_1050316" data-name="Trazado 1050316" d="M13.872,28.744a1.872,1.872,0,1,1,1.872-1.872A1.872,1.872,0,0,1,13.872,28.744Z" transform="translate(-12 -25)" fill="#ccc"/>
        <path id="Trazado_1050317" data-name="Trazado 1050317" d="M49.872,28.744a1.872,1.872,0,1,1,1.872-1.872A1.872,1.872,0,0,1,49.872,28.744Z" transform="translate(-14.308 -25)" fill="#ccc"/>
      </g>
      <path id="Trazado_1050318" data-name="Trazado 1050318" d="M34.974,16.974,31.231,22.59l-3.744-5.615H21.872A1.872,1.872,0,0,1,20,15.1V3.872A1.872,1.872,0,0,1,21.872,2H40.59a1.872,1.872,0,0,1,1.872,1.872V15.1a1.872,1.872,0,0,1-1.872,1.872Z" transform="translate(-1.218 -0.064)" fill="#b52f28"/>
      <path id="Trazado_1050319" data-name="Trazado 1050319" d="M40.554,12.82V2H21.872A1.872,1.872,0,0,0,20,3.872V12.82Z" transform="translate(-1.218 -0.064)" fill="#d23f34"/>
      <path id="Trazado_1050320" data-name="Trazado 1050320" d="M29.551,5H27.679a3.744,3.744,0,0,1-2.808,3.611V5H23v9.359h1.872V10.748a3.744,3.744,0,0,1,2.808,3.611h1.872a5.615,5.615,0,0,0-2.518-4.679A5.615,5.615,0,0,0,29.551,5Z" transform="translate(-1.41 -0.256)" fill="#e2e7f6"/>
      <path id="Trazado_1050321" data-name="Trazado 1050321" d="M34.744,5H31.936A.936.936,0,0,0,31,5.936v8.423h1.872V10.615h1.872a2.808,2.808,0,1,0,0-5.615Zm0,3.744H32.872V6.872h1.872a.936.936,0,1,1,0,1.872Z" transform="translate(-1.923 -0.256)" fill="#e2e7f6"/>
      <path id="Trazado_1050322" data-name="Trazado 1050322" d="M39,5h1.872v9.359H39Z" transform="translate(-2.436 -0.256)" fill="#e2e7f6"/>
      <path id="Trazado_1050323" data-name="Trazado 1050323" d="M56.218,49.667V18.782a2.808,2.808,0,0,0-2.808-2.808h-11.4a2.776,2.776,0,0,0,.172-.936V3.808A2.808,2.808,0,0,0,39.372,1H20.654a2.808,2.808,0,0,0-2.808,2.808V15.038a2.776,2.776,0,0,0,.172.936H6.615a2.808,2.808,0,0,0-2.808,2.808V49.667A2.808,2.808,0,0,0,1,52.474v1.872a4.685,4.685,0,0,0,4.679,4.679H54.346a4.685,4.685,0,0,0,4.679-4.679V52.474a2.808,2.808,0,0,0-2.808-2.808ZM54.346,18.782V49.667H52.474V20.654a.936.936,0,0,0-.936-.936H33.008l1.248-1.872H53.41A.936.936,0,0,1,54.346,18.782ZM9.423,49.667V21.59H28.265l.97,1.453a.936.936,0,0,0,1.557,0l.97-1.453H50.6V49.667Zm25.006,1.872-.468,1.872h-7.9L25.6,51.539Zm-14.711-36.5V3.808a.936.936,0,0,1,.936-.936H39.372a.936.936,0,0,1,.936.936V15.038a.936.936,0,0,1-.936.936H33.756a.936.936,0,0,0-.779.417l-2.965,4.45-2.965-4.446a.936.936,0,0,0-.779-.42H20.654a.936.936,0,0,1-.936-.936ZM5.679,18.782a.936.936,0,0,1,.936-.936H25.769l1.249,1.872H8.487a.936.936,0,0,0-.936.936V49.667H5.679ZM57.154,54.346a2.808,2.808,0,0,1-2.808,2.808H5.679a2.808,2.808,0,0,1-2.808-2.808V52.474a.936.936,0,0,1,.936-.936H23.667l.759,3.034a.936.936,0,0,0,.908.709h9.359a.936.936,0,0,0,.908-.709l.759-3.034H56.218a.936.936,0,0,1,.936.936Z"/>
      <path id="Trazado_1050324" data-name="Trazado 1050324" d="M30.91,27A15.928,15.928,0,0,0,15,42.91a.936.936,0,0,0,.936.936h5.615a.936.936,0,0,0,.936-.936,8.423,8.423,0,1,1,16.846,0,.936.936,0,0,0,.936.936h5.615a.936.936,0,0,0,.936-.936A15.928,15.928,0,0,0,30.91,27ZM20.658,41.974H16.9a13.975,13.975,0,0,1,3.449-8.3l2.658,2.658a10.247,10.247,0,0,0-2.352,5.642Zm3.676-6.965-2.651-2.651a13.953,13.953,0,0,1,8.292-3.44v3.744a10.238,10.238,0,0,0-5.641,2.348Zm7.512-2.349V28.917a13.953,13.953,0,0,1,8.292,3.44l-2.651,2.651a10.238,10.238,0,0,0-5.641-2.348Zm9.317,9.314a10.247,10.247,0,0,0-2.352-5.642l2.658-2.658a13.975,13.975,0,0,1,3.449,8.3Z" transform="translate(-0.897 -1.667)"/>
      <path id="Trazado_1050325" data-name="Trazado 1050325" d="M31.551,37A6.551,6.551,0,1,0,38.1,43.551,6.551,6.551,0,0,0,31.551,37Zm-.936,1.965v3.65h-3.65A4.694,4.694,0,0,1,30.615,38.965Zm-3.65,5.522h4.2l2.964,2.964a4.671,4.671,0,0,1-7.161-2.964Zm8.485,1.641-2.963-2.964v-4.2a4.671,4.671,0,0,1,2.964,7.161Z" transform="translate(-1.538 -2.308)"/>
      <path id="Trazado_1050326" data-name="Trazado 1050326" d="M27.679,14.359h1.872a5.615,5.615,0,0,0-2.518-4.679A5.615,5.615,0,0,0,29.551,5H27.679a3.744,3.744,0,0,1-2.808,3.611V5H23v9.359h1.872V10.748A3.744,3.744,0,0,1,27.679,14.359Z" transform="translate(-1.41 -0.256)"/>
      <path id="Trazado_1050327" data-name="Trazado 1050327" d="M32.872,10.615h1.872a2.808,2.808,0,1,0,0-5.615H31.936A.936.936,0,0,0,31,5.936v8.423h1.872Zm0-3.744h1.872a.936.936,0,1,1,0,1.872H32.872Z" transform="translate(-1.923 -0.256)"/>
      <path id="Trazado_1050328" data-name="Trazado 1050328" d="M39,5h1.872v9.359H39Z" transform="translate(-2.436 -0.256)"/>
      <circle id="Elipse_12730" data-name="Elipse 12730" cx="2" cy="2" r="2" transform="translate(11.013 23.013)"/>
      <circle id="Elipse_12731" data-name="Elipse 12731" cx="2" cy="2" r="2" transform="translate(45.013 23.013)"/>
    </g>
  </g>
</svg>
