<svg xmlns="http://www.w3.org/2000/svg" xmlns:xlink="http://www.w3.org/1999/xlink" width="113" height="113" viewBox="0 0 113 113">
  <defs>
    <filter id="Trazado_982547" x="0" y="0" width="113" height="113" filterUnits="userSpaceOnUse">
      <feOffset dy="3" input="SourceAlpha"/>
      <feGaussianBlur stdDeviation="3" result="blur"/>
      <feFlood flood-opacity="0.161"/>
      <feComposite operator="in" in2="blur"/>
      <feComposite in="SourceGraphic"/>
    </filter>
  </defs>
  <g id="Grupo_1208681" data-name="Grupo 1208681" transform="translate(-272 -1977.629)">
    <g id="Grupo_1208147" data-name="Grupo 1208147" transform="translate(0 -3923.371)">
      <g id="Grupo_1202432" data-name="Grupo 1202432" transform="translate(0 1255.486)">
        <g id="Grupo_1202055" data-name="Grupo 1202055" transform="translate(0 3240.511)">
          <g id="Grupo_1177900" data-name="Grupo 1177900" transform="translate(281 1411.003)">
            <g id="Grupo_1172010" data-name="Grupo 1172010" transform="translate(0)">
              <g id="Grupo_1171046" data-name="Grupo 1171046">
                <g id="Grupo_1148525" data-name="Grupo 1148525">
                  <g transform="matrix(1, 0, 0, 1, -9, -6)" filter="url(#Trazado_982547)">
                    <g id="Trazado_982547-2" data-name="Trazado 982547" transform="translate(9 6)" fill="#f6ecfe">
                      <path d="M 47.5 93.5 C 41.28937149047852 93.5 35.26533508300781 92.28397369384766 29.59518623352051 89.88570404052734 C 24.11771965026855 87.56893157958984 19.19813346862793 84.25196075439453 14.97309303283691 80.02691650390625 C 10.74804019927979 75.80186462402344 7.431066513061523 70.88229370117188 5.114293098449707 65.40481567382812 C 2.716026782989502 59.73468017578125 1.5 53.71062850952148 1.5 47.5 C 1.5 41.28937149047852 2.716026782989502 35.26533508300781 5.114293098449707 29.59518623352051 C 7.431066513061523 24.11771965026855 10.74804019927979 19.19813346862793 14.97309303283691 14.97309303283691 C 19.19813346862793 10.74804019927979 24.11771965026855 7.431066513061523 29.59518623352051 5.114293098449707 C 35.26533508300781 2.716026782989502 41.28937149047852 1.5 47.5 1.5 C 53.71062850952148 1.5 59.73468017578125 2.716026782989502 65.40481567382812 5.114293098449707 C 70.88229370117188 7.431066513061523 75.80186462402344 10.74804019927979 80.02691650390625 14.97309303283691 C 84.25196075439453 19.19813346862793 87.56893157958984 24.11771965026855 89.88570404052734 29.59518623352051 C 92.28397369384766 35.26533508300781 93.5 41.28937149047852 93.5 47.5 C 93.5 53.71062850952148 92.28397369384766 59.73468017578125 89.88570404052734 65.40481567382812 C 87.56893157958984 70.88229370117188 84.25196075439453 75.80186462402344 80.02691650390625 80.02691650390625 C 75.80186462402344 84.25196075439453 70.88229370117188 87.56893157958984 65.40481567382812 89.88570404052734 C 59.73468017578125 92.28397369384766 53.71062850952148 93.5 47.5 93.5 Z" stroke="none"/>
                      <path d="M 47.5 3 C 41.49121475219727 3 35.66376876831055 4.176155090332031 30.17950439453125 6.495796203613281 C 24.88084411621094 8.736953735351562 20.12152099609375 11.94598388671875 16.03375244140625 16.03375244140625 C 11.94598388671875 20.12152099609375 8.736953735351562 24.88084411621094 6.495796203613281 30.17950439453125 C 4.176155090332031 35.66376876831055 3 41.49121475219727 3 47.5 C 3 53.50878524780273 4.176155090332031 59.33623123168945 6.495796203613281 64.82049560546875 C 8.736953735351562 70.11915588378906 11.94598388671875 74.87847900390625 16.03375244140625 78.96624755859375 C 20.12152099609375 83.05401611328125 24.88084411621094 86.26304626464844 30.17950439453125 88.50419616699219 C 35.66376876831055 90.82384490966797 41.49121475219727 92 47.5 92 C 53.50878524780273 92 59.33623123168945 90.82384490966797 64.82049560546875 88.50419616699219 C 70.11915588378906 86.26304626464844 74.87847900390625 83.05401611328125 78.96624755859375 78.96624755859375 C 83.05401611328125 74.87847900390625 86.26304626464844 70.11915588378906 88.50419616699219 64.82049560546875 C 90.82384490966797 59.33623123168945 92 53.50878524780273 92 47.5 C 92 41.49121475219727 90.82384490966797 35.66376876831055 88.50419616699219 30.17950439453125 C 86.26304626464844 24.88084411621094 83.05401611328125 20.12152099609375 78.96624755859375 16.03375244140625 C 74.87847900390625 11.94598388671875 70.11915588378906 8.736953735351562 64.82049560546875 6.495796203613281 C 59.33623123168945 4.176155090332031 53.50878524780273 3 47.5 3 M 47.5 0 C 73.7335205078125 0 95 21.2664794921875 95 47.5 C 95 73.7335205078125 73.7335205078125 95 47.5 95 C 21.2664794921875 95 0 73.7335205078125 0 47.5 C 0 21.2664794921875 21.2664794921875 0 47.5 0 Z" stroke="none" fill="#aa52f9"/>
                    </g>
                  </g>
                </g>
              </g>
            </g>
          </g>
        </g>
      </g>
    </g>
    <g id="high-quality_18188160" transform="translate(292 1996.825)">
      <g id="Grupo_1208750" data-name="Grupo 1208750" transform="translate(14.23 39.809)">
        <path id="Trazado_1049673" data-name="Trazado 1049673" d="M23.528,62.183l-4.674,4.674L29.008,77.011c.435-.414.848-.827.911-.889a12.325,12.325,0,0,1,8.293-3.061H46.3a10.25,10.25,0,0,0,6.991-2.626L66.979,58.419a1.913,1.913,0,0,0,.724-1.593,2.034,2.034,0,0,0-.724-1.593,4.247,4.247,0,0,0-5.584,0L50.805,64.5a1.3,1.3,0,0,0-.02-.393,4.224,4.224,0,0,0-4.2-3.661H40.156a7.425,7.425,0,0,1-2.833-.559,13.261,13.261,0,0,0-13.795,2.3Z" transform="translate(-18.854 -54.187)" fill="#ffc7b3" fill-rule="evenodd"/>
      </g>
      <g id="Grupo_1208751" data-name="Grupo 1208751" transform="translate(7.897 51.268)">
        <path id="Trazado_1049674" data-name="Trazado 1049674" d="M0,0H17.665V7.224H0Z" transform="translate(12.489 17.597) rotate(-135)" fill="#58ed9b" fill-rule="evenodd"/>
      </g>
      <g id="Grupo_1208752" data-name="Grupo 1208752" transform="translate(11.516 52.458)">
        <path id="Trazado_1049675" data-name="Trazado 1049675" d="M25.21,86.7l3.908-3.888L17.828,71.524l-1.841,1.841a2.933,2.933,0,0,0,0,4.136Z" transform="translate(-15.134 -71.524)" fill="#24d1af" fill-rule="evenodd"/>
      </g>
      <g id="Grupo_1208753" data-name="Grupo 1208753" transform="translate(39.894 30.247)">
        <path id="Trazado_1049676" data-name="Trazado 1049676" d="M66.937,47,61,41.081l-6.97,6.97,5.937,5.935a1.1,1.1,0,0,0,1.2.228,1.062,1.062,0,0,0,.662-1.013V48.878h4.322a1.052,1.052,0,0,0,1.013-.682,1.084,1.084,0,0,0-.227-1.2Z" transform="translate(-54.031 -41.081)" fill="#58ed9b" fill-rule="evenodd"/>
      </g>
      <g id="Grupo_1208754" data-name="Grupo 1208754" transform="translate(41.425 31.013)">
        <path id="Trazado_1049677" data-name="Trazado 1049677" d="M67.5,47.279,62.333,42.13l-6.2,6.2,5.915,5.935h.021a1.06,1.06,0,0,0,.33-.786V49.162h4.322a1.052,1.052,0,0,0,1.013-.682,1.083,1.083,0,0,0-.226-1.2Z" transform="translate(-56.129 -42.13)" fill="#24d1af" fill-rule="evenodd"/>
      </g>
      <g id="Grupo_1208755" data-name="Grupo 1208755" transform="translate(26.679 30.247)">
        <path id="Trazado_1049678" data-name="Trazado 1049678" d="M36.248,47l5.915-5.915,6.97,6.97-5.915,5.935a1.111,1.111,0,0,1-1.2.228,1.079,1.079,0,0,1-.683-1.013V48.878h-4.3A1.1,1.1,0,0,1,36.248,47Z" transform="translate(-35.918 -41.081)" fill="#58ed9b" fill-rule="evenodd"/>
      </g>
      <g id="Grupo_1208756" data-name="Grupo 1208756" transform="translate(28.21 31.012)">
        <path id="Trazado_1049679" data-name="Trazado 1049679" d="M43.5,42.129l6.2,6.2-5.915,5.935h-.02a1.06,1.06,0,0,1-.331-.786V49.161H39.112a1.052,1.052,0,0,1-1.013-.682,1.09,1.09,0,0,1,.248-1.2Z" transform="translate(-38.016 -42.129)" fill="#24d1af" fill-rule="evenodd"/>
      </g>
      <g id="Grupo_1208757" data-name="Grupo 1208757" transform="translate(26.333 11.349)">
        <path id="Trazado_1049680" data-name="Trazado 1049680" d="M41.374,39.164h2.172a2.683,2.683,0,0,1,1.963.806L47.04,41.5a2.8,2.8,0,0,0,3.93,0L52.5,39.97a2.72,2.72,0,0,1,1.965-.806h2.172a2.806,2.806,0,0,0,2.791-2.792V34.2a2.643,2.643,0,0,1,.806-1.944L61.766,30.7a2.769,2.769,0,0,0,0-3.908l-1.531-1.551a2.687,2.687,0,0,1-.806-1.965V21.109a2.789,2.789,0,0,0-2.791-2.772H54.465a2.718,2.718,0,0,1-1.965-.806L50.97,16a2.76,2.76,0,0,0-3.93,0l-1.531,1.531a2.681,2.681,0,0,1-1.963.806H41.374A2.772,2.772,0,0,0,38.6,21.109V23.28a2.687,2.687,0,0,1-.806,1.965L36.265,26.8a2.734,2.734,0,0,0,0,3.908L37.8,32.255A2.642,2.642,0,0,1,38.6,34.2v2.172A2.79,2.79,0,0,0,41.374,39.164Z" transform="translate(-35.443 -15.178)" fill="#fedf5b" fill-rule="evenodd"/>
      </g>
      <g id="Grupo_1208758" data-name="Grupo 1208758" transform="translate(28.208 11.51)">
        <path id="Trazado_1049681" data-name="Trazado 1049681" d="M43.95,39.223h2.171a2.72,2.72,0,0,1,1.965.806l1.531,1.531a2.605,2.605,0,0,0,1.035.662,2.691,2.691,0,0,0,1.013-.662L53.2,40.029a2.72,2.72,0,0,1,1.965-.806h2.171a2.806,2.806,0,0,0,2.791-2.792V34.259a2.643,2.643,0,0,1,.806-1.944l1.531-1.551a2.769,2.769,0,0,0,0-3.908L60.929,25.3a2.687,2.687,0,0,1-.806-1.965V21.168A2.789,2.789,0,0,0,57.331,18.4H55.16A2.718,2.718,0,0,1,53.2,17.59L51.664,16.06a2.694,2.694,0,0,0-1.013-.662,2.618,2.618,0,0,0-1.035.662L48.086,17.59a2.72,2.72,0,0,1-1.965.806H43.95a2.771,2.771,0,0,0-2.77,2.772v2.171a2.7,2.7,0,0,1-.828,1.965l-1.531,1.551a2.769,2.769,0,0,0,0,3.908l1.531,1.551a2.662,2.662,0,0,1,.828,1.944v2.172A2.789,2.789,0,0,0,43.95,39.223Z" transform="translate(-38.014 -15.398)" fill="#ffb53b" fill-rule="evenodd"/>
      </g>
      <g id="Grupo_1208759" data-name="Grupo 1208759" transform="translate(31.601 16.618)">
        <path id="Trazado_1049682" data-name="Trazado 1049682" d="M50.957,39.007a8.3,8.3,0,1,0-8.293-8.314A8.315,8.315,0,0,0,50.957,39.007Z" transform="translate(-42.664 -22.4)" fill="#58ed9b" fill-rule="evenodd"/>
      </g>
      <g id="Grupo_1208760" data-name="Grupo 1208760" transform="translate(33.007 16.639)">
        <path id="Trazado_1049683" data-name="Trazado 1049683" d="M52.2,22.429a8.3,8.3,0,0,1,0,16.545,8.3,8.3,0,0,1,0-16.545Z" transform="translate(-44.591 -22.429)" fill="#24d1af" fill-rule="evenodd"/>
      </g>
      <g id="Grupo_1208761" data-name="Grupo 1208761" transform="translate(14.23 44.512)">
        <path id="Trazado_1049684" data-name="Trazado 1049684" d="M50.144,64.133v-.02a4.254,4.254,0,0,0-3.557-1.923H40.156a7.425,7.425,0,0,1-2.833-.559,13.26,13.26,0,0,0-13.795,2.3L18.854,68.6l1.261,1.261,4.674-4.674a13.263,13.263,0,0,1,13.795-2.316,6.9,6.9,0,0,0,2.813.558h6.431a4.2,4.2,0,0,1,2.317.7Z" transform="translate(-18.854 -60.633)" fill="#ffdecf" fill-rule="evenodd"/>
      </g>
      <path id="Trazado_1049685" data-name="Trazado 1049685" d="M30.792,17.3v2.172a1.964,1.964,0,0,1-.614,1.449l-1.531,1.531a3.535,3.535,0,0,0,0,4.961l1.531,1.531a1.967,1.967,0,0,1,.614,1.449v2.172a3.476,3.476,0,0,0,.08.734L28.5,35.667a1.836,1.836,0,0,0-.389,1.987A1.811,1.811,0,0,0,29.8,38.8H33.4v3.572A1.861,1.861,0,0,0,35.234,44.2a1.888,1.888,0,0,0,1.291-.534l4.552-4.552a3.186,3.186,0,0,0,1.69,0l4.572,4.573a1.872,1.872,0,0,0,1.274.521,1.688,1.688,0,0,0,.7-.149,1.811,1.811,0,0,0,1.141-1.691V38.8h3.592a1.866,1.866,0,0,0,1.69-1.14,1.792,1.792,0,0,0-.407-1.985L52.973,33.3a3.5,3.5,0,0,0,.081-.736V30.392a1.951,1.951,0,0,1,.589-1.445l1.56-1.539a3.533,3.533,0,0,0-.009-4.96l-1.547-1.527a1.951,1.951,0,0,1-.593-1.448V17.3a3.5,3.5,0,0,0-3.5-3.5H47.381a1.963,1.963,0,0,1-1.449-.614L44.4,11.652a3.514,3.514,0,0,0-2.481-1.016,3.476,3.476,0,0,0-2.473,1.02l-1.531,1.531a1.964,1.964,0,0,1-1.449.614H34.292a3.5,3.5,0,0,0-3.5,3.5ZM35.51,42.619a.378.378,0,0,1-.441.078.329.329,0,0,1-.213-.332v-4.3a.729.729,0,0,0-.73-.73H29.805a.35.35,0,0,1-.336-.224.384.384,0,0,1,.066-.412l2-2a3.485,3.485,0,0,0,2.756,1.368h2.171a1.952,1.952,0,0,1,1.445.589l1.534,1.555c.081.081.175.144.262.215Zm18.8-5.9a.343.343,0,0,1,.081.368.4.4,0,0,1-.348.252H49.72a.729.729,0,0,0-.73.73v4.3a.363.363,0,0,1-.252.348.356.356,0,0,1-.384-.077l-4.214-4.215c.089-.073.185-.136.268-.217l1.527-1.547a1.955,1.955,0,0,1,1.449-.593h2.171A3.482,3.482,0,0,0,52.308,34.7ZM32.251,17.3a2.044,2.044,0,0,1,2.042-2.041h2.171a3.444,3.444,0,0,0,2.481-1.041l1.531-1.531a2.121,2.121,0,0,1,2.9,0L44.9,14.218a3.445,3.445,0,0,0,2.481,1.041h2.171A2.044,2.044,0,0,1,51.6,17.3v2.172a3.436,3.436,0,0,0,1.024,2.484l1.547,1.527a2.067,2.067,0,0,1,0,2.894l-1.555,1.534a3.391,3.391,0,0,0-1.02,2.481v2.172a2.044,2.044,0,0,1-2.042,2.041H47.384A3.438,3.438,0,0,0,44.9,35.63l-1.522,1.542a2.121,2.121,0,0,1-2.9.009l-1.534-1.555a3.436,3.436,0,0,0-2.481-1.02H34.293a2.044,2.044,0,0,1-2.042-2.041V30.393a3.444,3.444,0,0,0-1.041-2.481l-1.526-1.526a2.07,2.07,0,0,1-.005-2.9l1.531-1.53a3.444,3.444,0,0,0,1.041-2.481Zm9.673-9.756a.729.729,0,0,1-.73-.73V1.749a.73.73,0,0,1,1.459,0V6.816A.729.729,0,0,1,41.923,7.544Zm8.694,2.323a.729.729,0,0,1-.268-1l2.523-4.385a.73.73,0,0,1,1.265.727L51.614,9.6a.731.731,0,0,1-1,.268Zm12.018,3.1a.73.73,0,0,1-.265,1l-4.384,2.544a.73.73,0,0,1-.732-1.262L61.638,12.7a.729.729,0,0,1,1,.265ZM60.04,24.2h5.067a.73.73,0,0,1,0,1.459H60.04a.73.73,0,0,1,0-1.459Zm-3.053,9.424a.731.731,0,0,1,1-.268l4.384,2.523a.73.73,0,0,1-.728,1.265l-4.384-2.523A.731.731,0,0,1,56.988,33.626Zm-30.129,0a.731.731,0,0,1-.268,1l-4.384,2.523a.73.73,0,0,1-.728-1.265l4.384-2.523a.731.731,0,0,1,1,.268ZM18.74,24.2h5.067a.73.73,0,1,1,0,1.459H18.74a.73.73,0,1,1,0-1.459Zm8.118-7.963a.73.73,0,0,1-1,.265L21.476,13.96a.73.73,0,1,1,.732-1.262l4.384,2.544A.73.73,0,0,1,26.858,16.239ZM32.234,9.6,29.69,5.216a.73.73,0,0,1,1.262-.732L33.5,8.869a.73.73,0,0,1-1.262.732Zm9.69,24.353a9.033,9.033,0,1,0-9.043-9.023,9.033,9.033,0,0,0,9.043,9.023Zm0-16.607a7.574,7.574,0,1,1-7.584,7.584,7.582,7.582,0,0,1,7.584-7.584Zm2.047,27.99H37.539a6.228,6.228,0,0,1-2.536-.5,14.065,14.065,0,0,0-13.918,1.9.729.729,0,1,0,.893,1.153,12.6,12.6,0,0,1,12.464-1.7,7.611,7.611,0,0,0,3.1.616H43.97a3.552,3.552,0,0,1,3.5,3.047,1.332,1.332,0,0,1-.312,1.087,1.375,1.375,0,0,1-1.075.487h-12.7a.73.73,0,0,0,0,1.459h12.7a2.863,2.863,0,0,0,2.163-.974,2.768,2.768,0,0,0,.649-1.409l10.37-9.072a3.552,3.552,0,0,1,4.642-.017,1.407,1.407,0,0,1,0,2.106l-13.691,12a9.518,9.518,0,0,1-6.53,2.466H35.6a12.875,12.875,0,0,0-8.748,3.238h0c-.106.088-.271.242-.44.4L15.534,50.743a.751.751,0,0,0-1.032,0L9.394,55.851a.729.729,0,0,0,0,1.032L21.885,69.374a.729.729,0,0,0,1.032,0l5.109-5.108a.729.729,0,0,0,0-1.032l-.587-.586c.158-.152.269-.258.287-.274a.755.755,0,0,0,.075-.057,11.47,11.47,0,0,1,7.8-2.884h8.086a10.917,10.917,0,0,0,7.492-2.828L64.862,44.612a2.865,2.865,0,0,0,0-4.31,5.015,5.015,0,0,0-6.56.026l-9.606,8.4a5.018,5.018,0,0,0-4.722-3.393ZM22.4,67.827,10.941,56.367l4.077-4.077L26.478,63.75Zm-4.321-18.2.7-.7a.729.729,0,0,1,1.032,1.032l-.7.7a.729.729,0,0,1-1.032-1.032ZM37.623,24.951a.729.729,0,1,1,1.032-1.032l2.338,2.338,4.2-4.2a.729.729,0,1,1,1.032,1.032l-4.715,4.715a.729.729,0,0,1-1.032,0Z" transform="translate(-2.008)"/>
    </g>
  </g>
</svg>
