<svg xmlns="http://www.w3.org/2000/svg" xmlns:xlink="http://www.w3.org/1999/xlink" width="113" height="113" viewBox="0 0 113 113">
  <defs>
    <filter id="Trazado_982547" x="0" y="0" width="113" height="113" filterUnits="userSpaceOnUse">
      <feOffset dy="3" input="SourceAlpha"/>
      <feGaussianBlur stdDeviation="3" result="blur"/>
      <feFlood flood-opacity="0.161"/>
      <feComposite operator="in" in2="blur"/>
      <feComposite in="SourceGraphic"/>
    </filter>
  </defs>
  <g id="Grupo_1208942" data-name="Grupo 1208942" transform="translate(-901 -1237.794)">
    <g id="Grupo_1208679" data-name="Grupo 1208679" transform="translate(0 -740.122)">
      <g id="Grupo_1208144" data-name="Grupo 1208144" transform="translate(0 -3923.371)">
        <g id="Grupo_1202434" data-name="Grupo 1202434" transform="translate(-0.56 1255.773)">
          <g id="Grupo_1202053" data-name="Grupo 1202053" transform="translate(0 3240.511)">
            <g id="Grupo_1177898" data-name="Grupo 1177898" transform="translate(910.561 1411.003)">
              <g id="Grupo_1172010" data-name="Grupo 1172010" transform="translate(0)">
                <g id="Grupo_1171046" data-name="Grupo 1171046">
                  <g id="Grupo_1148525" data-name="Grupo 1148525">
                    <g transform="matrix(1, 0, 0, 1, -9, -6)" filter="url(#Trazado_982547)">
                      <g id="Trazado_982547-2" data-name="Trazado 982547" transform="translate(9 6)" fill="#f6ecfe">
                        <path d="M 47.5 93.5 C 41.28937149047852 93.5 35.26533508300781 92.28397369384766 29.59518623352051 89.88570404052734 C 24.11771965026855 87.56893157958984 19.19813346862793 84.25196075439453 14.97309303283691 80.02691650390625 C 10.74804019927979 75.80186462402344 7.431066513061523 70.88229370117188 5.114293098449707 65.40481567382812 C 2.716026782989502 59.73468017578125 1.5 53.71062850952148 1.5 47.5 C 1.5 41.28937149047852 2.716026782989502 35.26533508300781 5.114293098449707 29.59518623352051 C 7.431066513061523 24.11771965026855 10.74804019927979 19.19813346862793 14.97309303283691 14.97309303283691 C 19.19813346862793 10.74804019927979 24.11771965026855 7.431066513061523 29.59518623352051 5.114293098449707 C 35.26533508300781 2.716026782989502 41.28937149047852 1.5 47.5 1.5 C 53.71062850952148 1.5 59.73468017578125 2.716026782989502 65.40481567382812 5.114293098449707 C 70.88229370117188 7.431066513061523 75.80186462402344 10.74804019927979 80.02691650390625 14.97309303283691 C 84.25196075439453 19.19813346862793 87.56893157958984 24.11771965026855 89.88570404052734 29.59518623352051 C 92.28397369384766 35.26533508300781 93.5 41.28937149047852 93.5 47.5 C 93.5 53.71062850952148 92.28397369384766 59.73468017578125 89.88570404052734 65.40481567382812 C 87.56893157958984 70.88229370117188 84.25196075439453 75.80186462402344 80.02691650390625 80.02691650390625 C 75.80186462402344 84.25196075439453 70.88229370117188 87.56893157958984 65.40481567382812 89.88570404052734 C 59.73468017578125 92.28397369384766 53.71062850952148 93.5 47.5 93.5 Z" stroke="none"/>
                        <path d="M 47.5 3 C 41.49121475219727 3 35.66376876831055 4.176155090332031 30.17950439453125 6.495796203613281 C 24.88084411621094 8.736953735351562 20.12152099609375 11.94598388671875 16.03375244140625 16.03375244140625 C 11.94598388671875 20.12152099609375 8.736953735351562 24.88084411621094 6.495796203613281 30.17950439453125 C 4.176155090332031 35.66376876831055 3 41.49121475219727 3 47.5 C 3 53.50878524780273 4.176155090332031 59.33623123168945 6.495796203613281 64.82049560546875 C 8.736953735351562 70.11915588378906 11.94598388671875 74.87847900390625 16.03375244140625 78.96624755859375 C 20.12152099609375 83.05401611328125 24.88084411621094 86.26304626464844 30.17950439453125 88.50419616699219 C 35.66376876831055 90.82384490966797 41.49121475219727 92 47.5 92 C 53.50878524780273 92 59.33623123168945 90.82384490966797 64.82049560546875 88.50419616699219 C 70.11915588378906 86.26304626464844 74.87847900390625 83.05401611328125 78.96624755859375 78.96624755859375 C 83.05401611328125 74.87847900390625 86.26304626464844 70.11915588378906 88.50419616699219 64.82049560546875 C 90.82384490966797 59.33623123168945 92 53.50878524780273 92 47.5 C 92 41.49121475219727 90.82384490966797 35.66376876831055 88.50419616699219 30.17950439453125 C 86.26304626464844 24.88084411621094 83.05401611328125 20.12152099609375 78.96624755859375 16.03375244140625 C 74.87847900390625 11.94598388671875 70.11915588378906 8.736953735351562 64.82049560546875 6.495796203613281 C 59.33623123168945 4.176155090332031 53.50878524780273 3 47.5 3 M 47.5 0 C 73.7335205078125 0 95 21.2664794921875 95 47.5 C 95 73.7335205078125 73.7335205078125 95 47.5 95 C 21.2664794921875 95 0 73.7335205078125 0 47.5 C 0 21.2664794921875 21.2664794921875 0 47.5 0 Z" stroke="none" fill="#aa52f9"/>
                      </g>
                    </g>
                  </g>
                </g>
              </g>
            </g>
          </g>
        </g>
      </g>
    </g>
    <g id="diversification_15165189" transform="translate(917.758 1223.453)">
      <g id="Grupo_1208939" data-name="Grupo 1208939" transform="translate(7.5 37.621)">
        <path id="Trazado_1050358" data-name="Trazado 1050358" d="M19.406,288.106V304a1.977,1.977,0,0,1-1.977,1.977H9.477A1.977,1.977,0,0,1,7.5,304V288.106a1.977,1.977,0,0,1,1.977-1.977h2.989l.337.173.788-.173h3.839A1.976,1.976,0,0,1,19.406,288.106Z" transform="translate(-7.5 -253.418)" fill="#7293df"/>
        <path id="Trazado_1050359" data-name="Trazado 1050359" d="M12.376,303.123a3.937,3.937,0,0,0,1.215,2.849H9.477A1.977,1.977,0,0,1,7.5,304V288.1a1.977,1.977,0,0,1,1.977-1.977h4.114a3.934,3.934,0,0,0-1.215,2.849Z" transform="translate(-7.5 -253.417)" fill="#4677d5"/>
        <path id="Trazado_1050360" data-name="Trazado 1050360" d="M154.936,325.745v15.891a1.976,1.976,0,0,1-1.977,1.977h-7.953a1.976,1.976,0,0,1-1.977-1.977V325.745a1.977,1.977,0,0,1,1.977-1.977h2.987l.13.183.588-.183h4.247A1.977,1.977,0,0,1,154.936,325.745Z" transform="translate(-125.17 -286.097)" fill="#73da8c"/>
        <path id="Trazado_1050361" data-name="Trazado 1050361" d="M147.5,340.763a3.936,3.936,0,0,0,1.215,2.849h-3.7a1.976,1.976,0,0,1-1.977-1.977V325.745a1.977,1.977,0,0,1,1.977-1.977h3.706a3.936,3.936,0,0,0-1.216,2.85Z" transform="translate(-125.17 -286.097)" fill="#29ce69"/>
        <path id="Trazado_1050362" data-name="Trazado 1050362" d="M426,288.106V304a1.977,1.977,0,0,1-1.977,1.977h-7.953A1.977,1.977,0,0,1,414.09,304V288.106a1.976,1.976,0,0,1,1.977-1.977h2.987l.435.29.764-.29h3.766A1.977,1.977,0,0,1,426,288.106Z" transform="translate(-360.511 -253.418)" fill="#ff6e80"/>
        <path id="Trazado_1050363" data-name="Trazado 1050363" d="M418.9,289.1v14.146A3.929,3.929,0,0,0,420,305.973h-3.93A1.977,1.977,0,0,1,414.09,304V288.106a1.976,1.976,0,0,1,1.977-1.977h4.187A3.937,3.937,0,0,0,418.9,289.1Z" transform="translate(-360.511 -253.418)" fill="#f9475e"/>
        <path id="Trazado_1050364" data-name="Trazado 1050364" d="M290.466,325.745v15.891a1.976,1.976,0,0,1-1.977,1.977h-7.953a1.976,1.976,0,0,1-1.977-1.977V325.745a1.977,1.977,0,0,1,1.977-1.977h2.987l.21.31.8-.31h3.952A1.977,1.977,0,0,1,290.466,325.745Z" transform="translate(-242.841 -286.097)" fill="#a4e7ff"/>
        <path id="Trazado_1050365" data-name="Trazado 1050365" d="M283.321,340.763a3.931,3.931,0,0,0,1.215,2.849h-4a1.976,1.976,0,0,1-1.977-1.977V325.745a1.977,1.977,0,0,1,1.977-1.977h4a3.935,3.935,0,0,0-1.216,2.85Z" transform="translate(-242.841 -286.097)" fill="#5ad6ff"/>
        <path id="Trazado_1050366" data-name="Trazado 1050366" d="M166.72,53.742l.706.988a15.805,15.805,0,0,1-3.941,9.516l-1.323.03-.075,1.368a15.8,15.8,0,0,1-9.516,3.941l-.988-.717-.988.717q-.447-.028-.888-.08a15.756,15.756,0,0,1-6.066-2.016l-1.111-1.841-.864.488c-.2-.158-.4-.323-.586-.491l-.416-1.3-.982-.1a15.934,15.934,0,0,1-2.616-4.073l.12-1.352-.806-.5a15.876,15.876,0,0,1-.639-3.588L136.8,54l-1.059-1.244a15.805,15.805,0,0,1,3.941-9.516l1.1-.142.3-1.256a15.807,15.807,0,0,1,7.957-3.767q.767-.125,1.559-.174l.929.555,1.048-.555a15.805,15.805,0,0,1,9.516,3.941l.007,1.559,1.392-.161a15.805,15.805,0,0,1,3.941,9.516Z" transform="translate(-118.841 -37.899)" fill="#718299"/>
        <path id="Trazado_1050367" data-name="Trazado 1050367" d="M149.707,70.65a15.8,15.8,0,0,1-8.627-3.861l-.416-1.3-.982-.1a15.805,15.805,0,0,1-3.941-9.516l1.059-.733L135.74,53.9a15.805,15.805,0,0,1,3.941-9.516l1.1-.142.3-1.256a15.806,15.806,0,0,1,7.957-3.767C146.4,43.249,139.081,56.849,149.707,70.65Z" transform="translate(-118.841 -39.043)" fill="#59697f"/>
        <path id="Trazado_1050368" data-name="Trazado 1050368" d="M209.505,79.685a11.91,11.91,0,0,1-16.87,10.824l-3.9-4.3V72.17l3.7-3.217a11.912,11.912,0,0,1,17.069,10.732Z" transform="translate(-164.857 -63.842)" fill="#fce3a0"/>
        <path id="Trazado_1050369" data-name="Trazado 1050369" d="M172.562,98.243a11.911,11.911,0,0,1-.2-21.556C170.169,81.88,168.444,89.808,172.562,98.243Z" transform="translate(-144.784 -71.576)" fill="#fdcb89"/>
      </g>
      <g id="Grupo_1208941" data-name="Grupo 1208941" transform="translate(7.5 37.579)">
        <path id="Trazado_1050370" data-name="Trazado 1050370" d="M369.87,200.309l9.2,3.408a3.953,3.953,0,0,1,2.58,3.707v3.829" transform="translate(-322.118 -178.865)" fill="none" stroke="#000" stroke-linecap="round" stroke-linejoin="round" stroke-miterlimit="10" stroke-width="1"/>
        <path id="Trazado_1050371" data-name="Trazado 1050371" d="M52.68,211.253v-3.829a3.953,3.953,0,0,1,2.58-3.707l9.2-3.408" transform="translate(-46.726 -178.865)" fill="none" stroke="#000" stroke-linecap="round" stroke-linejoin="round" stroke-miterlimit="10" stroke-width="1"/>
        <line id="Línea_1523" data-name="Línea 1523" y1="8.117" transform="translate(23.812 29.165)" fill="none" stroke="#000" stroke-linecap="round" stroke-linejoin="round" stroke-miterlimit="10" stroke-width="1"/>
        <path id="Trazado_1050372" data-name="Trazado 1050372" d="M19.406,296.05V304a1.977,1.977,0,0,1-1.977,1.977H9.477A1.977,1.977,0,0,1,7.5,304V288.106a1.977,1.977,0,0,1,1.977-1.977h7.953a1.976,1.976,0,0,1,1.977,1.977v3.333" transform="translate(-7.5 -253.376)" fill="none" stroke="#000" stroke-linecap="round" stroke-linejoin="round" stroke-miterlimit="10" stroke-width="1"/>
        <path id="Trazado_1050373" data-name="Trazado 1050373" d="M145.006,343.617h7.953a1.977,1.977,0,0,0,1.977-1.977V325.75a1.977,1.977,0,0,0-1.977-1.977h-7.953a1.977,1.977,0,0,0-1.977,1.977V341.64A1.977,1.977,0,0,0,145.006,343.617Z" transform="translate(-125.17 -286.06)" fill="none" stroke="#000" stroke-linecap="round" stroke-linejoin="round" stroke-miterlimit="10" stroke-width="1"/>
        <line id="Línea_1524" data-name="Línea 1524" y1="8.116" transform="translate(41.672 29.166)" fill="none" stroke="#000" stroke-linecap="round" stroke-linejoin="round" stroke-miterlimit="10" stroke-width="1"/>
        <path id="Trazado_1050374" data-name="Trazado 1050374" d="M414.09,302.368V304a1.977,1.977,0,0,0,1.977,1.977h7.953A1.977,1.977,0,0,0,426,304V288.106a1.977,1.977,0,0,0-1.977-1.977h-7.953a1.976,1.976,0,0,0-1.977,1.977v9.65" transform="translate(-360.511 -253.376)" fill="none" stroke="#000" stroke-linecap="round" stroke-linejoin="round" stroke-miterlimit="10" stroke-width="1"/>
        <path id="Trazado_1050375" data-name="Trazado 1050375" d="M288.488,343.617h-7.953a1.977,1.977,0,0,1-1.977-1.977V325.75a1.977,1.977,0,0,1,1.977-1.977h7.953a1.977,1.977,0,0,1,1.977,1.977V341.64A1.977,1.977,0,0,1,288.488,343.617Z" transform="translate(-242.839 -286.06)" fill="none" stroke="#000" stroke-linecap="round" stroke-linejoin="round" stroke-miterlimit="10" stroke-width="1"/>
        <line id="Línea_1525" data-name="Línea 1525" x2="3.969" transform="translate(57.547 36.721)" fill="none" stroke="#000" stroke-linecap="round" stroke-linejoin="round" stroke-miterlimit="10" stroke-width="1"/>
        <line id="Línea_1526" data-name="Línea 1526" x2="3.969" transform="translate(57.547 40.69)" fill="none" stroke="#000" stroke-linecap="round" stroke-linejoin="round" stroke-miterlimit="10" stroke-width="1"/>
        <line id="Línea_1527" data-name="Línea 1527" x2="3.969" transform="translate(57.547 44.659)" fill="none" stroke="#000" stroke-linecap="round" stroke-linejoin="round" stroke-miterlimit="10" stroke-width="1"/>
        <line id="Línea_1528" data-name="Línea 1528" x2="3.969" transform="translate(57.547 48.628)" fill="none" stroke="#000" stroke-linecap="round" stroke-linejoin="round" stroke-miterlimit="10" stroke-width="1"/>
        <path id="Trazado_1050376" data-name="Trazado 1050376" d="M318.319,353.891a2.806,2.806,0,0,1,0,3.969,2.806,2.806,0,0,0,0,3.969,2.806,2.806,0,0,1,0,3.969" transform="translate(-276.647 -312.209)" fill="none" stroke="#000" stroke-linecap="round" stroke-linejoin="round" stroke-miterlimit="10" stroke-width="1"/>
        <line id="Línea_1529" data-name="Línea 1529" y2="11.906" transform="translate(21.828 41.682)" fill="none" stroke="#000" stroke-linecap="round" stroke-linejoin="round" stroke-miterlimit="10" stroke-width="1"/>
        <line id="Línea_1530" data-name="Línea 1530" y2="11.906" transform="translate(25.797 41.682)" fill="none" stroke="#000" stroke-linecap="round" stroke-linejoin="round" stroke-miterlimit="10" stroke-width="1"/>
        <path id="Trazado_1050377" data-name="Trazado 1050377" d="M41.588,317.065a1.4,1.4,0,0,1-.992-.411,1.406,1.406,0,0,0-1.985,0,1.4,1.4,0,0,1-.991.411" transform="translate(-33.651 -279.522)" fill="none" stroke="#000" stroke-linecap="round" stroke-linejoin="round" stroke-miterlimit="10" stroke-width="1"/>
        <path id="Trazado_1050378" data-name="Trazado 1050378" d="M41.588,359.241a1.4,1.4,0,0,1-.992-.411,1.406,1.406,0,0,0-1.985,0,1.4,1.4,0,0,1-.991.411" transform="translate(-33.651 -316.141)" fill="none" stroke="#000" stroke-linecap="round" stroke-linejoin="round" stroke-miterlimit="10" stroke-width="1"/>
        <path id="Trazado_1050379" data-name="Trazado 1050379" d="M41.588,401.188a1.4,1.4,0,0,1-.992-.411,1.406,1.406,0,0,0-1.985,0,1.4,1.4,0,0,1-.991.411" transform="translate(-33.651 -352.56)" fill="none" stroke="#000" stroke-linecap="round" stroke-linejoin="round" stroke-miterlimit="10" stroke-width="1"/>
        <path id="Trazado_1050380" data-name="Trazado 1050380" d="M159.765,39.986a15.873,15.873,0,1,1-4.231-1.845" transform="translate(-118.633 -37.579)" fill="none" stroke="#000" stroke-linecap="round" stroke-linejoin="round" stroke-miterlimit="10" stroke-width="1"/>
        <line id="Línea_1531" data-name="Línea 1531" y2="3.47" transform="translate(32.742 0.19)" fill="none" stroke="#000" stroke-linecap="round" stroke-linejoin="round" stroke-miterlimit="10" stroke-width="1"/>
        <line id="Línea_1532" data-name="Línea 1532" x2="2.422" y2="2.422" transform="translate(21.66 4.803)" fill="none" stroke="#000" stroke-linecap="round" stroke-linejoin="round" stroke-miterlimit="10" stroke-width="1"/>
        <line id="Línea_1533" data-name="Línea 1533" x2="3.468" transform="translate(17.002 15.885)" fill="none" stroke="#000" stroke-linecap="round" stroke-linejoin="round" stroke-miterlimit="10" stroke-width="1"/>
        <line id="Línea_1534" data-name="Línea 1534" y1="2.258" x2="2.258" transform="translate(21.792 24.578)" fill="none" stroke="#000" stroke-linecap="round" stroke-linejoin="round" stroke-miterlimit="10" stroke-width="1"/>
        <line id="Línea_1535" data-name="Línea 1535" y1="3.201" transform="translate(32.742 28.175)" fill="none" stroke="#000" stroke-linecap="round" stroke-linejoin="round" stroke-miterlimit="10" stroke-width="1"/>
        <line id="Línea_1536" data-name="Línea 1536" x1="2.262" y1="2.262" transform="translate(41.432 24.575)" fill="none" stroke="#000" stroke-linecap="round" stroke-linejoin="round" stroke-miterlimit="10" stroke-width="1"/>
        <line id="Línea_1537" data-name="Línea 1537" x1="3.385" transform="translate(44.986 15.885)" fill="none" stroke="#000" stroke-linecap="round" stroke-linejoin="round" stroke-miterlimit="10" stroke-width="1"/>
        <line id="Línea_1538" data-name="Línea 1538" x1="2.479" y2="2.478" transform="translate(41.288 4.862)" fill="none" stroke="#000" stroke-linecap="round" stroke-linejoin="round" stroke-miterlimit="10" stroke-width="1"/>
        <circle id="Elipse_12736" data-name="Elipse 12736" cx="11.906" cy="11.906" r="11.906" transform="translate(20.836 3.979)" fill="none" stroke="#000" stroke-linecap="round" stroke-linejoin="round" stroke-miterlimit="10" stroke-width="1"/>
        <g id="Grupo_1208940" data-name="Grupo 1208940" transform="translate(28.774 7.948)">
          <path id="Trazado_1050381" data-name="Trazado 1050381" d="M232.739,110.6a4.89,4.89,0,0,0-4.22-.771c-2.35.6-2.736,3.442-1.139,4.5a14.677,14.677,0,0,0,3.958,1.649c4.162,1.239,2.623,6.181-1.61,6.2a6.476,6.476,0,0,1-3.876-.878" transform="translate(-225.853 -108.109)" fill="none" stroke="#000" stroke-linecap="round" stroke-linejoin="round" stroke-miterlimit="10" stroke-width="1"/>
          <line id="Línea_1539" data-name="Línea 1539" y2="15.875" transform="translate(3.969)" fill="none" stroke="#000" stroke-linecap="round" stroke-linejoin="round" stroke-miterlimit="10" stroke-width="1"/>
        </g>
      </g>
    </g>
  </g>
</svg>
