<svg xmlns="http://www.w3.org/2000/svg" xmlns:xlink="http://www.w3.org/1999/xlink" width="108" height="108" viewBox="0 0 108 108">
  <defs>
    <filter id="Trazado_904820" x="0" y="0" width="108" height="108" filterUnits="userSpaceOnUse">
      <feOffset dy="3" input="SourceAlpha"/>
      <feGaussianBlur stdDeviation="3" result="blur"/>
      <feFlood flood-opacity="0.161"/>
      <feComposite operator="in" in2="blur"/>
      <feComposite in="SourceGraphic"/>
    </filter>
  </defs>
  <g id="Grupo_1208908" data-name="Grupo 1208908" transform="translate(-200 -488.683)">
    <g id="Grupo_1174741" data-name="Grupo 1174741" transform="translate(209 494.683)">
      <g id="Grupo_1173585" data-name="Grupo 1173585" transform="translate(0 0)">
        <g id="Grupo_1173428" data-name="Grupo 1173428">
          <g id="Grupo_1171958" data-name="Grupo 1171958">
            <g id="Grupo_1167341" data-name="Grupo 1167341">
              <g id="Grupo_1166792" data-name="Grupo 1166792">
                <g transform="matrix(1, 0, 0, 1, -9, -6)" filter="url(#Trazado_904820)">
                  <g id="Trazado_904820-2" data-name="Trazado 904820" transform="translate(9 6)" fill="#e5fdfa">
                    <path d="M 44.99999618530273 88.50002288818359 C 39.12687301635742 88.50002288818359 33.43022155761719 87.35009765625 28.06829643249512 85.08218383789062 C 22.88852119445801 82.89133453369141 18.23629570007324 79.75460815429688 14.24084663391113 75.75916290283203 C 10.24540901184082 71.76371002197266 7.108683586120605 67.11148834228516 4.917821407318115 61.93171310424805 C 2.649921178817749 56.56978607177734 1.499996185302734 50.87313461303711 1.499996185302734 45.0000114440918 C 1.499996185302734 39.12688827514648 2.649921178817749 33.43023681640625 4.917821407318115 28.06831169128418 C 7.108683586120605 22.88853645324707 10.24540901184082 18.2363109588623 14.24084663391113 14.2408618927002 C 18.23629570007324 10.24541187286377 22.88852119445801 7.108686447143555 28.06829643249512 4.917836666107178 C 33.43022155761719 2.649924039840698 39.12687301635742 1.499998927116394 44.99999618530273 1.499998927116394 C 50.87311935424805 1.499998927116394 56.56977081298828 2.649924039840698 61.93169784545898 4.917836666107178 C 67.11147308349609 7.108686447143555 71.76369476318359 10.24541187286377 75.75914764404297 14.2408618927002 C 79.75458526611328 18.2363109588623 82.89131164550781 22.88853645324707 85.08216857910156 28.06831169128418 C 87.35007476806641 33.43023681640625 88.5 39.12688827514648 88.5 45.0000114440918 C 88.5 50.87313461303711 87.35007476806641 56.56978607177734 85.08216857910156 61.93171310424805 C 82.89131164550781 67.11148834228516 79.75458526611328 71.76371002197266 75.75914764404297 75.75916290283203 C 71.76369476318359 79.75460815429688 67.11147308349609 82.89133453369141 61.93169784545898 85.08218383789062 C 56.56977081298828 87.35009765625 50.87311935424805 88.50002288818359 44.99999618530273 88.50002288818359 Z" stroke="none"/>
                    <path d="M 44.99999618530273 3 C 39.32870864868164 3 33.82865142822266 4.110054016113281 28.65262603759766 6.299339294433594 C 23.65165710449219 8.414566040039062 19.15968322753906 11.44333648681641 15.301513671875 15.30152893066406 C 11.44333648681641 19.15969848632812 8.414566040039062 23.65165710449219 6.299339294433594 28.65264129638672 C 4.110054016113281 33.82866668701172 2.999992370605469 39.3287239074707 2.999992370605469 45.0000114440918 C 2.999992370605469 50.67129898071289 4.110054016113281 56.17135620117188 6.299339294433594 61.34738159179688 C 8.414566040039062 66.34836578369141 11.44333648681641 70.84032440185547 15.301513671875 74.69849395751953 C 19.15968322753906 78.55668640136719 23.65165710449219 81.58545684814453 28.65262603759766 83.70068359375 C 33.82865142822266 85.88996887207031 39.32870864868164 87.00002288818359 44.99999618530273 87.00002288818359 C 50.67128372192383 87.00002288818359 56.17134094238281 85.88996887207031 61.34736633300781 83.70068359375 C 66.34834289550781 81.58545684814453 70.84030914306641 78.55668640136719 74.69847869873047 74.69849395751953 C 78.55665588378906 70.84032440185547 81.58542633056641 66.34836578369141 83.70065307617188 61.34738159179688 C 85.88993835449219 56.17135620117188 87 50.67129898071289 87 45.0000114440918 C 87 39.3287239074707 85.88993835449219 33.82866668701172 83.70065307617188 28.65264129638672 C 81.58542633056641 23.65165710449219 78.55665588378906 19.15969848632812 74.69847869873047 15.30152893066406 C 70.84030914306641 11.44333648681641 66.34834289550781 8.414566040039062 61.34736633300781 6.299339294433594 C 56.17134094238281 4.110054016113281 50.67128372192383 3 44.99999618530273 3 M 44.99999618530273 0 C 69.85281372070312 0 90 20.14719390869141 90 45.0000114440918 C 90 69.85282897949219 69.85281372070312 90.00002288818359 44.99999618530273 90.00002288818359 C 20.14717864990234 90.00002288818359 -7.62939453125e-06 69.85282897949219 -7.62939453125e-06 45.0000114440918 C -7.62939453125e-06 20.14719390869141 20.14717864990234 0 44.99999618530273 0 Z" stroke="none" fill="#098576"/>
                  </g>
                </g>
              </g>
            </g>
          </g>
        </g>
      </g>
    </g>
    <g id="presentation_900605" transform="translate(153.997 507.159)">
      <g id="Grupo_1208898" data-name="Grupo 1208898" transform="translate(77.478 3.601)">
        <rect id="Rectángulo_418252" data-name="Rectángulo 418252" width="45.049" height="5.853" fill="#ff7956"/>
        <rect id="Rectángulo_418253" data-name="Rectángulo 418253" width="45.049" height="5.853" transform="translate(0 31.232)" fill="#ff7956"/>
      </g>
      <rect id="Rectángulo_418254" data-name="Rectángulo 418254" width="41.643" height="25.38" transform="translate(79.181 9.453)" fill="#ffe477"/>
      <g id="Grupo_1208899" data-name="Grupo 1208899" transform="translate(84.834 12.579)">
        <path id="Trazado_1050209" data-name="Trazado 1050209" d="M158.523,107.2v-3.933h-2.839a6.6,6.6,0,0,0-.467-1.125l2.008-2.008-2.781-2.781-2.008,2.008a6.6,6.6,0,0,0-1.125-.467V96.058h-3.933V98.9a6.6,6.6,0,0,0-1.125.467l-2.008-2.008-2.781,2.781,2.008,2.008a6.6,6.6,0,0,0-.467,1.125h-2.839V107.2h2.839a6.592,6.592,0,0,0,.467,1.125l-2.008,2.008,2.781,2.781,2.008-2.008a6.593,6.593,0,0,0,1.125.467v2.839h3.933v-2.839a6.582,6.582,0,0,0,1.125-.467l2.008,2.008,2.781-2.781-2.008-2.008a6.6,6.6,0,0,0,.467-1.125Zm-9.178.9a2.865,2.865,0,1,1,2.865-2.865A2.865,2.865,0,0,1,149.345,108.1Z" transform="translate(-140.167 -96.058)" fill="#ffda44"/>
        <rect id="Rectángulo_418255" data-name="Rectángulo 418255" width="4.278" height="4.278" transform="translate(31.014 13.481)" fill="#ffda44"/>
        <rect id="Rectángulo_418256" data-name="Rectángulo 418256" width="4.278" height="4.278" transform="translate(23.632 13.481)" fill="#ffda44"/>
      </g>
      <rect id="Rectángulo_418257" data-name="Rectángulo 418257" width="5.238" height="25.38" transform="translate(79.181 9.453)" fill="#ffe477"/>
      <path id="Trazado_1050210" data-name="Trazado 1050210" d="M138.523,107.2v-3.933h-2.839a6.6,6.6,0,0,0-.467-1.125l2.008-2.008-2.781-2.781-2.008,2.008a6.6,6.6,0,0,0-1.125-.467V96.058h-3.933V98.9a6.6,6.6,0,0,0-1.125.467l-2.008-2.008-2.781,2.781,2.008,2.008a6.6,6.6,0,0,0-.467,1.125h-2.839V107.2h2.839a6.592,6.592,0,0,0,.467,1.125l-2.008,2.008,2.781,2.781,2.008-2.008a6.593,6.593,0,0,0,1.125.467v2.839h3.933v-2.839a6.582,6.582,0,0,0,1.125-.467l2.008,2.008,2.781-2.781-2.008-2.008a6.6,6.6,0,0,0,.467-1.125Zm-9.178.9a2.865,2.865,0,1,1,2.865-2.865A2.865,2.865,0,0,1,129.345,108.1Z" transform="translate(-37.952 -83.479)" fill="#ff3f62"/>
      <g id="Grupo_1208900" data-name="Grupo 1208900" transform="translate(105.847 26.06)">
        <rect id="Rectángulo_418258" data-name="Rectángulo 418258" width="4.278" height="4.278" transform="translate(7.382)" fill="#57a4ff"/>
        <rect id="Rectángulo_418259" data-name="Rectángulo 418259" width="4.278" height="4.278" fill="#57a4ff"/>
      </g>
      <g id="Grupo_1208901" data-name="Grupo 1208901" transform="translate(83.544 0.982)">
        <rect id="Rectángulo_418260" data-name="Rectángulo 418260" width="4.225" height="2.619" transform="translate(14.347)" fill="#b3d8f4"/>
        <rect id="Rectángulo_418261" data-name="Rectángulo 418261" width="4.225" height="25.38" transform="translate(14.347 39.704)" fill="#b3d8f4"/>
        <path id="Trazado_1050211" data-name="Trazado 1050211" d="M134.539,336.074h-4.225L140.345,310.7h4.225Z" transform="translate(-130.314 -270.991)" fill="#b3d8f4"/>
        <path id="Trazado_1050212" data-name="Trazado 1050212" d="M282.86,336.074h4.225L277.054,310.7h-4.225Z" transform="translate(-254.166 -270.991)" fill="#b3d8f4"/>
      </g>
      <g id="Grupo_1208902" data-name="Grupo 1208902" transform="translate(77.478 3.601)">
        <rect id="Rectángulo_418262" data-name="Rectángulo 418262" width="5.238" height="5.853" fill="#ff5023"/>
        <rect id="Rectángulo_418263" data-name="Rectángulo 418263" width="5.238" height="5.853" transform="translate(0 31.232)" fill="#ff5023"/>
      </g>
      <g id="Grupo_1208903" data-name="Grupo 1208903" transform="translate(82.215 12.579)">
        <path id="Trazado_1050213" data-name="Trazado 1050213" d="M176.732,99.364a6.6,6.6,0,0,1,1.125-.467V96.058h-2.619V97.87Z" transform="translate(-168.027 -96.058)" fill="#c70024"/>
        <path id="Trazado_1050214" data-name="Trazado 1050214" d="M131.619,111.882h2.619a6.592,6.592,0,0,1,.467-1.125l-2.008-2.008,1.471-1.471-1.31-1.31-2.781,2.781,2.008,2.008A6.609,6.609,0,0,0,131.619,111.882Z" transform="translate(-128.781 -104.67)" fill="#c70024"/>
        <path id="Trazado_1050215" data-name="Trazado 1050215" d="M225.268,107.51a6.587,6.587,0,0,1,1.125.467l.7-.7-1.31-1.31-.514.514v1.027Z" transform="translate(-211.505 -104.671)" fill="#c70024"/>
        <path id="Trazado_1050216" data-name="Trazado 1050216" d="M226.392,210.981a6.593,6.593,0,0,1-1.125.467v1.027l.514.514,1.31-1.31Z" transform="translate(-211.504 -195.932)" fill="#c70024"/>
        <path id="Trazado_1050217" data-name="Trazado 1050217" d="M176.732,210.981l-1.494,1.494v1.812h2.619v-2.839A6.583,6.583,0,0,1,176.732,210.981Z" transform="translate(-168.027 -195.932)" fill="#c70024"/>
        <path id="Trazado_1050218" data-name="Trazado 1050218" d="M132.7,184.29l2.008-2.008a6.6,6.6,0,0,1-.467-1.125H131.62a6.593,6.593,0,0,0,.467,1.125l-2.008,2.008,2.781,2.781,1.31-1.31Z" transform="translate(-128.782 -170.013)" fill="#c70024"/>
        <rect id="Rectángulo_418264" data-name="Rectángulo 418264" width="2.619" height="3.933" transform="translate(0 7.212)" fill="#c70024"/>
      </g>
      <g id="Grupo_1208904" data-name="Grupo 1208904" transform="translate(105.847 26.06)">
        <rect id="Rectángulo_418265" data-name="Rectángulo 418265" width="2.619" height="4.278" transform="translate(7.382)" fill="#006df0"/>
        <rect id="Rectángulo_418266" data-name="Rectángulo 418266" width="2.619" height="4.278" fill="#006df0"/>
      </g>
      <g id="Grupo_1208905" data-name="Grupo 1208905" transform="translate(83.544 0.982)">
        <rect id="Rectángulo_418267" data-name="Rectángulo 418267" width="2.619" height="2.619" transform="translate(14.347)" fill="#78b9eb"/>
        <rect id="Rectángulo_418268" data-name="Rectángulo 418268" width="2.619" height="25.38" transform="translate(14.347 39.704)" fill="#78b9eb"/>
        <path id="Trazado_1050219" data-name="Trazado 1050219" d="M140.345,310.7l-10.031,25.379h2.619L142.964,310.7Z" transform="translate(-130.314 -270.991)" fill="#78b9eb"/>
        <path id="Trazado_1050220" data-name="Trazado 1050220" d="M272.829,310.7l10.031,25.379h2.619L275.448,310.7Z" transform="translate(-254.166 -270.991)" fill="#78b9eb"/>
      </g>
      <g id="Grupo_1208906" data-name="Grupo 1208906" transform="translate(105.155 5.528)">
        <rect id="Rectángulo_418269" data-name="Rectángulo 418269" width="1.964" height="1.964" transform="translate(3.278 8.043) rotate(-90.149)" fill="#fff"/>
        <rect id="Rectángulo_418270" data-name="Rectángulo 418270" width="1.964" height="1.964" transform="translate(0.005 8.051) rotate(-90.149)" fill="#fff"/>
        <rect id="Rectángulo_418271" data-name="Rectángulo 418271" width="1.964" height="6.63" transform="translate(6.552 8.034) rotate(-90.149)" fill="#fff"/>
        <rect id="Rectángulo_418272" data-name="Rectángulo 418272" width="1.964" height="1.964" transform="translate(13.706 1.969) rotate(-90.126)" fill="#fff"/>
        <rect id="Rectángulo_418273" data-name="Rectángulo 418273" width="1.964" height="9.118" transform="translate(0.005 2) rotate(-90.126)" fill="#fff"/>
        <rect id="Rectángulo_418274" data-name="Rectángulo 418274" width="1.964" height="1.964" transform="translate(10.432 1.977) rotate(-90.126)" fill="#fff"/>
        <rect id="Rectángulo_418275" data-name="Rectángulo 418275" width="1.964" height="1.964" transform="translate(13.706 33.2) rotate(-90.126)" fill="#fff"/>
        <rect id="Rectángulo_418276" data-name="Rectángulo 418276" width="1.964" height="9.118" transform="translate(0.005 33.232) rotate(-90.126)" fill="#fff"/>
        <rect id="Rectángulo_418277" data-name="Rectángulo 418277" width="1.964" height="1.964" transform="translate(10.432 33.208) rotate(-90.126)" fill="#fff"/>
      </g>
      <g id="Grupo_1208907" data-name="Grupo 1208907" transform="translate(76.496)">
        <rect id="Rectángulo_418278" data-name="Rectángulo 418278" width="1.964" height="1.964" transform="translate(33.197 21.162)" fill="#1d1d1f"/>
        <rect id="Rectángulo_418279" data-name="Rectángulo 418279" width="1.964" height="1.964" transform="translate(36.471 21.162)" fill="#1d1d1f"/>
        <rect id="Rectángulo_418280" data-name="Rectángulo 418280" width="1.964" height="1.964" transform="translate(39.745 21.162)" fill="#1d1d1f"/>
        <rect id="Rectángulo_418281" data-name="Rectángulo 418281" width="1.964" height="1.964" transform="translate(33.197 18.006)" fill="#1d1d1f"/>
        <rect id="Rectángulo_418282" data-name="Rectángulo 418282" width="1.964" height="1.964" transform="translate(39.745 18.006)" fill="#1d1d1f"/>
        <rect id="Rectángulo_418283" data-name="Rectángulo 418283" width="1.964" height="1.964" transform="translate(36.471 18.006)" fill="#1d1d1f"/>
        <path id="Trazado_1050221" data-name="Trazado 1050221" d="M164.72,144.457a3.847,3.847,0,1,0-3.847-3.847A3.852,3.852,0,0,0,164.72,144.457Zm0-5.73a1.883,1.883,0,1,1-1.883,1.883A1.885,1.885,0,0,1,164.72,138.726Z" transform="translate(-149.824 -118.853)" fill="#1d1d1f"/>
        <path id="Trazado_1050222" data-name="Trazado 1050222" d="M115.711,95.77h-3.042v5.9h3.042l-2.151,2.151,4.17,4.17,2.151-2.151v3.042h5.9v-3.042l2.151,2.151,4.17-4.17-2.151-2.151h3.042v-5.9h-3.042L132.1,93.62l-4.17-4.17L125.777,91.6V88.559h-5.9V91.6L117.73,89.45l-4.17,4.17Zm2.019-3.543,1.826,1.826.641-.338a5.612,5.612,0,0,1,.957-.4l.692-.214V90.523h1.968V93.1l.692.214a5.624,5.624,0,0,1,.957.4l.641.338,1.826-1.826,1.392,1.392-1.826,1.826.338.641a5.646,5.646,0,0,1,.4.958l.214.691h2.581V99.7h-2.581l-.214.691a5.631,5.631,0,0,1-.4.958l-.338.641,1.825,1.825-1.392,1.392-1.825-1.825-.641.338a5.64,5.64,0,0,1-.958.4l-.691.214v2.581h-1.968v-2.581l-.691-.214a5.639,5.639,0,0,1-.958-.4l-.641-.338-1.826,1.826-1.392-1.392,1.826-1.826-.338-.641a5.632,5.632,0,0,1-.4-.957l-.214-.691h-2.581V97.735h2.581l.214-.691a5.626,5.626,0,0,1,.4-.957l.338-.641-1.826-1.826Z" transform="translate(-107.932 -76.962)" fill="#1d1d1f"/>
        <path id="Trazado_1050223" data-name="Trazado 1050223" d="M349.5,197.742h6.242V191.5H349.5Zm1.964-4.278h2.313v2.314h-2.313Z" transform="translate(-313.752 -166.423)" fill="#1d1d1f"/>
        <path id="Trazado_1050224" data-name="Trazado 1050224" d="M293.131,197.742h6.242V191.5h-6.242Zm1.964-4.278h2.314v2.314H295.1Z" transform="translate(-264.762 -166.423)" fill="#1d1d1f"/>
        <path id="Trazado_1050225" data-name="Trazado 1050225" d="M271.52,114.8h13.431v-1.964H270.707l-2.49,2.49,1.389,1.389Z" transform="translate(-243.111 -98.057)" fill="#1d1d1f"/>
        <rect id="Rectángulo_418284" data-name="Rectángulo 418284" width="4.976" height="1.964" transform="translate(3.383 5.563)" fill="#1d1d1f"/>
        <rect id="Rectángulo_418285" data-name="Rectángulo 418285" width="4.976" height="1.964" transform="translate(9.233 36.761)" fill="#1d1d1f"/>
        <path id="Trazado_1050226" data-name="Trazado 1050226" d="M103.1.007,96.909,0V2.625L76.5,2.619v7.81h1.7V33.852H76.5v7.81l15.637,0L84.3,61.475l0,.005,1.822.72.005,0,8.116-20.535h2.112L87.1,65.084H84.988l.419-1.061v-.007l-1.82-.719-.005,0L82.1,67.039l0,.009h6.337L96.909,45.61V67.041l6.189.007v-8.2l-1.964-.007v6.244h-2.26V41.668h2.26V56.882l1.964.007V45.615l3.446,8.717,0,.007,1.822-.72.005,0L103.65,41.668h2.112l9.254,23.416H112.9l-3.812-9.646,0-.007-1.82.719-.007,0,4.3,10.891,6.338,0L107.873,41.666l15.636,0V33.851h-1.7V10.435h1.7V2.619H103.1V.007ZM98.872,1.964h2.262v.655H98.872ZM121.545,39.7H78.46V35.816H98.6v0h1.958v0h20.987Zm-1.7-29.267V33.851H80.164V10.437h4.019V10.43h1.958v.007Zm1.7-5.854V8.471H78.46V4.583H98.6v0l1.958,0v0Z" transform="translate(-76.496)" fill="#1d1d1f"/>
      </g>
    </g>
  </g>
</svg>
